UbuntuMono-ItalicOLD.ufo
<glyph name="ampersand" format="2">
  <advance width="560"/>
  <unicode hex="0026"/>
  <outline>
    <contour>
      <point x="208" y="-9" type="curve" smooth="yes"/>
      <point x="272" y="-9"/>
      <point x="337" y="16"/>
      <point x="396" y="74" type="curve"/>
      <point x="404" y="50"/>
      <point x="411" y="26"/>
      <point x="417" y="0" type="curve"/>
      <point x="513" y="0" type="line"/>
      <point x="496" y="60"/>
      <point x="478" y="108"/>
      <point x="458" y="150" type="curve"/>
      <point x="493" y="205"/>
      <point x="524" y="276"/>
      <point x="550" y="363" type="curve"/>
      <point x="472" y="373" type="line"/>
      <point x="456" y="315"/>
      <point x="438" y="267"/>
      <point x="417" y="225" type="curve"/>
      <point x="398" y="258"/>
      <point x="379" y="287"/>
      <point x="334" y="360" type="curve"/>
      <point x="346" y="365" type="line" smooth="yes"/>
      <point x="476" y="432"/>
      <point x="520" y="522"/>
      <point x="520" y="594" type="curve" smooth="yes"/>
      <point x="520" y="672"/>
      <point x="464" y="709"/>
      <point x="398" y="709" type="curve" smooth="yes"/>
      <point x="290" y="709"/>
      <point x="192" y="632"/>
      <point x="192" y="501" type="curve" smooth="yes"/>
      <point x="192" y="460"/>
      <point x="206" y="420"/>
      <point x="228" y="379" type="curve"/>
      <point x="206" y="364" type="line" smooth="yes"/>
      <point x="99" y="297"/>
      <point x="64" y="211"/>
      <point x="64" y="138" type="curve" smooth="yes"/>
      <point x="64" y="56"/>
      <point x="122" y="-9"/>
    </contour>
    <contour>
      <point x="237" y="68" type="curve" smooth="yes"/>
      <point x="184" y="68"/>
      <point x="159" y="104"/>
      <point x="159" y="151" type="curve" smooth="yes"/>
      <point x="159" y="213"/>
      <point x="175" y="268"/>
      <point x="252" y="315" type="curve" smooth="yes"/>
      <point x="262" y="321" type="line"/>
      <point x="295" y="268"/>
      <point x="334" y="211"/>
      <point x="366" y="144" type="curve"/>
      <point x="324" y="93"/>
      <point x="279" y="68"/>
    </contour>
    <contour>
      <point x="301" y="416" type="line"/>
      <point x="284" y="448"/>
      <point x="279" y="472"/>
      <point x="279" y="502" type="curve" smooth="yes"/>
      <point x="279" y="594"/>
      <point x="329" y="636"/>
      <point x="377" y="636" type="curve" smooth="yes"/>
      <point x="408" y="636"/>
      <point x="435" y="618"/>
      <point x="435" y="585" type="curve" smooth="yes"/>
      <point x="435" y="534"/>
      <point x="395" y="464"/>
      <point x="319" y="424" type="curve" smooth="yes"/>
    </contour>
  </outline>
</glyph>
<glyph name="quotesingle" format="2">
  <advance width="560"/>
  <unicode hex="0027"/>
  <outline>
    <contour>
      <point x="336" y="461" type="curve"/>
      <point x="393" y="461" type="line"/>
      <point x="420" y="531"/>
      <point x="457" y="645"/>
      <point x="472" y="710" type="curve" smooth="yes"/>
      <point x="484" y="760" type="line"/>
      <point x="388" y="760" type="line"/>
      <point x="376" y="711" type="line" smooth="yes"/>
      <point x="360" y="645"/>
      <point x="342" y="531"/>
    </contour>
  </outline>
</glyph>
<glyph name="parenright" format="2">
  <advance width="560"/>
  <unicode hex="0029"/>
  <outline>
    <contour>
      <point x="99" y="-187" type="line"/>
      <point x="330" y="-52"/>
      <point x="486" y="187"/>
      <point x="486" y="422" type="curve" smooth="yes"/>
      <point x="486" y="550"/>
      <point x="439" y="678"/>
      <point x="332" y="785" type="curve"/>
      <point x="272" y="725" type="line"/>
      <point x="360" y="631"/>
      <point x="398" y="523"/>
      <point x="398" y="417" type="curve" smooth="yes"/>
      <point x="398" y="212"/>
      <point x="258" y="8"/>
      <point x="63" y="-115" type="curve"/>
    </contour>
  </outline>
</glyph>
<glyph name="comma" format="2">
  <advance width="560"/>
  <unicode hex="002C"/>
  <outline>
    <contour>
      <point x="127" y="-161" type="line"/>
      <point x="291" y="-141"/>
      <point x="362" y="-21"/>
      <point x="362" y="64" type="curve" smooth="yes"/>
      <point x="362" y="116"/>
      <point x="335" y="156"/>
      <point x="286" y="156" type="curve" smooth="yes"/>
      <point x="230" y="156"/>
      <point x="195" y="116"/>
      <point x="195" y="66" type="curve" smooth="yes"/>
      <point x="195" y="30"/>
      <point x="216" y="-3"/>
      <point x="258" y="-9" type="curve"/>
      <point x="239" y="-62"/>
      <point x="169" y="-84"/>
      <point x="118" y="-88" type="curve"/>
    </contour>
  </outline>
</glyph>
<glyph name="period" format="2">
  <advance width="560"/>
  <unicode hex="002E"/>
  <outline>
    <contour>
      <point x="269" y="-13" type="curve" smooth="yes"/>
      <point x="314" y="-13"/>
      <point x="360" y="24"/>
      <point x="360" y="80" type="curve" smooth="yes"/>
      <point x="360" y="131"/>
      <point x="325" y="158"/>
      <point x="283" y="158" type="curve" smooth="yes"/>
      <point x="236" y="158"/>
      <point x="195" y="123"/>
      <point x="195" y="62" type="curve" smooth="yes"/>
      <point x="195" y="12"/>
      <point x="227" y="-13"/>
    </contour>
  </outline>
</glyph>
<glyph name="zero" format="2">
  <advance width="560"/>
  <unicode hex="0030"/>
  <outline>
    <contour>
      <point x="260" y="-15" type="curve" smooth="yes"/>
      <point x="482" y="-15"/>
      <point x="587" y="304"/>
      <point x="587" y="501" type="curve" smooth="yes"/>
      <point x="587" y="638"/>
      <point x="534" y="709"/>
      <point x="421" y="709" type="curve" smooth="yes"/>
      <point x="199" y="709"/>
      <point x="94" y="390"/>
      <point x="94" y="193" type="curve" smooth="yes"/>
      <point x="94" y="56"/>
      <point x="147" y="-15"/>
    </contour>
    <contour>
      <point x="271" y="67" type="curve" smooth="yes"/>
      <point x="211" y="67"/>
      <point x="188" y="105"/>
      <point x="188" y="205" type="curve" smooth="yes"/>
      <point x="188" y="383"/>
      <point x="284" y="627"/>
      <point x="410" y="627" type="curve" smooth="yes"/>
      <point x="472" y="627"/>
      <point x="493" y="589"/>
      <point x="493" y="489" type="curve" smooth="yes"/>
      <point x="493" y="310"/>
      <point x="398" y="67"/>
    </contour>
    <contour>
      <point x="336" y="287" type="curve" smooth="yes"/>
      <point x="374" y="287"/>
      <point x="411" y="318"/>
      <point x="411" y="366" type="curve" smooth="yes"/>
      <point x="411" y="410"/>
      <point x="383" y="433"/>
      <point x="348" y="433" type="curve" smooth="yes"/>
      <point x="309" y="433"/>
      <point x="276" y="403"/>
      <point x="276" y="351" type="curve" smooth="yes"/>
      <point x="276" y="308"/>
      <point x="301" y="287"/>
    </contour>
  </outline>
</glyph>
<glyph name="four" format="2">
  <advance width="560"/>
  <unicode hex="0034"/>
  <outline>
    <contour>
      <point x="316" y="0" type="line"/>
      <point x="407" y="0" type="line"/>
      <point x="448" y="177" type="line"/>
      <point x="529" y="177" type="line"/>
      <point x="547" y="253" type="line"/>
      <point x="466" y="253" type="line"/>
      <point x="572" y="693" type="line"/>
      <point x="482" y="693" type="line"/>
      <point x="323" y="575"/>
      <point x="144" y="366"/>
      <point x="69" y="240" type="curve"/>
      <point x="54" y="177" type="line"/>
      <point x="358" y="177" type="line"/>
    </contour>
    <contour>
      <point x="167" y="253" type="line"/>
      <point x="242" y="373"/>
      <point x="360" y="497"/>
      <point x="455" y="577" type="curve"/>
      <point x="377" y="253" type="line"/>
    </contour>
  </outline>
</glyph>
<glyph name="eight" format="2">
  <advance width="560"/>
  <unicode hex="0038"/>
  <outline>
    <contour>
      <point x="272" y="-15" type="curve" smooth="yes"/>
      <point x="449" y="-15"/>
      <point x="538" y="88"/>
      <point x="538" y="206" type="curve" smooth="yes"/>
      <point x="538" y="277"/>
      <point x="501" y="318"/>
      <point x="456" y="349" type="curve"/>
      <point x="547" y="394"/>
      <point x="603" y="464"/>
      <point x="603" y="556" type="curve" smooth="yes"/>
      <point x="603" y="632"/>
      <point x="551" y="709"/>
      <point x="427" y="709" type="curve" smooth="yes"/>
      <point x="278" y="709"/>
      <point x="187" y="605"/>
      <point x="187" y="486" type="curve" smooth="yes"/>
      <point x="187" y="435"/>
      <point x="207" y="394"/>
      <point x="248" y="362" type="curve"/>
      <point x="148" y="314"/>
      <point x="88" y="237"/>
      <point x="88" y="141" type="curve" smooth="yes"/>
      <point x="88" y="66"/>
      <point x="139" y="-15"/>
    </contour>
    <contour>
      <point x="284" y="60" type="curve" smooth="yes"/>
      <point x="204" y="60"/>
      <point x="180" y="105"/>
      <point x="180" y="157" type="curve" smooth="yes"/>
      <point x="180" y="230"/>
      <point x="244" y="295"/>
      <point x="317" y="327" type="curve"/>
      <point x="398" y="299"/>
      <point x="445" y="262"/>
      <point x="445" y="197" type="curve" smooth="yes"/>
      <point x="445" y="116"/>
      <point x="373" y="60"/>
    </contour>
    <contour>
      <point x="383" y="381" type="curve"/>
      <point x="310" y="405"/>
      <point x="278" y="440"/>
      <point x="278" y="495" type="curve" smooth="yes"/>
      <point x="278" y="575"/>
      <point x="337" y="633"/>
      <point x="416" y="633" type="curve" smooth="yes"/>
      <point x="492" y="633"/>
      <point x="510" y="586"/>
      <point x="510" y="545" type="curve" smooth="yes"/>
      <point x="510" y="466"/>
      <point x="450" y="413"/>
    </contour>
  </outline>
</glyph>
<glyph name="nine" format="2">
  <advance width="560"/>
  <unicode hex="0039"/>
  <outline>
    <contour>
      <point x="109" y="-2" type="curve" smooth="yes"/>
      <point x="416" y="-2"/>
      <point x="599" y="223"/>
      <point x="599" y="508" type="curve" smooth="yes"/>
      <point x="599" y="631"/>
      <point x="535" y="708"/>
      <point x="412" y="708" type="curve" smooth="yes"/>
      <point x="235" y="708"/>
      <point x="152" y="570"/>
      <point x="152" y="436" type="curve" smooth="yes"/>
      <point x="152" y="347"/>
      <point x="204" y="272"/>
      <point x="324" y="272" type="curve" smooth="yes"/>
      <point x="370" y="272"/>
      <point x="421" y="283"/>
      <point x="464" y="304" type="curve"/>
      <point x="386" y="118"/>
      <point x="225" y="69"/>
      <point x="100" y="78" type="curve"/>
      <point x="83" y="-1" type="line"/>
      <point x="96" y="-2"/>
      <point x="102" y="-2"/>
    </contour>
    <contour>
      <point x="346" y="349" type="curve" smooth="yes"/>
      <point x="274" y="349"/>
      <point x="244" y="382"/>
      <point x="244" y="446" type="curve" smooth="yes"/>
      <point x="244" y="538"/>
      <point x="301" y="632"/>
      <point x="405" y="632" type="curve" smooth="yes"/>
      <point x="477" y="632"/>
      <point x="507" y="582"/>
      <point x="507" y="510" type="curve" smooth="yes"/>
      <point x="507" y="465"/>
      <point x="501" y="419"/>
      <point x="488" y="379" type="curve"/>
      <point x="440" y="356"/>
      <point x="393" y="349"/>
    </contour>
  </outline>
</glyph>
<glyph name="less" format="2">
  <advance width="560"/>
  <unicode hex="003C"/>
  <outline>
    <contour>
      <point x="467" y="62" type="line"/>
      <point x="510" y="136" type="line"/>
      <point x="198" y="280" type="line"/>
      <point x="580" y="426" type="line"/>
      <point x="575" y="508" type="line"/>
      <point x="106" y="325" type="line"/>
      <point x="87" y="245" type="line"/>
    </contour>
  </outline>
</glyph>
<glyph name="equal" format="2">
  <advance width="560"/>
  <unicode hex="003D"/>
  <outline>
    <contour>
      <point x="122" y="361" type="line"/>
      <point x="571" y="361" type="line"/>
      <point x="590" y="440" type="line"/>
      <point x="141" y="440" type="line"/>
    </contour>
    <contour>
      <point x="71" y="148" type="line"/>
      <point x="520" y="148" type="line"/>
      <point x="539" y="227" type="line"/>
      <point x="90" y="227" type="line"/>
    </contour>
  </outline>
</glyph>
<glyph name="greater" format="2">
  <advance width="560"/>
  <unicode hex="003E"/>
  <outline>
    <contour>
      <point x="73" y="62" type="line"/>
      <point x="541" y="245" type="line"/>
      <point x="560" y="325" type="line"/>
      <point x="180" y="508" type="line"/>
      <point x="138" y="435" type="line"/>
      <point x="449" y="290" type="line"/>
      <point x="67" y="144" type="line"/>
    </contour>
  </outline>
</glyph>
<glyph name="question" format="2">
  <advance width="560"/>
  <unicode hex="003F"/>
  <outline>
    <contour>
      <point x="253" y="236" type="curve"/>
      <point x="335" y="236" type="line"/>
      <point x="345" y="292"/>
      <point x="389" y="330"/>
      <point x="436" y="368" type="curve" smooth="yes"/>
      <point x="504" y="422"/>
      <point x="580" y="475"/>
      <point x="580" y="573" type="curve" smooth="yes"/>
      <point x="580" y="676"/>
      <point x="498" y="709"/>
      <point x="413" y="709" type="curve" smooth="yes"/>
      <point x="355" y="709"/>
      <point x="296" y="693"/>
      <point x="260" y="674" type="curve"/>
      <point x="270" y="603" type="line"/>
      <point x="318" y="625"/>
      <point x="356" y="633"/>
      <point x="400" y="633" type="curve" smooth="yes"/>
      <point x="463" y="633"/>
      <point x="488" y="603"/>
      <point x="488" y="561" type="curve" smooth="yes"/>
      <point x="488" y="503"/>
      <point x="438" y="459"/>
      <point x="383" y="416" type="curve" smooth="yes"/>
      <point x="324" y="365"/>
      <point x="259" y="314"/>
    </contour>
    <contour>
      <point x="249" y="-13" type="curve" smooth="yes"/>
      <point x="289" y="-13"/>
      <point x="329" y="19"/>
      <point x="329" y="71" type="curve" smooth="yes"/>
      <point x="329" y="115"/>
      <point x="299" y="139"/>
      <point x="261" y="139" type="curve" smooth="yes"/>
      <point x="220" y="139"/>
      <point x="183" y="108"/>
      <point x="183" y="54" type="curve" smooth="yes"/>
      <point x="183" y="9"/>
      <point x="211" y="-13"/>
    </contour>
  </outline>
</glyph>
<glyph name="at" format="2">
  <advance width="560"/>
  <unicode hex="0040"/>
  <outline>
    <contour>
      <point x="319" y="-149" type="curve" smooth="yes"/>
      <point x="348" y="-149"/>
      <point x="379" y="-144"/>
      <point x="412" y="-136" type="curve"/>
      <point x="420" y="-60" type="line"/>
      <point x="389" y="-69"/>
      <point x="361" y="-73"/>
      <point x="336" y="-73" type="curve" smooth="yes"/>
      <point x="215" y="-73"/>
      <point x="164" y="38"/>
      <point x="164" y="172" type="curve" smooth="yes"/>
      <point x="164" y="376"/>
      <point x="281" y="632"/>
      <point x="444" y="632" type="curve" smooth="yes"/>
      <point x="515" y="632"/>
      <point x="541" y="590"/>
      <point x="541" y="534" type="curve" smooth="yes"/>
      <point x="541" y="517"/>
      <point x="539" y="498"/>
      <point x="534" y="479" type="curve"/>
      <point x="522" y="480"/>
      <point x="511" y="482"/>
      <point x="501" y="482" type="curve" smooth="yes"/>
      <point x="323" y="482"/>
      <point x="245" y="354"/>
      <point x="245" y="217" type="curve" smooth="yes"/>
      <point x="245" y="95"/>
      <point x="323" y="48"/>
      <point x="411" y="48" type="curve" smooth="yes"/>
      <point x="447" y="48"/>
      <point x="487" y="56"/>
      <point x="523" y="71" type="curve"/>
      <point x="616" y="457" type="line" smooth="yes"/>
      <point x="623" y="485"/>
      <point x="626" y="512"/>
      <point x="626" y="538" type="curve" smooth="yes"/>
      <point x="626" y="640"/>
      <point x="570" y="710"/>
      <point x="450" y="710" type="curve" smooth="yes"/>
      <point x="222" y="710"/>
      <point x="77" y="416"/>
      <point x="77" y="172" type="curve" smooth="yes"/>
      <point x="77" y="-8"/>
      <point x="151" y="-149"/>
    </contour>
    <contour>
      <point x="412" y="121" type="curve" smooth="yes"/>
      <point x="361" y="121"/>
      <point x="332" y="156"/>
      <point x="332" y="218" type="curve" smooth="yes"/>
      <point x="332" y="319"/>
      <point x="381" y="408"/>
      <point x="477" y="408" type="curve" smooth="yes"/>
      <point x="489" y="408"/>
      <point x="502" y="405"/>
      <point x="515" y="401" type="curve"/>
      <point x="449" y="127" type="line"/>
      <point x="435" y="122"/>
      <point x="423" y="121"/>
    </contour>
  </outline>
</glyph>
<glyph name="B" format="2">
  <advance width="560"/>
  <unicode hex="0042"/>
  <outline>
    <contour>
      <point x="214" y="-6" type="curve" smooth="yes"/>
      <point x="427" y="-6"/>
      <point x="545" y="83"/>
      <point x="545" y="237" type="curve" smooth="yes"/>
      <point x="545" y="299"/>
      <point x="500" y="351"/>
      <point x="448" y="365" type="curve"/>
      <point x="545" y="403"/>
      <point x="586" y="472"/>
      <point x="586" y="559" type="curve" smooth="yes"/>
      <point x="586" y="659"/>
      <point x="503" y="700"/>
      <point x="382" y="700" type="curve" smooth="yes"/>
      <point x="335" y="700"/>
      <point x="259" y="696"/>
      <point x="211" y="683" type="curve"/>
      <point x="50" y="11" type="line"/>
      <point x="92" y="-1"/>
      <point x="167" y="-6"/>
    </contour>
    <contour>
      <point x="239" y="72" type="curve" smooth="yes"/>
      <point x="192" y="72"/>
      <point x="158" y="75"/>
      <point x="156" y="76" type="curve"/>
      <point x="216" y="324" type="line"/>
      <point x="310" y="324" type="line" smooth="yes"/>
      <point x="392" y="324"/>
      <point x="452" y="302"/>
      <point x="452" y="233" type="curve" smooth="yes"/>
      <point x="452" y="103"/>
      <point x="338" y="72"/>
    </contour>
    <contour>
      <point x="234" y="400" type="line"/>
      <point x="287" y="618" type="line"/>
      <point x="300" y="620"/>
      <point x="332" y="622"/>
      <point x="370" y="622" type="curve" smooth="yes"/>
      <point x="437" y="622"/>
      <point x="494" y="599"/>
      <point x="494" y="539" type="curve" smooth="yes"/>
      <point x="494" y="430"/>
      <point x="398" y="400"/>
      <point x="307" y="400" type="curve" smooth="yes"/>
    </contour>
  </outline>
</glyph>
<glyph name="C" format="2">
  <advance width="560"/>
  <unicode hex="0043"/>
  <outline>
    <contour>
      <point x="312" y="-15" type="curve" smooth="yes"/>
      <point x="407" y="-15"/>
      <point x="480" y="15"/>
      <point x="500" y="29" type="curve"/>
      <point x="489" y="108" type="line"/>
      <point x="463" y="92"/>
      <point x="404" y="67"/>
      <point x="333" y="67" type="curve" smooth="yes"/>
      <point x="242" y="67"/>
      <point x="193" y="133"/>
      <point x="193" y="241" type="curve" smooth="yes"/>
      <point x="193" y="431"/>
      <point x="296" y="627"/>
      <point x="468" y="627" type="curve" smooth="yes"/>
      <point x="521" y="627"/>
      <point x="573" y="606"/>
      <point x="599" y="584" type="curve"/>
      <point x="643" y="657" type="line"/>
      <point x="618" y="678"/>
      <point x="564" y="709"/>
      <point x="475" y="709" type="curve" smooth="yes"/>
      <point x="242" y="709"/>
      <point x="100" y="463"/>
      <point x="100" y="226" type="curve" smooth="yes"/>
      <point x="100" y="80"/>
      <point x="183" y="-15"/>
    </contour>
  </outline>
</glyph>
<glyph name="F" format="2">
  <advance width="560"/>
  <unicode hex="0046"/>
  <outline>
    <contour>
      <point x="80" y="0" type="line"/>
      <point x="172" y="0" type="line"/>
      <point x="249" y="321" type="line"/>
      <point x="514" y="321" type="line"/>
      <point x="533" y="399" type="line"/>
      <point x="268" y="399" type="line"/>
      <point x="320" y="615" type="line"/>
      <point x="622" y="615" type="line"/>
      <point x="641" y="693" type="line"/>
      <point x="248" y="693" type="line"/>
    </contour>
  </outline>
</glyph>
<glyph name="H" format="2">
  <advance width="560"/>
  <unicode hex="0048"/>
  <outline>
    <contour>
      <point x="40" y="0" type="line"/>
      <point x="131" y="0" type="line"/>
      <point x="209" y="323" type="line"/>
      <point x="465" y="323" type="line"/>
      <point x="388" y="0" type="line"/>
      <point x="479" y="0" type="line"/>
      <point x="646" y="693" type="line"/>
      <point x="554" y="693" type="line"/>
      <point x="484" y="401" type="line"/>
      <point x="228" y="401" type="line"/>
      <point x="298" y="693" type="line"/>
      <point x="206" y="693" type="line"/>
    </contour>
  </outline>
</glyph>
<glyph name="I" format="2">
  <advance width="560"/>
  <unicode hex="0049"/>
  <outline>
    <contour>
      <point x="80" y="0" type="line"/>
      <point x="439" y="0" type="line"/>
      <point x="458" y="78" type="line"/>
      <point x="324" y="78" type="line"/>
      <point x="454" y="615" type="line"/>
      <point x="587" y="615" type="line"/>
      <point x="606" y="693" type="line"/>
      <point x="246" y="693" type="line"/>
      <point x="227" y="615" type="line"/>
      <point x="361" y="615" type="line"/>
      <point x="232" y="78" type="line"/>
      <point x="99" y="78" type="line"/>
    </contour>
  </outline>
</glyph>
<glyph name="K" format="2">
  <advance width="560"/>
  <unicode hex="004B"/>
  <outline>
    <contour>
      <point x="50" y="0" type="line"/>
      <point x="142" y="0" type="line"/>
      <point x="222" y="334" type="line"/>
      <point x="299" y="264"/>
      <point x="367" y="158"/>
      <point x="423" y="0" type="curve"/>
      <point x="523" y="0" type="line"/>
      <point x="467" y="157"/>
      <point x="382" y="289"/>
      <point x="318" y="361" type="curve"/>
      <point x="451" y="482"/>
      <point x="550" y="579"/>
      <point x="659" y="693" type="curve"/>
      <point x="544" y="693" type="line"/>
      <point x="460" y="599"/>
      <point x="360" y="501"/>
      <point x="235" y="390" type="curve"/>
      <point x="308" y="693" type="line"/>
      <point x="216" y="693" type="line"/>
    </contour>
  </outline>
</glyph>
<glyph name="L" format="2">
  <advance width="560"/>
  <unicode hex="004C"/>
  <outline>
    <contour>
      <point x="60" y="0" type="line"/>
      <point x="454" y="0" type="line"/>
      <point x="472" y="78" type="line"/>
      <point x="171" y="78" type="line"/>
      <point x="319" y="693" type="line"/>
      <point x="227" y="693" type="line"/>
    </contour>
  </outline>
</glyph>
<glyph name="M" format="2">
  <advance width="560"/>
  <unicode hex="004D"/>
  <outline>
    <contour>
      <point x="20" y="0" type="curve"/>
      <point x="108" y="0" type="line"/>
      <point x="149" y="158"/>
      <point x="209" y="375"/>
      <point x="260" y="579" type="curve"/>
      <point x="268" y="498"/>
      <point x="282" y="373"/>
      <point x="287" y="263" type="curve"/>
      <point x="367" y="263" type="line"/>
      <point x="544" y="579" type="line"/>
      <point x="507" y="390"/>
      <point x="452" y="161"/>
      <point x="418" y="0" type="curve"/>
      <point x="507" y="0" type="line"/>
      <point x="559" y="251"/>
      <point x="606" y="505"/>
      <point x="625" y="693" type="curve"/>
      <point x="539" y="693" type="line"/>
      <point x="348" y="348" type="line"/>
      <point x="339" y="466"/>
      <point x="333" y="573"/>
      <point x="323" y="693" type="curve"/>
      <point x="237" y="693" type="line"/>
      <point x="152" y="460"/>
      <point x="85" y="239"/>
    </contour>
  </outline>
</glyph>
<glyph name="Q" format="2">
  <advance width="560"/>
  <unicode hex="0051"/>
  <outline>
    <contour>
      <point x="422" y="-185" type="curve"/>
      <point x="463" y="-111" type="line"/>
      <point x="371" y="-100"/>
      <point x="308" y="-68"/>
      <point x="308" y="-20" type="curve" smooth="yes"/>
      <point x="308" y="-12" type="line"/>
      <point x="525" y="18"/>
      <point x="606" y="330"/>
      <point x="606" y="488" type="curve" smooth="yes"/>
      <point x="606" y="641"/>
      <point x="532" y="709"/>
      <point x="424" y="709" type="curve" smooth="yes"/>
      <point x="181" y="709"/>
      <point x="90" y="372"/>
      <point x="90" y="206" type="curve" smooth="yes"/>
      <point x="90" y="84"/>
      <point x="138" y="16"/>
      <point x="212" y="-6" type="curve"/>
      <point x="212" y="-8"/>
      <point x="212" y="-9"/>
      <point x="212" y="-11" type="curve" smooth="yes"/>
      <point x="211" y="-136"/>
      <point x="314" y="-164"/>
    </contour>
    <contour>
      <point x="284" y="65" type="curve" smooth="yes"/>
      <point x="221" y="65"/>
      <point x="183" y="108"/>
      <point x="183" y="213" type="curve" smooth="yes"/>
      <point x="183" y="384"/>
      <point x="267" y="629"/>
      <point x="413" y="629" type="curve" smooth="yes"/>
      <point x="476" y="629"/>
      <point x="513" y="586"/>
      <point x="513" y="482" type="curve" smooth="yes"/>
      <point x="513" y="310"/>
      <point x="431" y="65"/>
    </contour>
  </outline>
</glyph>
<glyph name="S" format="2">
  <advance width="560"/>
  <unicode hex="0053"/>
  <outline>
    <contour>
      <point x="255" y="-15" type="curve" smooth="yes"/>
      <point x="416" y="-15"/>
      <point x="524" y="59"/>
      <point x="524" y="206" type="curve" smooth="yes"/>
      <point x="524" y="311"/>
      <point x="464" y="348"/>
      <point x="385" y="389" type="curve" smooth="yes"/>
      <point x="323" y="422"/>
      <point x="280" y="444"/>
      <point x="280" y="512" type="curve" smooth="yes"/>
      <point x="280" y="594"/>
      <point x="343" y="628"/>
      <point x="426" y="628" type="curve" smooth="yes"/>
      <point x="493" y="628"/>
      <point x="544" y="612"/>
      <point x="567" y="592" type="curve"/>
      <point x="610" y="666" type="line"/>
      <point x="587" y="682"/>
      <point x="519" y="709"/>
      <point x="442" y="709" type="curve" smooth="yes"/>
      <point x="271" y="709"/>
      <point x="187" y="624"/>
      <point x="187" y="503" type="curve" smooth="yes"/>
      <point x="187" y="399"/>
      <point x="248" y="362"/>
      <point x="310" y="328" type="curve" smooth="yes"/>
      <point x="379" y="291"/>
      <point x="431" y="263"/>
      <point x="431" y="197" type="curve" smooth="yes"/>
      <point x="431" y="99"/>
      <point x="348" y="66"/>
      <point x="267" y="66" type="curve" smooth="yes"/>
      <point x="183" y="66"/>
      <point x="128" y="94"/>
      <point x="103" y="111" type="curve"/>
      <point x="60" y="35" type="line"/>
      <point x="85" y="17"/>
      <point x="153" y="-15"/>
    </contour>
  </outline>
</glyph>
<glyph name="U" format="2">
  <advance width="560"/>
  <unicode hex="0055"/>
  <outline>
    <contour>
      <point x="265" y="-15" type="curve" smooth="yes"/>
      <point x="437" y="-15"/>
      <point x="496" y="73"/>
      <point x="533" y="226" type="curve" smooth="yes"/>
      <point x="645" y="693" type="line"/>
      <point x="553" y="693" type="line"/>
      <point x="444" y="237" type="line" smooth="yes"/>
      <point x="409" y="96"/>
      <point x="361" y="65"/>
      <point x="279" y="65" type="curve" smooth="yes"/>
      <point x="206" y="65"/>
      <point x="183" y="118"/>
      <point x="183" y="179" type="curve" smooth="yes"/>
      <point x="183" y="203"/>
      <point x="186" y="226"/>
      <point x="192" y="250" type="curve" smooth="yes"/>
      <point x="298" y="693" type="line"/>
      <point x="206" y="693" type="line"/>
      <point x="100" y="249" type="line" smooth="yes"/>
      <point x="94" y="225"/>
      <point x="91" y="200"/>
      <point x="91" y="177" type="curve" smooth="yes"/>
      <point x="91" y="75"/>
      <point x="144" y="-15"/>
    </contour>
  </outline>
</glyph>
<glyph name="V" format="2">
  <advance width="560"/>
  <unicode hex="0056"/>
  <outline>
    <contour>
      <point x="197" y="0" type="curve"/>
      <point x="311" y="0" type="line"/>
      <point x="474" y="269"/>
      <point x="641" y="597"/>
      <point x="685" y="693" type="curve"/>
      <point x="587" y="693" type="line"/>
      <point x="484" y="468"/>
      <point x="379" y="273"/>
      <point x="273" y="81" type="curve"/>
      <point x="263" y="225"/>
      <point x="250" y="429"/>
      <point x="249" y="693" type="curve"/>
      <point x="152" y="693" type="line"/>
      <point x="152" y="597"/>
      <point x="168" y="269"/>
    </contour>
  </outline>
</glyph>
<glyph name="Z" format="2">
  <advance width="560"/>
  <unicode hex="005A"/>
  <outline>
    <contour>
      <point x="40" y="0" type="line"/>
      <point x="486" y="0" type="line"/>
      <point x="504" y="78" type="line"/>
      <point x="164" y="78" type="line"/>
      <point x="279" y="239"/>
      <point x="498" y="484"/>
      <point x="623" y="616" type="curve"/>
      <point x="641" y="693" type="line"/>
      <point x="220" y="693" type="line"/>
      <point x="200" y="615" type="line"/>
      <point x="515" y="615" type="line"/>
      <point x="371" y="463"/>
      <point x="198" y="258"/>
      <point x="58" y="76" type="curve"/>
    </contour>
  </outline>
</glyph>
<glyph name="bracketleft" format="2">
  <advance width="560"/>
  <unicode hex="005B"/>
  <outline>
    <contour>
      <point x="110" y="-185" type="line"/>
      <point x="379" y="-185" type="line"/>
      <point x="398" y="-112" type="line"/>
      <point x="215" y="-112" type="line"/>
      <point x="413" y="710" type="line"/>
      <point x="595" y="710" type="line"/>
      <point x="613" y="783" type="line"/>
      <point x="343" y="783" type="line"/>
    </contour>
  </outline>
</glyph>
<glyph name="backslash" format="2">
  <advance width="560"/>
  <unicode hex="005C"/>
  <outline>
    <contour>
      <point x="321" y="-185" type="line"/>
      <point x="416" y="-185" type="line"/>
      <point x="338" y="783" type="line"/>
      <point x="245" y="783" type="line"/>
    </contour>
  </outline>
</glyph>
<glyph name="b" format="2">
  <advance width="560"/>
  <unicode hex="0062"/>
  <outline>
    <contour>
      <point x="206" y="-11" type="curve" smooth="yes"/>
      <point x="449" y="-11"/>
      <point x="566" y="166"/>
      <point x="566" y="349" type="curve" smooth="yes"/>
      <point x="566" y="454"/>
      <point x="511" y="532"/>
      <point x="395" y="532" type="curve" smooth="yes"/>
      <point x="351" y="532"/>
      <point x="309" y="519"/>
      <point x="278" y="500" type="curve"/>
      <point x="344" y="776" type="line"/>
      <point x="248" y="760" type="line"/>
      <point x="71" y="20" type="line"/>
      <point x="106" y="-2"/>
      <point x="166" y="-11"/>
    </contour>
    <contour>
      <point x="223" y="69" type="curve" smooth="yes"/>
      <point x="206" y="69"/>
      <point x="187" y="72"/>
      <point x="174" y="75" type="curve"/>
      <point x="255" y="414" type="line"/>
      <point x="290" y="439"/>
      <point x="332" y="454"/>
      <point x="372" y="454" type="curve" smooth="yes"/>
      <point x="452" y="454"/>
      <point x="474" y="399"/>
      <point x="474" y="339" type="curve" smooth="yes"/>
      <point x="474" y="199"/>
      <point x="375" y="69"/>
    </contour>
  </outline>
</glyph>
<glyph name="d" format="2">
  <advance width="560"/>
  <unicode hex="0064"/>
  <outline>
    <contour>
      <point x="260" y="-12" type="curve" smooth="yes"/>
      <point x="336" y="-12"/>
      <point x="385" y="20"/>
      <point x="414" y="47" type="curve"/>
      <point x="418" y="26"/>
      <point x="424" y="8"/>
      <point x="431" y="-6" type="curve"/>
      <point x="513" y="6" type="line"/>
      <point x="501" y="43"/>
      <point x="495" y="72"/>
      <point x="495" y="103" type="curve" smooth="yes"/>
      <point x="495" y="134"/>
      <point x="501" y="160"/>
      <point x="508" y="192" type="curve" smooth="yes"/>
      <point x="650" y="776" type="line"/>
      <point x="554" y="760" type="line"/>
      <point x="498" y="528" type="line"/>
      <point x="482" y="530"/>
      <point x="463" y="531"/>
      <point x="447" y="531" type="curve" smooth="yes"/>
      <point x="211" y="531"/>
      <point x="90" y="353"/>
      <point x="90" y="174" type="curve" smooth="yes"/>
      <point x="90" y="64"/>
      <point x="143" y="-12"/>
    </contour>
    <contour>
      <point x="278" y="64" type="curve" smooth="yes"/>
      <point x="204" y="64"/>
      <point x="183" y="116"/>
      <point x="183" y="184" type="curve" smooth="yes"/>
      <point x="183" y="325"/>
      <point x="283" y="454"/>
      <point x="435" y="454" type="curve" smooth="yes"/>
      <point x="447" y="454"/>
      <point x="474" y="450"/>
      <point x="482" y="448" type="curve"/>
      <point x="420" y="203" type="line" smooth="yes"/>
      <point x="414" y="178"/>
      <point x="410" y="147"/>
      <point x="409" y="124" type="curve"/>
      <point x="380" y="92"/>
      <point x="334" y="64"/>
    </contour>
  </outline>
</glyph>
<glyph name="g" format="2">
  <advance width="560"/>
  <unicode hex="0067"/>
  <outline>
    <contour>
      <point x="180" y="-188" type="curve" smooth="yes"/>
      <point x="389" y="-188"/>
      <point x="444" y="-99"/>
      <point x="479" y="45" type="curve" smooth="yes"/>
      <point x="595" y="505" type="line"/>
      <point x="560" y="525"/>
      <point x="491" y="531"/>
      <point x="454" y="531" type="curve" smooth="yes"/>
      <point x="214" y="531"/>
      <point x="96" y="354"/>
      <point x="96" y="175" type="curve" smooth="yes"/>
      <point x="96" y="78"/>
      <point x="156" y="21"/>
      <point x="264" y="21" type="curve" smooth="yes"/>
      <point x="312" y="21"/>
      <point x="366" y="39"/>
      <point x="393" y="54" type="curve"/>
      <point x="389" y="35" type="line" smooth="yes"/>
      <point x="370" y="-60"/>
      <point x="310" y="-110"/>
      <point x="200" y="-110" type="curve" smooth="yes"/>
      <point x="144" y="-110"/>
      <point x="90" y="-93"/>
      <point x="59" y="-71" type="curve"/>
      <point x="24" y="-148" type="line"/>
      <point x="63" y="-171"/>
      <point x="123" y="-188"/>
    </contour>
    <contour>
      <point x="284" y="97" type="curve" smooth="yes"/>
      <point x="220" y="97"/>
      <point x="188" y="122"/>
      <point x="188" y="193" type="curve" smooth="yes"/>
      <point x="188" y="323"/>
      <point x="290" y="454"/>
      <point x="435" y="454" type="curve" smooth="yes"/>
      <point x="450" y="454"/>
      <point x="474" y="451"/>
      <point x="487" y="448" type="curve"/>
      <point x="414" y="141" type="line"/>
      <point x="390" y="124"/>
      <point x="337" y="97"/>
    </contour>
  </outline>
</glyph>
<glyph name="h" format="2">
  <advance width="560"/>
  <unicode hex="0068"/>
  <outline>
    <contour>
      <point x="50" y="0" type="line"/>
      <point x="141" y="0" type="line"/>
      <point x="248" y="435" type="line"/>
      <point x="276" y="446"/>
      <point x="305" y="450"/>
      <point x="337" y="450" type="curve" smooth="yes"/>
      <point x="417" y="450"/>
      <point x="441" y="411"/>
      <point x="441" y="358" type="curve" smooth="yes"/>
      <point x="441" y="323"/>
      <point x="429" y="281"/>
      <point x="420" y="244" type="curve" smooth="yes"/>
      <point x="362" y="0" type="line"/>
      <point x="454" y="0" type="line"/>
      <point x="517" y="264" type="line" smooth="yes"/>
      <point x="526" y="300"/>
      <point x="533" y="335"/>
      <point x="533" y="366" type="curve" smooth="yes"/>
      <point x="533" y="463"/>
      <point x="485" y="531"/>
      <point x="364" y="531" type="curve" smooth="yes"/>
      <point x="329" y="531"/>
      <point x="295" y="523"/>
      <point x="264" y="512" type="curve"/>
      <point x="328" y="776" type="line"/>
      <point x="232" y="760" type="line"/>
    </contour>
  </outline>
</glyph>
<glyph name="j" format="2">
  <advance width="560"/>
  <unicode hex="006A"/>
  <outline>
    <contour>
      <point x="172" y="-188" type="curve" smooth="yes"/>
      <point x="295" y="-188"/>
      <point x="376" y="-137"/>
      <point x="411" y="7" type="curve" smooth="yes"/>
      <point x="534" y="520" type="line"/>
      <point x="232" y="520" type="line"/>
      <point x="214" y="442" type="line"/>
      <point x="424" y="442" type="line"/>
      <point x="319" y="9" type="line" smooth="yes"/>
      <point x="298" y="-80"/>
      <point x="260" y="-109"/>
      <point x="183" y="-109" type="curve" smooth="yes"/>
      <point x="144" y="-109"/>
      <point x="90" y="-93"/>
      <point x="59" y="-71" type="curve"/>
      <point x="24" y="-148" type="line"/>
      <point x="67" y="-175"/>
      <point x="115" y="-188"/>
    </contour>
    <contour>
      <point x="479" y="600" type="curve" smooth="yes"/>
      <point x="519" y="600"/>
      <point x="560" y="633"/>
      <point x="560" y="682" type="curve" smooth="yes"/>
      <point x="560" y="726"/>
      <point x="530" y="750"/>
      <point x="492" y="750" type="curve" smooth="yes"/>
      <point x="451" y="750"/>
      <point x="412" y="718"/>
      <point x="412" y="666" type="curve" smooth="yes"/>
      <point x="412" y="624"/>
      <point x="440" y="600"/>
    </contour>
  </outline>
</glyph>
<glyph name="k" format="2">
  <advance width="560"/>
  <unicode hex="006B"/>
  <outline>
    <contour>
      <point x="71" y="0" type="line"/>
      <point x="162" y="0" type="line"/>
      <point x="225" y="260" type="line"/>
      <point x="297" y="203"/>
      <point x="364" y="108"/>
      <point x="411" y="0" type="curve"/>
      <point x="511" y="0" type="line"/>
      <point x="474" y="102"/>
      <point x="391" y="222"/>
      <point x="323" y="282" type="curve"/>
      <point x="400" y="338"/>
      <point x="536" y="444"/>
      <point x="610" y="520" type="curve"/>
      <point x="501" y="520" type="line"/>
      <point x="426" y="451"/>
      <point x="326" y="375"/>
      <point x="236" y="310" type="curve"/>
      <point x="349" y="776" type="line"/>
      <point x="253" y="760" type="line"/>
    </contour>
  </outline>
</glyph>
<glyph name="l" format="2">
  <advance width="560"/>
  <unicode hex="006C"/>
  <outline>
    <contour>
      <point x="363" y="-12" type="curve" smooth="yes"/>
      <point x="424" y="-12"/>
      <point x="476" y="4"/>
      <point x="496" y="17" type="curve"/>
      <point x="489" y="95" type="line"/>
      <point x="469" y="84"/>
      <point x="428" y="66"/>
      <point x="389" y="66" type="curve" smooth="yes"/>
      <point x="333" y="66"/>
      <point x="315" y="86"/>
      <point x="315" y="130" type="curve" smooth="yes"/>
      <point x="315" y="153"/>
      <point x="320" y="181"/>
      <point x="327" y="212" type="curve" smooth="yes"/>
      <point x="461" y="771" type="line"/>
      <point x="220" y="771" type="line"/>
      <point x="200" y="692" type="line"/>
      <point x="351" y="692" type="line"/>
      <point x="237" y="220" type="line" smooth="yes"/>
      <point x="227" y="179"/>
      <point x="223" y="144"/>
      <point x="223" y="115" type="curve" smooth="yes"/>
      <point x="223" y="31"/>
      <point x="264" y="-12"/>
    </contour>
  </outline>
</glyph>
<glyph name="m" format="2">
  <advance width="560"/>
  <unicode hex="006D"/>
  <outline>
    <contour>
      <point x="35" y="0" type="line"/>
      <point x="118" y="0" type="line"/>
      <point x="225" y="445" type="line"/>
      <point x="243" y="451"/>
      <point x="259" y="455"/>
      <point x="272" y="455" type="curve" smooth="yes"/>
      <point x="302" y="455"/>
      <point x="315" y="439"/>
      <point x="315" y="412" type="curve" smooth="yes"/>
      <point x="315" y="400"/>
      <point x="312" y="386"/>
      <point x="308" y="371" type="curve" smooth="yes"/>
      <point x="267" y="200" type="line"/>
      <point x="351" y="200" type="line"/>
      <point x="391" y="370" type="line" smooth="yes"/>
      <point x="396" y="391"/>
      <point x="398" y="410"/>
      <point x="398" y="427" type="curve"/>
      <point x="418" y="446"/>
      <point x="438" y="455"/>
      <point x="455" y="455" type="curve" smooth="yes"/>
      <point x="480" y="455"/>
      <point x="497" y="437"/>
      <point x="497" y="404" type="curve" smooth="yes"/>
      <point x="497" y="395"/>
      <point x="496" y="384"/>
      <point x="493" y="372" type="curve" smooth="yes"/>
      <point x="404" y="0" type="line"/>
      <point x="488" y="0" type="line"/>
      <point x="576" y="370" type="line" smooth="yes"/>
      <point x="581" y="391"/>
      <point x="584" y="410"/>
      <point x="584" y="427" type="curve" smooth="yes"/>
      <point x="584" y="496"/>
      <point x="541" y="531"/>
      <point x="486" y="531" type="curve" smooth="yes"/>
      <point x="452" y="531"/>
      <point x="416" y="519"/>
      <point x="379" y="493" type="curve"/>
      <point x="360" y="519"/>
      <point x="326" y="531"/>
      <point x="284" y="531" type="curve" smooth="yes"/>
      <point x="246" y="531"/>
      <point x="202" y="522"/>
      <point x="156" y="505" type="curve"/>
    </contour>
  </outline>
</glyph>
<glyph name="o" format="2">
  <advance width="560"/>
  <unicode hex="006F"/>
  <outline>
    <contour>
      <point x="265" y="-12" type="curve" smooth="yes"/>
      <point x="482" y="-12"/>
      <point x="566" y="196"/>
      <point x="566" y="351" type="curve" smooth="yes"/>
      <point x="566" y="464"/>
      <point x="500" y="532"/>
      <point x="390" y="532" type="curve" smooth="yes"/>
      <point x="174" y="532"/>
      <point x="90" y="324"/>
      <point x="90" y="169" type="curve" smooth="yes"/>
      <point x="90" y="56"/>
      <point x="156" y="-12"/>
    </contour>
    <contour>
      <point x="281" y="71" type="curve" smooth="yes"/>
      <point x="211" y="71"/>
      <point x="183" y="110"/>
      <point x="183" y="177" type="curve" smooth="yes"/>
      <point x="183" y="300"/>
      <point x="254" y="450"/>
      <point x="374" y="450" type="curve" smooth="yes"/>
      <point x="445" y="450"/>
      <point x="473" y="410"/>
      <point x="473" y="343" type="curve" smooth="yes"/>
      <point x="473" y="220"/>
      <point x="401" y="71"/>
    </contour>
  </outline>
</glyph>
<glyph name="r" format="2">
  <advance width="560"/>
  <unicode hex="0072"/>
  <outline>
    <contour>
      <point x="100" y="0" type="line"/>
      <point x="192" y="0" type="line"/>
      <point x="295" y="432" type="line"/>
      <point x="343" y="445"/>
      <point x="392" y="450"/>
      <point x="438" y="450" type="curve" smooth="yes"/>
      <point x="482" y="450"/>
      <point x="504" y="448"/>
      <point x="550" y="436" type="curve"/>
      <point x="585" y="517" type="line"/>
      <point x="532" y="529"/>
      <point x="504" y="531"/>
      <point x="457" y="531" type="curve" smooth="yes"/>
      <point x="379" y="531"/>
      <point x="299" y="519"/>
      <point x="218" y="493" type="curve"/>
    </contour>
  </outline>
</glyph>
<glyph name="t" format="2">
  <advance width="560"/>
  <unicode hex="0074"/>
  <outline>
    <contour>
      <point x="349" y="-12" type="curve" smooth="yes"/>
      <point x="402" y="-12"/>
      <point x="449" y="0"/>
      <point x="492" y="15" type="curve"/>
      <point x="494" y="94" type="line"/>
      <point x="455" y="80"/>
      <point x="410" y="68"/>
      <point x="364" y="68" type="curve" smooth="yes"/>
      <point x="316" y="68"/>
      <point x="289" y="83"/>
      <point x="289" y="139" type="curve" smooth="yes"/>
      <point x="289" y="164"/>
      <point x="296" y="192"/>
      <point x="304" y="220" type="curve" smooth="yes"/>
      <point x="356" y="442" type="line"/>
      <point x="557" y="442" type="line"/>
      <point x="575" y="520" type="line"/>
      <point x="375" y="520" type="line"/>
      <point x="414" y="681" type="line"/>
      <point x="318" y="665" type="line"/>
      <point x="283" y="520" type="line"/>
      <point x="172" y="520" type="line"/>
      <point x="155" y="442" type="line"/>
      <point x="264" y="442" type="line"/>
      <point x="212" y="228" type="line" smooth="yes"/>
      <point x="203" y="192"/>
      <point x="197" y="155"/>
      <point x="197" y="122" type="curve" smooth="yes"/>
      <point x="197" y="19"/>
      <point x="264" y="-12"/>
    </contour>
  </outline>
</glyph>
<glyph name="u" format="2">
  <advance width="560"/>
  <unicode hex="0075"/>
  <outline>
    <contour>
      <point x="249" y="-11" type="curve" smooth="yes"/>
      <point x="324" y="-11"/>
      <point x="375" y="22"/>
      <point x="404" y="49" type="curve"/>
      <point x="408" y="28"/>
      <point x="416" y="9"/>
      <point x="422" y="-6" type="curve"/>
      <point x="504" y="6" type="line"/>
      <point x="491" y="43"/>
      <point x="486" y="71"/>
      <point x="486" y="102" type="curve" smooth="yes"/>
      <point x="486" y="133"/>
      <point x="491" y="160"/>
      <point x="498" y="192" type="curve" smooth="yes"/>
      <point x="577" y="520" type="line"/>
      <point x="485" y="520" type="line"/>
      <point x="408" y="199" type="line" smooth="yes"/>
      <point x="401" y="172"/>
      <point x="399" y="150"/>
      <point x="398" y="129" type="curve"/>
      <point x="370" y="96"/>
      <point x="324" y="67"/>
      <point x="267" y="67" type="curve" smooth="yes"/>
      <point x="202" y="67"/>
      <point x="186" y="110"/>
      <point x="186" y="158" type="curve" smooth="yes"/>
      <point x="186" y="199"/>
      <point x="199" y="243"/>
      <point x="206" y="274" type="curve" smooth="yes"/>
      <point x="265" y="520" type="line"/>
      <point x="172" y="520" type="line"/>
      <point x="109" y="254" type="line" smooth="yes"/>
      <point x="101" y="220"/>
      <point x="94" y="186"/>
      <point x="94" y="151" type="curve" smooth="yes"/>
      <point x="94" y="60"/>
      <point x="133" y="-11"/>
    </contour>
  </outline>
</glyph>
<glyph name="braceright" format="2">
  <advance width="560"/>
  <unicode hex="007D"/>
  <outline>
    <contour>
      <point x="0" y="-185" type="line"/>
      <point x="94" y="-185" type="line" smooth="yes"/>
      <point x="239" y="-185"/>
      <point x="293" y="-137"/>
      <point x="323" y="-15" type="curve" smooth="yes"/>
      <point x="365" y="166" type="line" smooth="yes"/>
      <point x="376" y="214"/>
      <point x="417" y="263"/>
      <point x="477" y="263" type="curve" smooth="yes"/>
      <point x="522" y="263" type="line"/>
      <point x="540" y="335" type="line"/>
      <point x="495" y="335" type="line" smooth="yes"/>
      <point x="444" y="335"/>
      <point x="424" y="366"/>
      <point x="424" y="403" type="curve" smooth="yes"/>
      <point x="424" y="412"/>
      <point x="426" y="421"/>
      <point x="428" y="432" type="curve" smooth="yes"/>
      <point x="472" y="613" type="line" smooth="yes"/>
      <point x="476" y="635"/>
      <point x="479" y="655"/>
      <point x="479" y="672" type="curve" smooth="yes"/>
      <point x="479" y="753"/>
      <point x="426" y="783"/>
      <point x="329" y="783" type="curve" smooth="yes"/>
      <point x="231" y="783" type="line"/>
      <point x="212" y="710" type="line"/>
      <point x="306" y="710" type="line" smooth="yes"/>
      <point x="366" y="710"/>
      <point x="393" y="699"/>
      <point x="393" y="656" type="curve" smooth="yes"/>
      <point x="393" y="644"/>
      <point x="390" y="631"/>
      <point x="386" y="612" type="curve" smooth="yes"/>
      <point x="349" y="457" type="line" smooth="yes"/>
      <point x="344" y="435"/>
      <point x="339" y="412"/>
      <point x="339" y="389" type="curve" smooth="yes"/>
      <point x="339" y="354"/>
      <point x="351" y="323"/>
      <point x="379" y="299" type="curve"/>
      <point x="324" y="276"/>
      <point x="295" y="228"/>
      <point x="274" y="141" type="curve" smooth="yes"/>
      <point x="237" y="-13" type="line" smooth="yes"/>
      <point x="218" y="-97"/>
      <point x="181" y="-112"/>
      <point x="108" y="-112" type="curve" smooth="yes"/>
      <point x="18" y="-112" type="line"/>
    </contour>
  </outline>
</glyph>
<glyph name="asciitilde" format="2">
  <advance width="560"/>
  <unicode hex="007E"/>
  <outline>
    <contour>
      <point x="418" y="212" type="curve" smooth="yes"/>
      <point x="510" y="212"/>
      <point x="559" y="293"/>
      <point x="580" y="352" type="curve"/>
      <point x="516" y="372" type="line"/>
      <point x="501" y="340"/>
      <point x="475" y="293"/>
      <point x="431" y="293" type="curve" smooth="yes"/>
      <point x="395" y="293"/>
      <point x="376" y="315"/>
      <point x="345" y="336" type="curve" smooth="yes"/>
      <point x="320" y="355"/>
      <point x="293" y="377"/>
      <point x="246" y="377" type="curve" smooth="yes"/>
      <point x="155" y="377"/>
      <point x="105" y="296"/>
      <point x="84" y="237" type="curve"/>
      <point x="148" y="217" type="line"/>
      <point x="164" y="249"/>
      <point x="188" y="296"/>
      <point x="233" y="296" type="curve" smooth="yes"/>
      <point x="269" y="296"/>
      <point x="289" y="276"/>
      <point x="319" y="253" type="curve" smooth="yes"/>
      <point x="345" y="235"/>
      <point x="371" y="212"/>
    </contour>
  </outline>
</glyph>
<glyph name="cent" format="2">
  <advance width="560"/>
  <unicode hex="00A2"/>
  <outline>
    <contour>
      <point x="220" y="-109" type="line"/>
      <point x="300" y="-109" type="line"/>
      <point x="333" y="31" type="line"/>
      <point x="402" y="34"/>
      <point x="461" y="50"/>
      <point x="485" y="65" type="curve"/>
      <point x="478" y="142" type="line"/>
      <point x="463" y="129"/>
      <point x="399" y="110"/>
      <point x="347" y="110" type="curve" smooth="yes"/>
      <point x="230" y="110"/>
      <point x="197" y="164"/>
      <point x="197" y="228" type="curve" smooth="yes"/>
      <point x="197" y="351"/>
      <point x="293" y="475"/>
      <point x="437" y="475" type="curve" smooth="yes"/>
      <point x="485" y="475"/>
      <point x="514" y="468"/>
      <point x="538" y="456" type="curve"/>
      <point x="571" y="530" type="line"/>
      <point x="538" y="545"/>
      <point x="500" y="551"/>
      <point x="460" y="554" type="curve"/>
      <point x="493" y="693" type="line"/>
      <point x="412" y="693" type="line"/>
      <point x="379" y="549" type="line"/>
      <point x="200" y="520"/>
      <point x="106" y="368"/>
      <point x="106" y="225" type="curve" smooth="yes"/>
      <point x="106" y="118"/>
      <point x="155" y="59"/>
      <point x="253" y="36" type="curve"/>
    </contour>
  </outline>
</glyph>
<glyph name="sterling" format="2">
  <advance width="560"/>
  <unicode hex="00A3"/>
  <outline>
    <contour>
      <point x="99" y="0" type="curve"/>
      <point x="493" y="0" type="line"/>
      <point x="512" y="80" type="line"/>
      <point x="222" y="80" type="line"/>
      <point x="249" y="147"/>
      <point x="273" y="223"/>
      <point x="291" y="298" type="curve"/>
      <point x="480" y="298" type="line"/>
      <point x="498" y="373" type="line"/>
      <point x="309" y="373" type="line"/>
      <point x="329" y="458" type="line" smooth="yes"/>
      <point x="360" y="586"/>
      <point x="411" y="625"/>
      <point x="488" y="625" type="curve" smooth="yes"/>
      <point x="529" y="625"/>
      <point x="560" y="615"/>
      <point x="591" y="599" type="curve"/>
      <point x="633" y="674" type="line"/>
      <point x="603" y="691"/>
      <point x="569" y="706"/>
      <point x="501" y="706" type="curve" smooth="yes"/>
      <point x="363" y="706"/>
      <point x="284" y="656"/>
      <point x="236" y="456" type="curve" smooth="yes"/>
      <point x="216" y="373" type="line"/>
      <point x="123" y="373" type="line"/>
      <point x="105" y="298" type="line"/>
      <point x="198" y="298" type="line"/>
      <point x="171" y="188"/>
      <point x="136" y="95"/>
    </contour>
  </outline>
</glyph>
<glyph name="brokenbar" format="2">
  <advance width="560"/>
  <unicode hex="00A6"/>
  <outline>
    <contour>
      <point x="312" y="400" type="line"/>
      <point x="399" y="400" type="line"/>
      <point x="492" y="783" type="line"/>
      <point x="404" y="783" type="line"/>
    </contour>
    <contour>
      <point x="171" y="-185" type="line"/>
      <point x="259" y="-185" type="line"/>
      <point x="351" y="198" type="line"/>
      <point x="263" y="198" type="line"/>
    </contour>
  </outline>
</glyph>
<glyph name="section" format="2">
  <advance width="560"/>
  <unicode hex="00A7"/>
  <outline>
    <contour>
      <point x="218" y="-109" type="curve" smooth="yes"/>
      <point x="367" y="-109"/>
      <point x="449" y="-38"/>
      <point x="449" y="59" type="curve" smooth="yes"/>
      <point x="449" y="110"/>
      <point x="429" y="136"/>
      <point x="410" y="153" type="curve"/>
      <point x="479" y="192"/>
      <point x="532" y="249"/>
      <point x="532" y="324" type="curve" smooth="yes"/>
      <point x="532" y="423"/>
      <point x="473" y="445"/>
      <point x="398" y="474" type="curve" smooth="yes"/>
      <point x="339" y="495"/>
      <point x="315" y="512"/>
      <point x="315" y="551" type="curve" smooth="yes"/>
      <point x="315" y="610"/>
      <point x="365" y="634"/>
      <point x="436" y="634" type="curve" smooth="yes"/>
      <point x="496" y="634"/>
      <point x="532" y="616"/>
      <point x="556" y="605" type="curve"/>
      <point x="590" y="678" type="line"/>
      <point x="559" y="692"/>
      <point x="511" y="709"/>
      <point x="444" y="709" type="curve" smooth="yes"/>
      <point x="314" y="709"/>
      <point x="224" y="646"/>
      <point x="224" y="538" type="curve" smooth="yes"/>
      <point x="224" y="502"/>
      <point x="234" y="475"/>
      <point x="253" y="456" type="curve"/>
      <point x="185" y="419"/>
      <point x="131" y="356"/>
      <point x="131" y="286" type="curve" smooth="yes"/>
      <point x="131" y="188"/>
      <point x="193" y="161"/>
      <point x="267" y="136" type="curve" smooth="yes"/>
      <point x="323" y="114"/>
      <point x="358" y="101"/>
      <point x="358" y="50" type="curve" smooth="yes"/>
      <point x="358" y="-1"/>
      <point x="312" y="-34"/>
      <point x="225" y="-34" type="curve" smooth="yes"/>
      <point x="161" y="-34"/>
      <point x="111" y="-16"/>
      <point x="86" y="-1" type="curve"/>
      <point x="50" y="-74" type="line"/>
      <point x="88" y="-95"/>
      <point x="146" y="-109"/>
    </contour>
    <contour>
      <point x="353" y="192" type="curve"/>
      <point x="348" y="194"/>
      <point x="342" y="196"/>
      <point x="334" y="199" type="curve" smooth="yes"/>
      <point x="271" y="223"/>
      <point x="218" y="244"/>
      <point x="218" y="296" type="curve" smooth="yes"/>
      <point x="218" y="351"/>
      <point x="267" y="398"/>
      <point x="312" y="418" type="curve"/>
      <point x="316" y="416"/>
      <point x="321" y="413"/>
      <point x="329" y="410" type="curve" smooth="yes"/>
      <point x="394" y="386"/>
      <point x="445" y="365"/>
      <point x="445" y="314" type="curve" smooth="yes"/>
      <point x="445" y="258"/>
      <point x="398" y="212"/>
    </contour>
  </outline>
</glyph>
<glyph name="logicalnot" format="2">
  <advance width="560"/>
  <unicode hex="00AC"/>
  <outline>
    <contour>
      <point x="419" y="48" type="line"/>
      <point x="500" y="48" type="line"/>
      <point x="580" y="389" type="line"/>
      <point x="122" y="389" type="line"/>
      <point x="103" y="310" type="line"/>
      <point x="482" y="310" type="line"/>
    </contour>
  </outline>
</glyph>
<glyph name="registered" format="2">
  <advance width="560"/>
  <unicode hex="00AE"/>
  <outline>
    <contour>
      <point x="321" y="-12" type="curve" smooth="yes"/>
      <point x="441" y="-12"/>
      <point x="564" y="80"/>
      <point x="564" y="261" type="curve" smooth="yes"/>
      <point x="564" y="441"/>
      <point x="444" y="532"/>
      <point x="323" y="532" type="curve" smooth="yes"/>
      <point x="203" y="532"/>
      <point x="80" y="441"/>
      <point x="80" y="259" type="curve" smooth="yes"/>
      <point x="80" y="80"/>
      <point x="200" y="-12"/>
    </contour>
    <contour>
      <point x="323" y="48" type="curve" smooth="yes"/>
      <point x="234" y="48"/>
      <point x="144" y="119"/>
      <point x="144" y="261" type="curve" smooth="yes"/>
      <point x="144" y="400"/>
      <point x="233" y="472"/>
      <point x="323" y="472" type="curve" smooth="yes"/>
      <point x="410" y="472"/>
      <point x="500" y="401"/>
      <point x="500" y="259" type="curve" smooth="yes"/>
      <point x="500" y="120"/>
      <point x="411" y="48"/>
    </contour>
    <contour>
      <point x="228" y="123" type="line"/>
      <point x="288" y="123" type="line"/>
      <point x="288" y="209" type="line"/>
      <point x="329" y="209" type="line"/>
      <point x="343" y="186"/>
      <point x="358" y="159"/>
      <point x="377" y="123" type="curve"/>
      <point x="441" y="123" type="line"/>
      <point x="422" y="161"/>
      <point x="401" y="199"/>
      <point x="384" y="224" type="curve"/>
      <point x="413" y="241"/>
      <point x="428" y="267"/>
      <point x="428" y="304" type="curve" smooth="yes"/>
      <point x="428" y="365"/>
      <point x="388" y="400"/>
      <point x="304" y="400" type="curve" smooth="yes"/>
      <point x="276" y="400"/>
      <point x="248" y="395"/>
      <point x="228" y="390" type="curve"/>
    </contour>
    <contour>
      <point x="288" y="265" type="line"/>
      <point x="288" y="342" type="line"/>
      <point x="295" y="343"/>
      <point x="304" y="344"/>
      <point x="314" y="344" type="curve" smooth="yes"/>
      <point x="339" y="344"/>
      <point x="368" y="337"/>
      <point x="368" y="307" type="curve" smooth="yes"/>
      <point x="368" y="273"/>
      <point x="349" y="265"/>
      <point x="309" y="265" type="curve" smooth="yes"/>
    </contour>
  </outline>
</glyph>
<glyph name="macron" format="2">
  <advance width="560"/>
  <unicode hex="00AF"/>
  <outline>
    <contour>
      <point x="263" y="640" type="line"/>
      <point x="543" y="640" type="line"/>
      <point x="560" y="711" type="line"/>
      <point x="280" y="711" type="line"/>
    </contour>
  </outline>
</glyph>
<glyph name="twosuperior" format="2">
  <advance width="560"/>
  <unicode hex="00B2"/>
  <outline>
    <contour>
      <point x="206" y="315" type="curve"/>
      <point x="469" y="315" type="line"/>
      <point x="484" y="379" type="line"/>
      <point x="295" y="379" type="line"/>
      <point x="307" y="409"/>
      <point x="347" y="428"/>
      <point x="375" y="447" type="curve" smooth="yes"/>
      <point x="436" y="484"/>
      <point x="517" y="534"/>
      <point x="517" y="612" type="curve" smooth="yes"/>
      <point x="517" y="671"/>
      <point x="482" y="709"/>
      <point x="405" y="709" type="curve" smooth="yes"/>
      <point x="344" y="709"/>
      <point x="296" y="681"/>
      <point x="269" y="656" type="curve"/>
      <point x="293" y="607" type="line"/>
      <point x="310" y="622"/>
      <point x="342" y="647"/>
      <point x="398" y="647" type="curve" smooth="yes"/>
      <point x="424" y="647"/>
      <point x="446" y="634"/>
      <point x="446" y="606" type="curve" smooth="yes"/>
      <point x="446" y="560"/>
      <point x="411" y="539"/>
      <point x="342" y="496" type="curve" smooth="yes"/>
      <point x="273" y="454"/>
      <point x="217" y="410"/>
    </contour>
  </outline>
</glyph>
<glyph name="mu" format="2">
  <advance width="560"/>
  <unicode hex="00B5"/>
  <outline>
    <contour>
      <point x="4" y="-185" type="line"/>
      <point x="96" y="-185" type="line"/>
      <point x="121" y="-82" type="line" smooth="yes"/>
      <point x="131" y="-41"/>
      <point x="139" y="3"/>
      <point x="144" y="38" type="curve"/>
      <point x="164" y="7"/>
      <point x="203" y="-12"/>
      <point x="244" y="-12" type="curve" smooth="yes"/>
      <point x="309" y="-12"/>
      <point x="367" y="7"/>
      <point x="416" y="44" type="curve"/>
      <point x="435" y="11"/>
      <point x="467" y="-8"/>
      <point x="522" y="-9" type="curve"/>
      <point x="543" y="66" type="line"/>
      <point x="501" y="73"/>
      <point x="486" y="96"/>
      <point x="486" y="131" type="curve" smooth="yes"/>
      <point x="486" y="155"/>
      <point x="492" y="180"/>
      <point x="500" y="211" type="curve" smooth="yes"/>
      <point x="573" y="520" type="line"/>
      <point x="482" y="520" type="line"/>
      <point x="408" y="220" type="line" smooth="yes"/>
      <point x="399" y="183"/>
      <point x="396" y="150"/>
      <point x="396" y="115" type="curve"/>
      <point x="360" y="84"/>
      <point x="321" y="71"/>
      <point x="270" y="71" type="curve" smooth="yes"/>
      <point x="202" y="71"/>
      <point x="186" y="110"/>
      <point x="186" y="158" type="curve" smooth="yes"/>
      <point x="186" y="199"/>
      <point x="199" y="243"/>
      <point x="206" y="274" type="curve" smooth="yes"/>
      <point x="265" y="520" type="line"/>
      <point x="172" y="520" type="line"/>
    </contour>
  </outline>
</glyph>
<glyph name="paragraph" format="2">
  <advance width="560"/>
  <unicode hex="00B6"/>
  <outline>
    <contour>
      <point x="175" y="-185" type="line"/>
      <point x="253" y="-185" type="line"/>
      <point x="447" y="622" type="line"/>
      <point x="454" y="623"/>
      <point x="463" y="623"/>
      <point x="470" y="623" type="curve" smooth="yes"/>
      <point x="500" y="623"/>
      <point x="524" y="622"/>
      <point x="538" y="618" type="curve"/>
      <point x="344" y="-185" type="line"/>
      <point x="422" y="-185" type="line"/>
      <point x="631" y="683" type="line"/>
      <point x="582" y="697"/>
      <point x="519" y="700"/>
      <point x="466" y="700" type="curve" smooth="yes"/>
      <point x="290" y="700"/>
      <point x="105" y="619"/>
      <point x="105" y="424" type="curve" smooth="yes"/>
      <point x="105" y="338"/>
      <point x="147" y="271"/>
      <point x="282" y="262" type="curve"/>
    </contour>
  </outline>
</glyph>
<glyph name="onequarter" format="2">
  <advance width="560"/>
  <unicode hex="00BC"/>
  <outline>
    <contour>
      <point x="31" y="0" type="line"/>
      <point x="116" y="0" type="line"/>
      <point x="659" y="693" type="line"/>
      <point x="571" y="693" type="line"/>
    </contour>
    <contour>
      <point x="422" y="0" type="line"/>
      <point x="488" y="0" type="line"/>
      <point x="501" y="54" type="line"/>
      <point x="541" y="54" type="line"/>
      <point x="554" y="110" type="line"/>
      <point x="514" y="110" type="line"/>
      <point x="556" y="280" type="line"/>
      <point x="491" y="280" type="line"/>
      <point x="417" y="226"/>
      <point x="358" y="168"/>
      <point x="301" y="100" type="curve"/>
      <point x="290" y="54" type="line"/>
      <point x="435" y="54" type="line"/>
    </contour>
    <contour>
      <point x="375" y="110" type="line"/>
      <point x="407" y="149"/>
      <point x="427" y="170"/>
      <point x="472" y="207" type="curve"/>
      <point x="448" y="110" type="line"/>
    </contour>
    <contour>
      <point x="203" y="421" type="line"/>
      <point x="269" y="421" type="line"/>
      <point x="337" y="701" type="line"/>
      <point x="292" y="701" type="line"/>
      <point x="248" y="668"/>
      <point x="211" y="650"/>
      <point x="155" y="628" type="curve"/>
      <point x="162" y="578" type="line"/>
      <point x="192" y="587"/>
      <point x="216" y="596"/>
      <point x="250" y="613" type="curve"/>
    </contour>
  </outline>
</glyph>
<glyph name="onehalf" format="2">
  <advance width="560"/>
  <unicode hex="00BD"/>
  <outline>
    <contour>
      <point x="21" y="0" type="line"/>
      <point x="106" y="0" type="line"/>
      <point x="648" y="693" type="line"/>
      <point x="561" y="693" type="line"/>
    </contour>
    <contour>
      <point x="307" y="0" type="curve"/>
      <point x="519" y="0" type="line"/>
      <point x="531" y="56" type="line"/>
      <point x="389" y="56" type="line"/>
      <point x="392" y="63"/>
      <point x="413" y="73"/>
      <point x="439" y="87" type="curve" smooth="yes"/>
      <point x="487" y="112"/>
      <point x="551" y="150"/>
      <point x="551" y="211" type="curve" smooth="yes"/>
      <point x="551" y="267"/>
      <point x="513" y="287"/>
      <point x="468" y="287" type="curve" smooth="yes"/>
      <point x="427" y="287"/>
      <point x="381" y="269"/>
      <point x="354" y="244" type="curve"/>
      <point x="380" y="200" type="line"/>
      <point x="399" y="217"/>
      <point x="429" y="228"/>
      <point x="454" y="228" type="curve" smooth="yes"/>
      <point x="474" y="228"/>
      <point x="489" y="221"/>
      <point x="489" y="200" type="curve" smooth="yes"/>
      <point x="489" y="176"/>
      <point x="470" y="161"/>
      <point x="398" y="121" type="curve" smooth="yes"/>
      <point x="334" y="86"/>
      <point x="319" y="65"/>
    </contour>
    <contour>
      <point x="203" y="421" type="line"/>
      <point x="269" y="421" type="line"/>
      <point x="337" y="701" type="line"/>
      <point x="292" y="701" type="line"/>
      <point x="248" y="668"/>
      <point x="211" y="650"/>
      <point x="155" y="628" type="curve"/>
      <point x="162" y="578" type="line"/>
      <point x="192" y="587"/>
      <point x="216" y="596"/>
      <point x="250" y="613" type="curve"/>
    </contour>
  </outline>
</glyph>
<glyph name="questiondown" format="2">
  <advance width="560"/>
  <unicode hex="00BF"/>
  <outline>
    <contour>
      <point x="253" y="-190" type="curve" smooth="yes"/>
      <point x="311" y="-190"/>
      <point x="370" y="-174"/>
      <point x="407" y="-155" type="curve"/>
      <point x="396" y="-83" type="line"/>
      <point x="348" y="-106"/>
      <point x="310" y="-114"/>
      <point x="267" y="-114" type="curve" smooth="yes"/>
      <point x="204" y="-114"/>
      <point x="178" y="-85"/>
      <point x="178" y="-43" type="curve" smooth="yes"/>
      <point x="178" y="9"/>
      <point x="218" y="47"/>
      <point x="267" y="83" type="curve" smooth="yes"/>
      <point x="327" y="130"/>
      <point x="409" y="179"/>
      <point x="413" y="272" type="curve"/>
      <point x="332" y="272" type="line"/>
      <point x="320" y="215"/>
      <point x="277" y="178"/>
      <point x="228" y="141" type="curve" smooth="yes"/>
      <point x="161" y="91"/>
      <point x="86" y="41"/>
      <point x="86" y="-55" type="curve" smooth="yes"/>
      <point x="86" y="-158"/>
      <point x="168" y="-190"/>
    </contour>
    <contour>
      <point x="405" y="370" type="curve" smooth="yes"/>
      <point x="447" y="370"/>
      <point x="483" y="400"/>
      <point x="483" y="454" type="curve" smooth="yes"/>
      <point x="483" y="500"/>
      <point x="455" y="521"/>
      <point x="417" y="521" type="curve" smooth="yes"/>
      <point x="377" y="521"/>
      <point x="337" y="489"/>
      <point x="337" y="438" type="curve" smooth="yes"/>
      <point x="337" y="393"/>
      <point x="367" y="370"/>
    </contour>
  </outline>
</glyph>
<glyph name="Ccedilla" format="2">
  <advance width="560"/>
  <unicode hex="00C7"/>
  <outline>
    <contour>
      <point x="237" y="-189" type="curve" smooth="yes"/>
      <point x="308" y="-189"/>
      <point x="354" y="-157"/>
      <point x="354" y="-99" type="curve" smooth="yes"/>
      <point x="354" y="-67"/>
      <point x="340" y="-53"/>
      <point x="314" y="-38" type="curve"/>
      <point x="319" y="-30"/>
      <point x="325" y="-22"/>
      <point x="330" y="-15" type="curve"/>
      <point x="416" y="-11"/>
      <point x="482" y="16"/>
      <point x="500" y="29" type="curve"/>
      <point x="489" y="108" type="line"/>
      <point x="463" y="92"/>
      <point x="404" y="67"/>
      <point x="333" y="67" type="curve" smooth="yes"/>
      <point x="242" y="67"/>
      <point x="193" y="133"/>
      <point x="193" y="241" type="curve" smooth="yes"/>
      <point x="193" y="431"/>
      <point x="296" y="627"/>
      <point x="468" y="627" type="curve" smooth="yes"/>
      <point x="521" y="627"/>
      <point x="573" y="606"/>
      <point x="599" y="584" type="curve"/>
      <point x="643" y="657" type="line"/>
      <point x="618" y="678"/>
      <point x="564" y="709"/>
      <point x="475" y="709" type="curve" smooth="yes"/>
      <point x="242" y="709"/>
      <point x="100" y="463"/>
      <point x="100" y="226" type="curve" smooth="yes"/>
      <point x="100" y="96"/>
      <point x="165" y="8"/>
      <point x="269" y="-10" type="curve"/>
      <point x="255" y="-30"/>
      <point x="240" y="-54"/>
      <point x="231" y="-69" type="curve"/>
      <point x="250" y="-74"/>
      <point x="271" y="-83"/>
      <point x="271" y="-105" type="curve" smooth="yes"/>
      <point x="271" y="-124"/>
      <point x="255" y="-130"/>
      <point x="233" y="-130" type="curve" smooth="yes"/>
      <point x="207" y="-130"/>
      <point x="190" y="-124"/>
      <point x="179" y="-119" type="curve"/>
      <point x="157" y="-174" type="line"/>
      <point x="174" y="-183"/>
      <point x="198" y="-189"/>
    </contour>
  </outline>
</glyph>
<glyph name="Eth" format="2">
  <advance width="560"/>
  <unicode hex="00D0"/>
  <outline>
    <contour>
      <point x="209" y="-6" type="curve" smooth="yes"/>
      <point x="470" y="-6"/>
      <point x="585" y="217"/>
      <point x="585" y="454" type="curve" smooth="yes"/>
      <point x="585" y="609"/>
      <point x="503" y="700"/>
      <point x="370" y="700" type="curve" smooth="yes"/>
      <point x="327" y="700"/>
      <point x="284" y="694"/>
      <point x="239" y="683" type="curve"/>
      <point x="171" y="399" type="line"/>
      <point x="92" y="399" type="line"/>
      <point x="73" y="324" type="line"/>
      <point x="152" y="324" type="line"/>
      <point x="78" y="10" type="line"/>
      <point x="118" y="-1"/>
      <point x="167" y="-6"/>
    </contour>
    <contour>
      <point x="228" y="74" type="curve" smooth="yes"/>
      <point x="215" y="74"/>
      <point x="196" y="76"/>
      <point x="187" y="80" type="curve"/>
      <point x="245" y="324" type="line"/>
      <point x="334" y="324" type="line"/>
      <point x="353" y="399" type="line"/>
      <point x="263" y="399" type="line"/>
      <point x="315" y="617" type="line"/>
      <point x="327" y="619"/>
      <point x="342" y="620"/>
      <point x="357" y="620" type="curve" smooth="yes"/>
      <point x="449" y="620"/>
      <point x="492" y="557"/>
      <point x="492" y="444" type="curve" smooth="yes"/>
      <point x="492" y="225"/>
      <point x="379" y="74"/>
    </contour>
  </outline>
</glyph>
<glyph name="Oslash" format="2">
  <advance width="560"/>
  <unicode hex="00D8"/>
  <outline>
    <contour>
      <point x="102" y="-37" type="line"/>
      <point x="146" y="24" type="line"/>
      <point x="177" y="-2"/>
      <point x="217" y="-15"/>
      <point x="263" y="-15" type="curve" smooth="yes"/>
      <point x="506" y="-15"/>
      <point x="596" y="323"/>
      <point x="596" y="488" type="curve" smooth="yes"/>
      <point x="596" y="538"/>
      <point x="588" y="580"/>
      <point x="573" y="613" type="curve"/>
      <point x="628" y="688" type="line"/>
      <point x="571" y="729" type="line"/>
      <point x="529" y="671" type="line"/>
      <point x="498" y="697"/>
      <point x="459" y="709"/>
      <point x="414" y="709" type="curve" smooth="yes"/>
      <point x="171" y="709"/>
      <point x="80" y="372"/>
      <point x="80" y="206" type="curve" smooth="yes"/>
      <point x="80" y="156"/>
      <point x="88" y="114"/>
      <point x="103" y="82" type="curve"/>
      <point x="46" y="3" type="line"/>
    </contour>
    <contour>
      <point x="274" y="65" type="curve" smooth="yes"/>
      <point x="241" y="65"/>
      <point x="216" y="75"/>
      <point x="198" y="96" type="curve"/>
      <point x="505" y="519" type="line"/>
      <point x="506" y="507"/>
      <point x="507" y="494"/>
      <point x="507" y="482" type="curve" smooth="yes"/>
      <point x="507" y="310"/>
      <point x="421" y="65"/>
    </contour>
    <contour>
      <point x="171" y="176" type="line"/>
      <point x="170" y="187"/>
      <point x="170" y="200"/>
      <point x="170" y="213" type="curve" smooth="yes"/>
      <point x="170" y="384"/>
      <point x="256" y="629"/>
      <point x="403" y="629" type="curve" smooth="yes"/>
      <point x="435" y="629"/>
      <point x="459" y="619"/>
      <point x="477" y="599" type="curve"/>
    </contour>
  </outline>
</glyph>
<glyph name="eth" format="2">
  <advance width="560"/>
  <unicode hex="00F0"/>
  <outline>
    <contour>
      <point x="261" y="-13" type="curve" smooth="yes"/>
      <point x="520" y="-13"/>
      <point x="559" y="307"/>
      <point x="559" y="427" type="curve" smooth="yes"/>
      <point x="559" y="504"/>
      <point x="544" y="568"/>
      <point x="523" y="620" type="curve"/>
      <point x="633" y="655" type="line"/>
      <point x="625" y="718" type="line"/>
      <point x="494" y="676" type="line"/>
      <point x="465" y="725"/>
      <point x="432" y="757"/>
      <point x="407" y="776" type="curve"/>
      <point x="337" y="729" type="line"/>
      <point x="364" y="704"/>
      <point x="388" y="684"/>
      <point x="408" y="650" type="curve"/>
      <point x="298" y="614" type="line"/>
      <point x="306" y="551" type="line"/>
      <point x="436" y="592" type="line"/>
      <point x="455" y="548"/>
      <point x="463" y="503"/>
      <point x="466" y="460" type="curve"/>
      <point x="444" y="475"/>
      <point x="409" y="491"/>
      <point x="365" y="491" type="curve" smooth="yes"/>
      <point x="185" y="491"/>
      <point x="90" y="353"/>
      <point x="90" y="176" type="curve" smooth="yes"/>
      <point x="90" y="71"/>
      <point x="164" y="-13"/>
    </contour>
    <contour>
      <point x="274" y="65" type="curve" smooth="yes"/>
      <point x="216" y="65"/>
      <point x="183" y="112"/>
      <point x="183" y="177" type="curve" smooth="yes"/>
      <point x="183" y="321"/>
      <point x="245" y="412"/>
      <point x="358" y="412" type="curve" smooth="yes"/>
      <point x="394" y="412"/>
      <point x="432" y="399"/>
      <point x="464" y="370" type="curve"/>
      <point x="452" y="221"/>
      <point x="391" y="65"/>
    </contour>
  </outline>
</glyph>
<glyph name="divide" format="2">
  <advance width="560"/>
  <unicode hex="00F7"/>
  <outline>
    <contour>
      <point x="99" y="255" type="line"/>
      <point x="547" y="255" type="line"/>
      <point x="566" y="334" type="line"/>
      <point x="116" y="334" type="line"/>
    </contour>
    <contour>
      <point x="289" y="40" type="curve" smooth="yes"/>
      <point x="335" y="40"/>
      <point x="367" y="84"/>
      <point x="367" y="121" type="curve" smooth="yes"/>
      <point x="367" y="152"/>
      <point x="347" y="177"/>
      <point x="314" y="177" type="curve" smooth="yes"/>
      <point x="268" y="177"/>
      <point x="233" y="137"/>
      <point x="233" y="95" type="curve" smooth="yes"/>
      <point x="233" y="65"/>
      <point x="254" y="40"/>
    </contour>
    <contour>
      <point x="354" y="411" type="curve" smooth="yes"/>
      <point x="401" y="411"/>
      <point x="432" y="455"/>
      <point x="432" y="493" type="curve" smooth="yes"/>
      <point x="432" y="524"/>
      <point x="412" y="548"/>
      <point x="379" y="548" type="curve" smooth="yes"/>
      <point x="334" y="548"/>
      <point x="298" y="510"/>
      <point x="298" y="467" type="curve" smooth="yes"/>
      <point x="298" y="436"/>
      <point x="318" y="411"/>
    </contour>
  </outline>
</glyph>
<glyph name="oslash" format="2">
  <advance width="560"/>
  <unicode hex="00F8"/>
  <outline>
    <contour>
      <point x="80" y="-36" type="line"/>
      <point x="143" y="29" type="line"/>
      <point x="172" y="2"/>
      <point x="214" y="-12"/>
      <point x="265" y="-12" type="curve" smooth="yes"/>
      <point x="482" y="-12"/>
      <point x="566" y="196"/>
      <point x="566" y="351" type="curve" smooth="yes"/>
      <point x="566" y="384"/>
      <point x="559" y="413"/>
      <point x="549" y="437" type="curve"/>
      <point x="623" y="512" type="line"/>
      <point x="575" y="556" type="line"/>
      <point x="511" y="491" type="line"/>
      <point x="482" y="517"/>
      <point x="440" y="532"/>
      <point x="390" y="532" type="curve" smooth="yes"/>
      <point x="174" y="532"/>
      <point x="90" y="324"/>
      <point x="90" y="169" type="curve" smooth="yes"/>
      <point x="90" y="136"/>
      <point x="95" y="108"/>
      <point x="106" y="82" type="curve"/>
      <point x="32" y="8" type="line"/>
    </contour>
    <contour>
      <point x="281" y="71" type="curve" smooth="yes"/>
      <point x="248" y="71"/>
      <point x="223" y="78"/>
      <point x="206" y="92" type="curve"/>
      <point x="476" y="364" type="line"/>
      <point x="485" y="254"/>
      <point x="418" y="71"/>
    </contour>
    <contour>
      <point x="179" y="156" type="line"/>
      <point x="164" y="252"/>
      <point x="237" y="450"/>
      <point x="374" y="450" type="curve" smooth="yes"/>
      <point x="408" y="450"/>
      <point x="432" y="442"/>
      <point x="448" y="427" type="curve"/>
    </contour>
  </outline>
</glyph>
<glyph name="thorn" format="2">
  <advance width="560"/>
  <unicode hex="00FE"/>
  <outline>
    <contour>
      <point x="20" y="-185" type="line"/>
      <point x="112" y="-185" type="line"/>
      <point x="155" y="-7" type="line"/>
      <point x="168" y="-10"/>
      <point x="197" y="-11"/>
      <point x="212" y="-11" type="curve" smooth="yes"/>
      <point x="447" y="-11"/>
      <point x="566" y="165"/>
      <point x="566" y="349" type="curve" smooth="yes"/>
      <point x="566" y="455"/>
      <point x="507" y="532"/>
      <point x="402" y="532" type="curve" smooth="yes"/>
      <point x="374" y="532"/>
      <point x="326" y="529"/>
      <point x="278" y="500" type="curve"/>
      <point x="343" y="776" type="line"/>
      <point x="248" y="760" type="line"/>
    </contour>
    <contour>
      <point x="228" y="69" type="curve" smooth="yes"/>
      <point x="214" y="69"/>
      <point x="187" y="72"/>
      <point x="174" y="75" type="curve"/>
      <point x="255" y="414" type="line"/>
      <point x="296" y="444"/>
      <point x="342" y="454"/>
      <point x="374" y="454" type="curve" smooth="yes"/>
      <point x="449" y="454"/>
      <point x="474" y="398"/>
      <point x="474" y="338" type="curve" smooth="yes"/>
      <point x="474" y="197"/>
      <point x="371" y="69"/>
    </contour>
  </outline>
</glyph>
<glyph name="Aogonek" format="2">
  <advance width="560"/>
  <unicode hex="0104"/>
  <outline>
    <contour>
      <point x="438" y="-187" type="curve" smooth="yes"/>
      <point x="460" y="-187"/>
      <point x="480" y="-183"/>
      <point x="495" y="-176" type="curve"/>
      <point x="503" y="-116" type="line"/>
      <point x="492" y="-120"/>
      <point x="476" y="-123"/>
      <point x="464" y="-123" type="curve" smooth="yes"/>
      <point x="437" y="-123"/>
      <point x="427" y="-114"/>
      <point x="427" y="-101" type="curve" smooth="yes"/>
      <point x="427" y="-68"/>
      <point x="479" y="-32"/>
      <point x="525" y="0" type="curve"/>
      <point x="520" y="196"/>
      <point x="510" y="472"/>
      <point x="476" y="693" type="curve"/>
      <point x="366" y="693" type="line"/>
      <point x="225" y="472"/>
      <point x="85" y="197"/>
      <point x="-15" y="0" type="curve"/>
      <point x="78" y="0" type="line"/>
      <point x="106" y="60"/>
      <point x="136" y="121"/>
      <point x="164" y="181" type="curve"/>
      <point x="430" y="181" type="line"/>
      <point x="429" y="0" type="line"/>
      <point x="433" y="0" type="line"/>
      <point x="400" y="-22"/>
      <point x="338" y="-73"/>
      <point x="338" y="-124" type="curve" smooth="yes"/>
      <point x="338" y="-161"/>
      <point x="364" y="-187"/>
    </contour>
    <contour>
      <point x="203" y="258" type="line"/>
      <point x="271" y="389"/>
      <point x="344" y="520"/>
      <point x="400" y="613" type="curve"/>
      <point x="412" y="524"/>
      <point x="424" y="391"/>
      <point x="427" y="258" type="curve"/>
    </contour>
  </outline>
</glyph>
<glyph name="aogonek" format="2">
  <advance width="560"/>
  <unicode hex="0105"/>
  <outline>
    <contour>
      <point x="407" y="-187" type="curve" smooth="yes"/>
      <point x="429" y="-187"/>
      <point x="449" y="-183"/>
      <point x="464" y="-176" type="curve"/>
      <point x="472" y="-116" type="line"/>
      <point x="460" y="-120"/>
      <point x="445" y="-123"/>
      <point x="432" y="-123" type="curve" smooth="yes"/>
      <point x="405" y="-123"/>
      <point x="395" y="-114"/>
      <point x="395" y="-101" type="curve" smooth="yes"/>
      <point x="395" y="-74"/>
      <point x="432" y="-40"/>
      <point x="503" y="6" type="curve"/>
      <point x="491" y="43"/>
      <point x="485" y="72"/>
      <point x="485" y="103" type="curve" smooth="yes"/>
      <point x="485" y="134"/>
      <point x="491" y="160"/>
      <point x="498" y="192" type="curve" smooth="yes"/>
      <point x="575" y="505" type="line"/>
      <point x="539" y="524"/>
      <point x="478" y="531"/>
      <point x="442" y="531" type="curve" smooth="yes"/>
      <point x="199" y="531"/>
      <point x="80" y="352"/>
      <point x="80" y="174" type="curve" smooth="yes"/>
      <point x="80" y="66"/>
      <point x="132" y="-12"/>
      <point x="249" y="-12" type="curve" smooth="yes"/>
      <point x="320" y="-12"/>
      <point x="375" y="20"/>
      <point x="404" y="47" type="curve"/>
      <point x="407" y="32"/>
      <point x="411" y="19"/>
      <point x="416" y="7" type="curve"/>
      <point x="374" y="-18"/>
      <point x="307" y="-67"/>
      <point x="307" y="-124" type="curve" smooth="yes"/>
      <point x="307" y="-161"/>
      <point x="333" y="-187"/>
    </contour>
    <contour>
      <point x="268" y="64" type="curve" smooth="yes"/>
      <point x="194" y="64"/>
      <point x="172" y="116"/>
      <point x="172" y="184" type="curve" smooth="yes"/>
      <point x="172" y="325"/>
      <point x="273" y="454"/>
      <point x="426" y="454" type="curve" smooth="yes"/>
      <point x="437" y="454"/>
      <point x="464" y="450"/>
      <point x="472" y="448" type="curve"/>
      <point x="410" y="203" type="line" smooth="yes"/>
      <point x="404" y="178"/>
      <point x="400" y="147"/>
      <point x="399" y="124" type="curve"/>
      <point x="370" y="92"/>
      <point x="324" y="64"/>
    </contour>
  </outline>
</glyph>
<glyph name="dcroat" format="2">
  <advance width="560"/>
  <unicode hex="0111"/>
  <outline>
    <contour>
      <point x="246" y="-12" type="curve" smooth="yes"/>
      <point x="319" y="-12"/>
      <point x="366" y="20"/>
      <point x="394" y="47" type="curve"/>
      <point x="398" y="26"/>
      <point x="404" y="8"/>
      <point x="411" y="-6" type="curve"/>
      <point x="493" y="6" type="line"/>
      <point x="480" y="43"/>
      <point x="475" y="72"/>
      <point x="475" y="103" type="curve" smooth="yes"/>
      <point x="475" y="134"/>
      <point x="482" y="160"/>
      <point x="488" y="192" type="curve" smooth="yes"/>
      <point x="590" y="614" type="line"/>
      <point x="664" y="614" type="line"/>
      <point x="681" y="683" type="line"/>
      <point x="606" y="683" type="line"/>
      <point x="629" y="776" type="line"/>
      <point x="534" y="760" type="line"/>
      <point x="515" y="683" type="line"/>
      <point x="327" y="683" type="line"/>
      <point x="310" y="614" type="line"/>
      <point x="500" y="614" type="line"/>
      <point x="478" y="528" type="line"/>
      <point x="464" y="530"/>
      <point x="446" y="531"/>
      <point x="433" y="531" type="curve" smooth="yes"/>
      <point x="205" y="531"/>
      <point x="90" y="353"/>
      <point x="90" y="174" type="curve" smooth="yes"/>
      <point x="90" y="64"/>
      <point x="139" y="-12"/>
    </contour>
    <contour>
      <point x="264" y="64" type="curve" smooth="yes"/>
      <point x="200" y="64"/>
      <point x="183" y="116"/>
      <point x="183" y="184" type="curve" smooth="yes"/>
      <point x="183" y="325"/>
      <point x="277" y="454"/>
      <point x="421" y="454" type="curve" smooth="yes"/>
      <point x="431" y="454"/>
      <point x="455" y="450"/>
      <point x="461" y="448" type="curve"/>
      <point x="400" y="203" type="line" smooth="yes"/>
      <point x="394" y="178"/>
      <point x="390" y="147"/>
      <point x="389" y="124" type="curve"/>
      <point x="361" y="92"/>
      <point x="317" y="64"/>
    </contour>
  </outline>
</glyph>
<glyph name="hcircumflex" format="2">
  <advance width="560"/>
  <unicode hex="0125"/>
  <outline>
    <contour>
      <point x="50" y="0" type="line"/>
      <point x="141" y="0" type="line"/>
      <point x="248" y="435" type="line"/>
      <point x="276" y="446"/>
      <point x="305" y="450"/>
      <point x="337" y="450" type="curve" smooth="yes"/>
      <point x="417" y="450"/>
      <point x="441" y="411"/>
      <point x="441" y="358" type="curve" smooth="yes"/>
      <point x="441" y="323"/>
      <point x="429" y="281"/>
      <point x="420" y="244" type="curve" smooth="yes"/>
      <point x="362" y="0" type="line"/>
      <point x="454" y="0" type="line"/>
      <point x="517" y="264" type="line" smooth="yes"/>
      <point x="526" y="300"/>
      <point x="533" y="335"/>
      <point x="533" y="366" type="curve" smooth="yes"/>
      <point x="533" y="463"/>
      <point x="485" y="531"/>
      <point x="364" y="531" type="curve" smooth="yes"/>
      <point x="329" y="531"/>
      <point x="295" y="523"/>
      <point x="264" y="512" type="curve"/>
      <point x="326" y="765" type="line"/>
      <point x="230" y="749" type="line"/>
    </contour>
    <contour>
      <point x="422" y="783" type="line"/>
      <point x="459" y="823" type="line"/>
      <point x="362" y="930" type="line"/>
      <point x="225" y="831" type="line"/>
      <point x="252" y="784" type="line"/>
      <point x="351" y="848" type="line"/>
    </contour>
  </outline>
</glyph>
<glyph name="Hbar" format="2">
  <advance width="560"/>
  <unicode hex="0126"/>
  <outline>
    <contour>
      <point x="71" y="0" type="line"/>
      <point x="161" y="0" type="line"/>
      <point x="239" y="323" type="line"/>
      <point x="435" y="323" type="line"/>
      <point x="357" y="0" type="line"/>
      <point x="449" y="0" type="line"/>
      <point x="575" y="523" type="line"/>
      <point x="647" y="523" type="line"/>
      <point x="664" y="594" type="line"/>
      <point x="592" y="594" type="line"/>
      <point x="616" y="693" type="line"/>
      <point x="524" y="693" type="line"/>
      <point x="501" y="594" type="line"/>
      <point x="304" y="594" type="line"/>
      <point x="328" y="693" type="line"/>
      <point x="236" y="693" type="line"/>
      <point x="212" y="594" type="line"/>
      <point x="140" y="594" type="line"/>
      <point x="122" y="523" type="line"/>
      <point x="195" y="523" type="line"/>
    </contour>
    <contour>
      <point x="258" y="401" type="line"/>
      <point x="287" y="523" type="line"/>
      <point x="483" y="523" type="line"/>
      <point x="454" y="401" type="line"/>
    </contour>
  </outline>
</glyph>
<glyph name="hbar" format="2">
  <advance width="560"/>
  <unicode hex="0127"/>
  <outline>
    <contour>
      <point x="90" y="0" type="line"/>
      <point x="181" y="0" type="line"/>
      <point x="287" y="435" type="line"/>
      <point x="314" y="446"/>
      <point x="340" y="450"/>
      <point x="370" y="450" type="curve" smooth="yes"/>
      <point x="440" y="450"/>
      <point x="461" y="411"/>
      <point x="461" y="358" type="curve" smooth="yes"/>
      <point x="461" y="323"/>
      <point x="449" y="281"/>
      <point x="440" y="244" type="curve" smooth="yes"/>
      <point x="382" y="0" type="line"/>
      <point x="474" y="0" type="line"/>
      <point x="538" y="264" type="line" smooth="yes"/>
      <point x="547" y="300"/>
      <point x="553" y="335"/>
      <point x="553" y="366" type="curve" smooth="yes"/>
      <point x="553" y="463"/>
      <point x="508" y="531"/>
      <point x="396" y="531" type="curve" smooth="yes"/>
      <point x="364" y="531"/>
      <point x="333" y="523"/>
      <point x="304" y="512" type="curve"/>
      <point x="328" y="614" type="line"/>
      <point x="491" y="614" type="line"/>
      <point x="507" y="683" type="line"/>
      <point x="345" y="683" type="line"/>
      <point x="368" y="776" type="line"/>
      <point x="272" y="760" type="line"/>
      <point x="253" y="683" type="line"/>
      <point x="179" y="683" type="line"/>
      <point x="164" y="614" type="line"/>
      <point x="237" y="614" type="line"/>
    </contour>
  </outline>
</glyph>
<glyph name="Iogonek" format="2">
  <advance width="560"/>
  <unicode hex="012E"/>
  <outline>
    <contour>
      <point x="216" y="-187" type="curve" smooth="yes"/>
      <point x="239" y="-187"/>
      <point x="259" y="-183"/>
      <point x="273" y="-176" type="curve"/>
      <point x="281" y="-116" type="line"/>
      <point x="270" y="-120"/>
      <point x="254" y="-123"/>
      <point x="242" y="-123" type="curve" smooth="yes"/>
      <point x="215" y="-123"/>
      <point x="205" y="-114"/>
      <point x="205" y="-101" type="curve" smooth="yes"/>
      <point x="205" y="-72"/>
      <point x="239" y="-45"/>
      <point x="304" y="0" type="curve"/>
      <point x="439" y="0" type="line"/>
      <point x="458" y="78" type="line"/>
      <point x="324" y="78" type="line"/>
      <point x="454" y="615" type="line"/>
      <point x="587" y="615" type="line"/>
      <point x="606" y="693" type="line"/>
      <point x="246" y="693" type="line"/>
      <point x="227" y="615" type="line"/>
      <point x="361" y="615" type="line"/>
      <point x="232" y="78" type="line"/>
      <point x="99" y="78" type="line"/>
      <point x="80" y="0" type="line"/>
      <point x="212" y="0" type="line"/>
      <point x="178" y="-22"/>
      <point x="116" y="-73"/>
      <point x="116" y="-124" type="curve" smooth="yes"/>
      <point x="116" y="-161"/>
      <point x="142" y="-187"/>
    </contour>
  </outline>
</glyph>
<glyph name="dotlessi" format="2">
  <advance width="560"/>
  <unicode hex="0131"/>
  <outline>
    <contour>
      <point x="384" y="-3" type="curve" smooth="yes"/>
      <point x="435" y="-3"/>
      <point x="461" y="4"/>
      <point x="472" y="7" type="curve"/>
      <point x="477" y="85" type="line"/>
      <point x="457" y="80"/>
      <point x="432" y="75"/>
      <point x="407" y="75" type="curve" smooth="yes"/>
      <point x="346" y="75"/>
      <point x="328" y="106"/>
      <point x="328" y="148" type="curve" smooth="yes"/>
      <point x="328" y="172"/>
      <point x="334" y="200"/>
      <point x="342" y="230" type="curve" smooth="yes"/>
      <point x="410" y="520" type="line"/>
      <point x="168" y="520" type="line"/>
      <point x="150" y="442" type="line"/>
      <point x="300" y="442" type="line"/>
      <point x="250" y="237" type="line" smooth="yes"/>
      <point x="242" y="203"/>
      <point x="236" y="170"/>
      <point x="236" y="139" type="curve" smooth="yes"/>
      <point x="236" y="59"/>
      <point x="273" y="-3"/>
    </contour>
  </outline>
</glyph>
<glyph name="kgreenlandic" format="2">
  <advance width="560"/>
  <unicode hex="0138"/>
  <outline>
    <contour>
      <point x="71" y="0" type="line"/>
      <point x="162" y="0" type="line"/>
      <point x="225" y="260" type="line"/>
      <point x="297" y="203"/>
      <point x="365" y="108"/>
      <point x="407" y="0" type="curve"/>
      <point x="515" y="0" type="line"/>
      <point x="478" y="102"/>
      <point x="392" y="220"/>
      <point x="320" y="282" type="curve"/>
      <point x="398" y="338"/>
      <point x="548" y="450"/>
      <point x="610" y="520" type="curve"/>
      <point x="501" y="520" type="line"/>
      <point x="436" y="458"/>
      <point x="326" y="373"/>
      <point x="236" y="308" type="curve"/>
      <point x="287" y="520" type="line"/>
      <point x="195" y="520" type="line"/>
    </contour>
  </outline>
</glyph>
<glyph name="lacute" format="2">
  <advance width="560"/>
  <unicode hex="013A"/>
  <outline>
    <contour>
      <point x="363" y="-12" type="curve" smooth="yes"/>
      <point x="424" y="-12"/>
      <point x="476" y="4"/>
      <point x="496" y="17" type="curve"/>
      <point x="489" y="95" type="line"/>
      <point x="469" y="84"/>
      <point x="428" y="66"/>
      <point x="389" y="66" type="curve" smooth="yes"/>
      <point x="333" y="66"/>
      <point x="315" y="86"/>
      <point x="315" y="130" type="curve" smooth="yes"/>
      <point x="315" y="153"/>
      <point x="320" y="181"/>
      <point x="327" y="212" type="curve" smooth="yes"/>
      <point x="459" y="759" type="line"/>
      <point x="217" y="759" type="line"/>
      <point x="198" y="681" type="line"/>
      <point x="348" y="681" type="line"/>
      <point x="237" y="220" type="line" smooth="yes"/>
      <point x="227" y="179"/>
      <point x="223" y="144"/>
      <point x="223" y="115" type="curve" smooth="yes"/>
      <point x="223" y="31"/>
      <point x="264" y="-12"/>
    </contour>
    <contour>
      <point x="344" y="796" type="line"/>
      <point x="516" y="858" type="line"/>
      <point x="495" y="930" type="line"/>
      <point x="327" y="847" type="line"/>
    </contour>
  </outline>
</glyph>
<glyph name="Lslash" format="2">
  <advance width="560"/>
  <unicode hex="0141"/>
  <outline>
    <contour>
      <point x="73" y="0" type="line"/>
      <point x="452" y="0" type="line"/>
      <point x="472" y="78" type="line"/>
      <point x="184" y="78" type="line"/>
      <point x="243" y="323" type="line"/>
      <point x="412" y="403" type="line"/>
      <point x="396" y="472" type="line"/>
      <point x="263" y="409" type="line"/>
      <point x="332" y="693" type="line"/>
      <point x="240" y="693" type="line"/>
      <point x="161" y="368" type="line"/>
      <point x="50" y="315" type="line"/>
      <point x="66" y="246" type="line"/>
      <point x="140" y="281" type="line"/>
    </contour>
  </outline>
</glyph>
<glyph name="Eng" format="2">
  <advance width="560"/>
  <unicode hex="014A"/>
  <outline>
    <contour>
      <point x="293" y="-187" type="curve" smooth="yes"/>
      <point x="416" y="-187"/>
      <point x="451" y="-123"/>
      <point x="482" y="0" type="curve" smooth="yes"/>
      <point x="648" y="693" type="line"/>
      <point x="564" y="693" type="line"/>
      <point x="441" y="183" type="line"/>
      <point x="402" y="384"/>
      <point x="375" y="470"/>
      <point x="306" y="693" type="curve"/>
      <point x="212" y="693" type="line"/>
      <point x="45" y="0" type="line"/>
      <point x="129" y="0" type="line"/>
      <point x="262" y="563" type="line"/>
      <point x="306" y="405"/>
      <point x="351" y="269"/>
      <point x="402" y="21" type="curve"/>
      <point x="393" y="-17" type="line" smooth="yes"/>
      <point x="379" y="-77"/>
      <point x="358" y="-111"/>
      <point x="308" y="-111" type="curve" smooth="yes"/>
      <point x="289" y="-111"/>
      <point x="274" y="-109"/>
      <point x="267" y="-106" type="curve"/>
      <point x="240" y="-179" type="line"/>
      <point x="251" y="-183"/>
      <point x="274" y="-187"/>
    </contour>
  </outline>
</glyph>
<glyph name="eng" format="2">
  <advance width="560"/>
  <unicode hex="014B"/>
  <outline>
    <contour>
      <point x="293" y="-187" type="curve" smooth="yes"/>
      <point x="395" y="-187"/>
      <point x="445" y="-124"/>
      <point x="473" y="-6" type="curve" smooth="yes"/>
      <point x="538" y="267" type="line" smooth="yes"/>
      <point x="547" y="304"/>
      <point x="553" y="339"/>
      <point x="553" y="371" type="curve" smooth="yes"/>
      <point x="553" y="466"/>
      <point x="503" y="531"/>
      <point x="380" y="531" type="curve" smooth="yes"/>
      <point x="324" y="531"/>
      <point x="251" y="519"/>
      <point x="190" y="501" type="curve"/>
      <point x="71" y="0" type="line"/>
      <point x="162" y="0" type="line"/>
      <point x="268" y="439" type="line"/>
      <point x="289" y="446"/>
      <point x="324" y="450"/>
      <point x="357" y="450" type="curve" smooth="yes"/>
      <point x="441" y="450"/>
      <point x="461" y="407"/>
      <point x="461" y="353" type="curve" smooth="yes"/>
      <point x="461" y="318"/>
      <point x="449" y="279"/>
      <point x="441" y="246" type="curve" smooth="yes"/>
      <point x="381" y="-4" type="line" smooth="yes"/>
      <point x="366" y="-65"/>
      <point x="351" y="-111"/>
      <point x="289" y="-111" type="curve" smooth="yes"/>
      <point x="277" y="-111"/>
      <point x="263" y="-110"/>
      <point x="248" y="-106" type="curve"/>
      <point x="221" y="-179" type="line"/>
      <point x="248" y="-185"/>
      <point x="271" y="-187"/>
    </contour>
  </outline>
</glyph>
<glyph name="OE" format="2">
  <advance width="560"/>
  <unicode hex="0152"/>
  <outline>
    <contour>
      <point x="226" y="-7" type="curve" smooth="yes"/>
      <point x="246" y="-7"/>
      <point x="268" y="-4"/>
      <point x="290" y="0" type="curve"/>
      <point x="521" y="0" type="line"/>
      <point x="540" y="78" type="line"/>
      <point x="382" y="78" type="line"/>
      <point x="441" y="324" type="line"/>
      <point x="558" y="324" type="line"/>
      <point x="577" y="402" type="line"/>
      <point x="460" y="402" type="line"/>
      <point x="511" y="615" type="line"/>
      <point x="654" y="615" type="line"/>
      <point x="673" y="693" type="line"/>
      <point x="457" y="693" type="line"/>
      <point x="437" y="697"/>
      <point x="414" y="700"/>
      <point x="396" y="700" type="curve" smooth="yes"/>
      <point x="166" y="700"/>
      <point x="68" y="404"/>
      <point x="68" y="207" type="curve" smooth="yes"/>
      <point x="68" y="83"/>
      <point x="115" y="-7"/>
    </contour>
    <contour>
      <point x="245" y="73" type="curve" smooth="yes"/>
      <point x="187" y="73"/>
      <point x="161" y="130"/>
      <point x="161" y="213" type="curve" smooth="yes"/>
      <point x="161" y="384"/>
      <point x="236" y="620"/>
      <point x="376" y="620" type="curve" smooth="yes"/>
      <point x="391" y="620"/>
      <point x="405" y="617"/>
      <point x="422" y="613" type="curve"/>
      <point x="295" y="81" type="line"/>
      <point x="291" y="80"/>
      <point x="274" y="73"/>
    </contour>
  </outline>
</glyph>
<glyph name="Scedilla" format="2">
  <advance width="560"/>
  <unicode hex="015E"/>
  <outline>
    <contour>
      <point x="193" y="-189" type="curve" smooth="yes"/>
      <point x="263" y="-189"/>
      <point x="309" y="-157"/>
      <point x="309" y="-99" type="curve" smooth="yes"/>
      <point x="309" y="-67"/>
      <point x="296" y="-53"/>
      <point x="269" y="-38" type="curve"/>
      <point x="287" y="-13" type="line"/>
      <point x="429" y="-4"/>
      <point x="524" y="68"/>
      <point x="524" y="206" type="curve" smooth="yes"/>
      <point x="524" y="311"/>
      <point x="464" y="348"/>
      <point x="385" y="389" type="curve" smooth="yes"/>
      <point x="323" y="422"/>
      <point x="280" y="444"/>
      <point x="280" y="512" type="curve" smooth="yes"/>
      <point x="280" y="594"/>
      <point x="343" y="628"/>
      <point x="426" y="628" type="curve" smooth="yes"/>
      <point x="493" y="628"/>
      <point x="544" y="612"/>
      <point x="567" y="592" type="curve"/>
      <point x="610" y="666" type="line"/>
      <point x="587" y="682"/>
      <point x="519" y="709"/>
      <point x="442" y="709" type="curve" smooth="yes"/>
      <point x="271" y="709"/>
      <point x="187" y="624"/>
      <point x="187" y="503" type="curve" smooth="yes"/>
      <point x="187" y="399"/>
      <point x="248" y="362"/>
      <point x="310" y="328" type="curve" smooth="yes"/>
      <point x="379" y="291"/>
      <point x="431" y="263"/>
      <point x="431" y="197" type="curve" smooth="yes"/>
      <point x="431" y="99"/>
      <point x="348" y="66"/>
      <point x="267" y="66" type="curve" smooth="yes"/>
      <point x="183" y="66"/>
      <point x="128" y="94"/>
      <point x="103" y="111" type="curve"/>
      <point x="60" y="35" type="line"/>
      <point x="82" y="19"/>
      <point x="139" y="-8"/>
      <point x="222" y="-13" type="curve"/>
      <point x="208" y="-32"/>
      <point x="195" y="-54"/>
      <point x="186" y="-69" type="curve"/>
      <point x="205" y="-74"/>
      <point x="226" y="-83"/>
      <point x="226" y="-105" type="curve" smooth="yes"/>
      <point x="226" y="-124"/>
      <point x="211" y="-130"/>
      <point x="188" y="-130" type="curve" smooth="yes"/>
      <point x="162" y="-130"/>
      <point x="146" y="-124"/>
      <point x="134" y="-119" type="curve"/>
      <point x="112" y="-174" type="line"/>
      <point x="129" y="-183"/>
      <point x="153" y="-189"/>
    </contour>
  </outline>
</glyph>
<glyph name="uni0162" format="2">
  <advance width="560"/>
  <unicode hex="0162"/>
  <outline>
    <contour>
      <point x="179" y="-189" type="curve" smooth="yes"/>
      <point x="250" y="-189"/>
      <point x="296" y="-157"/>
      <point x="296" y="-99" type="curve" smooth="yes"/>
      <point x="296" y="-67"/>
      <point x="282" y="-53"/>
      <point x="255" y="-38" type="curve"/>
      <point x="283" y="0" type="line"/>
      <point x="304" y="0" type="line"/>
      <point x="451" y="615" type="line"/>
      <point x="641" y="615" type="line"/>
      <point x="660" y="693" type="line"/>
      <point x="189" y="693" type="line"/>
      <point x="170" y="615" type="line"/>
      <point x="360" y="615" type="line"/>
      <point x="211" y="0" type="line"/>
      <point x="218" y="0" type="line"/>
      <point x="203" y="-20"/>
      <point x="184" y="-50"/>
      <point x="172" y="-69" type="curve"/>
      <point x="204" y="-78"/>
      <point x="213" y="-88"/>
      <point x="213" y="-105" type="curve" smooth="yes"/>
      <point x="213" y="-124"/>
      <point x="197" y="-130"/>
      <point x="175" y="-130" type="curve" smooth="yes"/>
      <point x="149" y="-130"/>
      <point x="132" y="-124"/>
      <point x="121" y="-119" type="curve"/>
      <point x="99" y="-174" type="line"/>
      <point x="115" y="-183"/>
      <point x="140" y="-189"/>
    </contour>
  </outline>
</glyph>
<glyph name="tbar" format="2">
  <advance width="560"/>
  <unicode hex="0167"/>
  <outline>
    <contour>
      <point x="348" y="-12" type="curve" smooth="yes"/>
      <point x="401" y="-12"/>
      <point x="448" y="0"/>
      <point x="491" y="15" type="curve"/>
      <point x="493" y="94" type="line"/>
      <point x="454" y="80"/>
      <point x="409" y="68"/>
      <point x="363" y="68" type="curve" smooth="yes"/>
      <point x="315" y="68"/>
      <point x="288" y="83"/>
      <point x="288" y="139" type="curve" smooth="yes"/>
      <point x="288" y="164"/>
      <point x="295" y="192"/>
      <point x="302" y="220" type="curve" smooth="yes"/>
      <point x="306" y="236" type="line"/>
      <point x="505" y="236" type="line"/>
      <point x="522" y="306" type="line"/>
      <point x="323" y="306" type="line"/>
      <point x="355" y="442" type="line"/>
      <point x="556" y="442" type="line"/>
      <point x="575" y="520" type="line"/>
      <point x="374" y="520" type="line"/>
      <point x="413" y="681" type="line"/>
      <point x="317" y="665" type="line"/>
      <point x="282" y="520" type="line"/>
      <point x="172" y="520" type="line"/>
      <point x="153" y="442" type="line"/>
      <point x="263" y="442" type="line"/>
      <point x="230" y="306" type="line"/>
      <point x="121" y="306" type="line"/>
      <point x="104" y="236" type="line"/>
      <point x="213" y="236" type="line"/>
      <point x="211" y="228" type="line" smooth="yes"/>
      <point x="202" y="192"/>
      <point x="196" y="155"/>
      <point x="196" y="122" type="curve" smooth="yes"/>
      <point x="196" y="19"/>
      <point x="263" y="-12"/>
    </contour>
  </outline>
</glyph>
<glyph name="Uogonek" format="2">
  <advance width="560"/>
  <unicode hex="0172"/>
  <outline>
    <contour>
      <point x="299" y="-187" type="curve" smooth="yes"/>
      <point x="321" y="-187"/>
      <point x="342" y="-183"/>
      <point x="356" y="-176" type="curve"/>
      <point x="365" y="-116" type="line"/>
      <point x="354" y="-120"/>
      <point x="336" y="-123"/>
      <point x="324" y="-123" type="curve" smooth="yes"/>
      <point x="297" y="-123"/>
      <point x="287" y="-114"/>
      <point x="287" y="-101" type="curve" smooth="yes"/>
      <point x="287" y="-74"/>
      <point x="318" y="-52"/>
      <point x="334" y="-39" type="curve" smooth="yes"/>
      <point x="353" y="-24"/>
      <point x="394" y="8"/>
      <point x="429" y="32" type="curve" smooth="yes"/>
      <point x="487" y="74"/>
      <point x="513" y="140"/>
      <point x="533" y="226" type="curve" smooth="yes"/>
      <point x="645" y="693" type="line"/>
      <point x="553" y="693" type="line"/>
      <point x="444" y="237" type="line" smooth="yes"/>
      <point x="410" y="96"/>
      <point x="361" y="65"/>
      <point x="279" y="65" type="curve" smooth="yes"/>
      <point x="206" y="65"/>
      <point x="183" y="118"/>
      <point x="183" y="179" type="curve" smooth="yes"/>
      <point x="183" y="203"/>
      <point x="186" y="226"/>
      <point x="192" y="250" type="curve" smooth="yes"/>
      <point x="298" y="693" type="line"/>
      <point x="206" y="693" type="line"/>
      <point x="100" y="249" type="line" smooth="yes"/>
      <point x="94" y="225"/>
      <point x="91" y="200"/>
      <point x="91" y="177" type="curve" smooth="yes"/>
      <point x="91" y="75"/>
      <point x="144" y="-20"/>
      <point x="278" y="-13" type="curve"/>
      <point x="243" y="-36"/>
      <point x="199" y="-78"/>
      <point x="199" y="-124" type="curve" smooth="yes"/>
      <point x="199" y="-161"/>
      <point x="225" y="-187"/>
    </contour>
  </outline>
</glyph>
<glyph name="uogonek" format="2">
  <advance width="560"/>
  <unicode hex="0173"/>
  <outline>
    <contour>
      <point x="408" y="-187" type="curve" smooth="yes"/>
      <point x="430" y="-187"/>
      <point x="450" y="-183"/>
      <point x="465" y="-176" type="curve"/>
      <point x="473" y="-116" type="line"/>
      <point x="461" y="-120"/>
      <point x="446" y="-123"/>
      <point x="433" y="-123" type="curve" smooth="yes"/>
      <point x="407" y="-123"/>
      <point x="396" y="-114"/>
      <point x="396" y="-101" type="curve" smooth="yes"/>
      <point x="396" y="-73"/>
      <point x="426" y="-48"/>
      <point x="504" y="6" type="curve"/>
      <point x="491" y="43"/>
      <point x="486" y="71"/>
      <point x="486" y="102" type="curve" smooth="yes"/>
      <point x="486" y="133"/>
      <point x="491" y="160"/>
      <point x="498" y="192" type="curve" smooth="yes"/>
      <point x="577" y="520" type="line"/>
      <point x="485" y="520" type="line"/>
      <point x="408" y="199" type="line" smooth="yes"/>
      <point x="401" y="172"/>
      <point x="399" y="150"/>
      <point x="398" y="129" type="curve"/>
      <point x="370" y="96"/>
      <point x="324" y="67"/>
      <point x="267" y="67" type="curve" smooth="yes"/>
      <point x="202" y="67"/>
      <point x="186" y="110"/>
      <point x="186" y="158" type="curve" smooth="yes"/>
      <point x="186" y="199"/>
      <point x="198" y="243"/>
      <point x="206" y="274" type="curve" smooth="yes"/>
      <point x="265" y="520" type="line"/>
      <point x="172" y="520" type="line"/>
      <point x="109" y="254" type="line" smooth="yes"/>
      <point x="101" y="220"/>
      <point x="94" y="186"/>
      <point x="94" y="151" type="curve" smooth="yes"/>
      <point x="94" y="60"/>
      <point x="133" y="-11"/>
      <point x="249" y="-11" type="curve" smooth="yes"/>
      <point x="324" y="-11"/>
      <point x="375" y="22"/>
      <point x="404" y="49" type="curve"/>
      <point x="407" y="34"/>
      <point x="411" y="20"/>
      <point x="416" y="8" type="curve"/>
      <point x="383" y="-11"/>
      <point x="308" y="-67"/>
      <point x="308" y="-124" type="curve" smooth="yes"/>
      <point x="308" y="-161"/>
      <point x="334" y="-187"/>
    </contour>
  </outline>
</glyph>
<glyph name="uni0180" format="2">
  <advance width="560"/>
  <unicode hex="0180"/>
  <outline>
    <contour>
      <point x="216" y="-11" type="curve" smooth="yes"/>
      <point x="459" y="-11"/>
      <point x="576" y="164"/>
      <point x="576" y="347" type="curve" smooth="yes"/>
      <point x="576" y="452"/>
      <point x="520" y="532"/>
      <point x="404" y="532" type="curve" smooth="yes"/>
      <point x="360" y="532"/>
      <point x="319" y="519"/>
      <point x="288" y="500" type="curve"/>
      <point x="315" y="614" type="line"/>
      <point x="486" y="614" type="line"/>
      <point x="503" y="683" type="line"/>
      <point x="332" y="683" type="line"/>
      <point x="354" y="776" type="line"/>
      <point x="258" y="760" type="line"/>
      <point x="239" y="683" type="line"/>
      <point x="165" y="683" type="line"/>
      <point x="149" y="614" type="line"/>
      <point x="222" y="614" type="line"/>
      <point x="80" y="20" type="line"/>
      <point x="116" y="-2"/>
      <point x="176" y="-11"/>
    </contour>
    <contour>
      <point x="235" y="69" type="curve" smooth="yes"/>
      <point x="218" y="69"/>
      <point x="197" y="72"/>
      <point x="184" y="75" type="curve"/>
      <point x="265" y="414" type="line"/>
      <point x="300" y="439"/>
      <point x="342" y="454"/>
      <point x="381" y="454" type="curve" smooth="yes"/>
      <point x="461" y="454"/>
      <point x="484" y="398"/>
      <point x="484" y="337" type="curve" smooth="yes"/>
      <point x="484" y="200"/>
      <point x="388" y="69"/>
    </contour>
  </outline>
</glyph>
<glyph name="uni0182" format="2">
  <advance width="560"/>
  <unicode hex="0182"/>
  <outline>
    <contour>
      <point x="240" y="-6" type="curve" smooth="yes"/>
      <point x="423" y="-6"/>
      <point x="543" y="78"/>
      <point x="543" y="252" type="curve" smooth="yes"/>
      <point x="543" y="375"/>
      <point x="468" y="429"/>
      <point x="318" y="429" type="curve" smooth="yes"/>
      <point x="251" y="429" type="line"/>
      <point x="296" y="615" type="line"/>
      <point x="567" y="615" type="line"/>
      <point x="585" y="693" type="line"/>
      <point x="222" y="693" type="line"/>
      <point x="60" y="11" type="line"/>
      <point x="109" y="-2"/>
      <point x="184" y="-6"/>
    </contour>
    <contour>
      <point x="244" y="72" type="curve" smooth="yes"/>
      <point x="209" y="72"/>
      <point x="176" y="74"/>
      <point x="166" y="76" type="curve"/>
      <point x="234" y="354" type="line"/>
      <point x="308" y="354" type="line" smooth="yes"/>
      <point x="392" y="354"/>
      <point x="451" y="324"/>
      <point x="451" y="244" type="curve" smooth="yes"/>
      <point x="451" y="119"/>
      <point x="357" y="72"/>
    </contour>
  </outline>
</glyph>
<glyph name="uni0183" format="2">
  <advance width="560"/>
  <unicode hex="0183"/>
  <outline>
    <contour>
      <point x="206" y="-11" type="curve" smooth="yes"/>
      <point x="449" y="-11"/>
      <point x="566" y="164"/>
      <point x="566" y="347" type="curve" smooth="yes"/>
      <point x="566" y="452"/>
      <point x="510" y="532"/>
      <point x="394" y="532" type="curve" smooth="yes"/>
      <point x="349" y="532"/>
      <point x="308" y="517"/>
      <point x="277" y="498" type="curve"/>
      <point x="324" y="693" type="line"/>
      <point x="591" y="693" type="line"/>
      <point x="609" y="772" type="line"/>
      <point x="249" y="772" type="line"/>
      <point x="71" y="20" type="line"/>
      <point x="106" y="-2"/>
      <point x="166" y="-11"/>
    </contour>
    <contour>
      <point x="225" y="69" type="curve" smooth="yes"/>
      <point x="208" y="69"/>
      <point x="187" y="72"/>
      <point x="174" y="75" type="curve"/>
      <point x="255" y="413" type="line"/>
      <point x="290" y="438"/>
      <point x="332" y="454"/>
      <point x="371" y="454" type="curve" smooth="yes"/>
      <point x="455" y="454"/>
      <point x="473" y="398"/>
      <point x="473" y="337" type="curve" smooth="yes"/>
      <point x="473" y="196"/>
      <point x="377" y="69"/>
    </contour>
  </outline>
</glyph>
<glyph name="uni0184" format="2">
  <advance width="560"/>
  <unicode hex="0184"/>
  <outline>
    <contour>
      <point x="216" y="-11" type="curve" smooth="yes"/>
      <point x="459" y="-11"/>
      <point x="576" y="166"/>
      <point x="576" y="349" type="curve" smooth="yes"/>
      <point x="576" y="454"/>
      <point x="521" y="532"/>
      <point x="405" y="532" type="curve" smooth="yes"/>
      <point x="360" y="532"/>
      <point x="319" y="519"/>
      <point x="288" y="500" type="curve"/>
      <point x="354" y="776" type="line"/>
      <point x="291" y="762"/>
      <point x="228" y="736"/>
      <point x="175" y="708" type="curve"/>
      <point x="227" y="633" type="line"/>
      <point x="80" y="20" type="line"/>
      <point x="116" y="-2"/>
      <point x="176" y="-11"/>
    </contour>
    <contour>
      <point x="233" y="69" type="curve" smooth="yes"/>
      <point x="216" y="69"/>
      <point x="197" y="72"/>
      <point x="184" y="75" type="curve"/>
      <point x="265" y="414" type="line"/>
      <point x="300" y="439"/>
      <point x="342" y="454"/>
      <point x="382" y="454" type="curve" smooth="yes"/>
      <point x="463" y="454"/>
      <point x="484" y="399"/>
      <point x="484" y="339" type="curve" smooth="yes"/>
      <point x="484" y="199"/>
      <point x="385" y="69"/>
    </contour>
  </outline>
</glyph>
<glyph name="uni0186" format="2">
  <advance width="560"/>
  <unicode hex="0186"/>
  <outline>
    <contour>
      <point x="216" y="-15" type="curve" smooth="yes"/>
      <point x="464" y="-15"/>
      <point x="596" y="215"/>
      <point x="596" y="456" type="curve" smooth="yes"/>
      <point x="596" y="641"/>
      <point x="491" y="709"/>
      <point x="388" y="709" type="curve" smooth="yes"/>
      <point x="334" y="709"/>
      <point x="261" y="694"/>
      <point x="209" y="663" type="curve"/>
      <point x="216" y="590" type="line"/>
      <point x="272" y="620"/>
      <point x="323" y="627"/>
      <point x="363" y="627" type="curve" smooth="yes"/>
      <point x="445" y="627"/>
      <point x="500" y="573"/>
      <point x="500" y="456" type="curve" smooth="yes"/>
      <point x="500" y="265"/>
      <point x="405" y="67"/>
      <point x="224" y="67" type="curve" smooth="yes"/>
      <point x="183" y="67"/>
      <point x="140" y="77"/>
      <point x="97" y="105" type="curve"/>
      <point x="56" y="29" type="line"/>
      <point x="100" y="-1"/>
      <point x="151" y="-15"/>
    </contour>
  </outline>
</glyph>
<glyph name="uni0187" format="2">
  <advance width="560"/>
  <unicode hex="0187"/>
  <outline>
    <contour>
      <point x="300" y="-15" type="curve" smooth="yes"/>
      <point x="361" y="-15"/>
      <point x="414" y="-3"/>
      <point x="468" y="29" type="curve"/>
      <point x="463" y="105" type="line"/>
      <point x="410" y="77"/>
      <point x="365" y="67"/>
      <point x="326" y="67" type="curve" smooth="yes"/>
      <point x="248" y="67"/>
      <point x="193" y="121"/>
      <point x="193" y="251" type="curve" smooth="yes"/>
      <point x="193" y="463"/>
      <point x="323" y="627"/>
      <point x="461" y="627" type="curve" smooth="yes"/>
      <point x="495" y="627"/>
      <point x="528" y="617"/>
      <point x="563" y="594" type="curve"/>
      <point x="578" y="625" type="line"/>
      <point x="607" y="687"/>
      <point x="622" y="713"/>
      <point x="655" y="713" type="curve" smooth="yes"/>
      <point x="666" y="713"/>
      <point x="678" y="710"/>
      <point x="689" y="703" type="curve"/>
      <point x="720" y="772" type="line"/>
      <point x="709" y="778"/>
      <point x="678" y="786"/>
      <point x="663" y="786" type="curve" smooth="yes"/>
      <point x="610" y="786"/>
      <point x="577" y="769"/>
      <point x="539" y="697" type="curve"/>
      <point x="519" y="706"/>
      <point x="496" y="709"/>
      <point x="470" y="709" type="curve" smooth="yes"/>
      <point x="271" y="709"/>
      <point x="100" y="501"/>
      <point x="100" y="226" type="curve" smooth="yes"/>
      <point x="100" y="72"/>
      <point x="192" y="-15"/>
    </contour>
  </outline>
</glyph>
<glyph name="uni018F" format="2">
  <advance width="560"/>
  <unicode hex="018F"/>
  <outline>
    <contour>
      <point x="267" y="-15" type="curve" smooth="yes"/>
      <point x="491" y="-15"/>
      <point x="600" y="239"/>
      <point x="600" y="447" type="curve" smooth="yes"/>
      <point x="600" y="589"/>
      <point x="538" y="709"/>
      <point x="385" y="709" type="curve" smooth="yes"/>
      <point x="295" y="709"/>
      <point x="222" y="678"/>
      <point x="204" y="664" type="curve"/>
      <point x="211" y="588" type="line"/>
      <point x="236" y="603"/>
      <point x="293" y="631"/>
      <point x="371" y="631" type="curve" smooth="yes"/>
      <point x="469" y="631"/>
      <point x="510" y="547"/>
      <point x="510" y="442" type="curve" smooth="yes"/>
      <point x="510" y="418"/>
      <point x="507" y="394"/>
      <point x="503" y="370" type="curve"/>
      <point x="114" y="370" type="line"/>
      <point x="93" y="310"/>
      <point x="83" y="241"/>
      <point x="83" y="204" type="curve" smooth="yes"/>
      <point x="83" y="57"/>
      <point x="159" y="-15"/>
    </contour>
    <contour>
      <point x="276" y="63" type="curve" smooth="yes"/>
      <point x="212" y="63"/>
      <point x="172" y="118"/>
      <point x="172" y="203" type="curve" smooth="yes"/>
      <point x="172" y="234"/>
      <point x="179" y="265"/>
      <point x="186" y="292" type="curve"/>
      <point x="487" y="292" type="line"/>
      <point x="452" y="170"/>
      <point x="390" y="63"/>
    </contour>
  </outline>
</glyph>
<glyph name="uni0193" format="2">
  <advance width="560"/>
  <unicode hex="0193"/>
  <outline>
    <contour>
      <point x="304" y="-15" type="curve" smooth="yes"/>
      <point x="384" y="-15"/>
      <point x="457" y="7"/>
      <point x="480" y="16" type="curve"/>
      <point x="558" y="340" type="line"/>
      <point x="466" y="340" type="line"/>
      <point x="403" y="78" type="line"/>
      <point x="386" y="73"/>
      <point x="358" y="66"/>
      <point x="323" y="66" type="curve" smooth="yes"/>
      <point x="231" y="66"/>
      <point x="183" y="127"/>
      <point x="183" y="251" type="curve" smooth="yes"/>
      <point x="183" y="492"/>
      <point x="304" y="627"/>
      <point x="444" y="627" type="curve" smooth="yes"/>
      <point x="479" y="627"/>
      <point x="516" y="617"/>
      <point x="553" y="594" type="curve"/>
      <point x="568" y="623" type="line"/>
      <point x="597" y="687"/>
      <point x="610" y="713"/>
      <point x="645" y="713" type="curve" smooth="yes"/>
      <point x="656" y="713"/>
      <point x="668" y="710"/>
      <point x="679" y="703" type="curve"/>
      <point x="710" y="772" type="line"/>
      <point x="699" y="778"/>
      <point x="669" y="786"/>
      <point x="653" y="786" type="curve" smooth="yes"/>
      <point x="600" y="786"/>
      <point x="567" y="769"/>
      <point x="529" y="697" type="curve"/>
      <point x="501" y="706"/>
      <point x="472" y="709"/>
      <point x="444" y="709" type="curve" smooth="yes"/>
      <point x="258" y="709"/>
      <point x="90" y="533"/>
      <point x="90" y="226" type="curve" smooth="yes"/>
      <point x="90" y="90"/>
      <point x="166" y="-15"/>
    </contour>
  </outline>
</glyph>
<glyph name="uni0196" format="2">
  <advance width="560"/>
  <unicode hex="0196"/>
  <outline>
    <contour>
      <point x="367" y="-15" type="curve" smooth="yes"/>
      <point x="416" y="-15"/>
      <point x="472" y="-1"/>
      <point x="493" y="12" type="curve"/>
      <point x="494" y="86" type="line"/>
      <point x="475" y="77"/>
      <point x="439" y="63"/>
      <point x="400" y="63" type="curve" smooth="yes"/>
      <point x="338" y="63"/>
      <point x="317" y="84"/>
      <point x="317" y="125" type="curve" smooth="yes"/>
      <point x="317" y="142"/>
      <point x="320" y="162"/>
      <point x="326" y="185" type="curve" smooth="yes"/>
      <point x="429" y="615" type="line"/>
      <point x="573" y="615" type="line"/>
      <point x="591" y="693" type="line"/>
      <point x="231" y="693" type="line"/>
      <point x="213" y="615" type="line"/>
      <point x="337" y="615" type="line"/>
      <point x="241" y="217" type="line" smooth="yes"/>
      <point x="231" y="176"/>
      <point x="225" y="139"/>
      <point x="225" y="108" type="curve" smooth="yes"/>
      <point x="225" y="30"/>
      <point x="262" y="-15"/>
    </contour>
  </outline>
</glyph>
<glyph name="uni0198" format="2">
  <advance width="560"/>
  <unicode hex="0198"/>
  <outline>
    <contour>
      <point x="50" y="0" type="line"/>
      <point x="142" y="0" type="line"/>
      <point x="222" y="334" type="line"/>
      <point x="299" y="264"/>
      <point x="367" y="158"/>
      <point x="423" y="0" type="curve"/>
      <point x="523" y="0" type="line"/>
      <point x="467" y="157"/>
      <point x="382" y="289"/>
      <point x="318" y="361" type="curve"/>
      <point x="437" y="482"/>
      <point x="459" y="510"/>
      <point x="530" y="587" type="curve" smooth="yes"/>
      <point x="547" y="606"/>
      <point x="568" y="626"/>
      <point x="598" y="626" type="curve" smooth="yes"/>
      <point x="619" y="626"/>
      <point x="633" y="617"/>
      <point x="654" y="599" type="curve"/>
      <point x="702" y="662" type="line"/>
      <point x="666" y="697"/>
      <point x="644" y="706"/>
      <point x="601" y="706" type="curve" smooth="yes"/>
      <point x="554" y="706"/>
      <point x="504" y="678"/>
      <point x="459" y="626" type="curve" smooth="yes"/>
      <point x="385" y="542"/>
      <point x="351" y="505"/>
      <point x="235" y="390" type="curve"/>
      <point x="308" y="693" type="line"/>
      <point x="216" y="693" type="line"/>
    </contour>
  </outline>
</glyph>
<glyph name="uni0199" format="2">
  <advance width="560"/>
  <unicode hex="0199"/>
  <outline>
    <contour>
      <point x="71" y="0" type="line"/>
      <point x="162" y="0" type="line"/>
      <point x="225" y="260" type="line"/>
      <point x="297" y="203"/>
      <point x="364" y="108"/>
      <point x="411" y="0" type="curve"/>
      <point x="511" y="0" type="line"/>
      <point x="474" y="102"/>
      <point x="391" y="222"/>
      <point x="323" y="282" type="curve"/>
      <point x="400" y="338"/>
      <point x="536" y="444"/>
      <point x="610" y="520" type="curve"/>
      <point x="501" y="520" type="line"/>
      <point x="426" y="451"/>
      <point x="326" y="375"/>
      <point x="236" y="310" type="curve"/>
      <point x="307" y="603" type="line" smooth="yes"/>
      <point x="321" y="662"/>
      <point x="340" y="701"/>
      <point x="393" y="701" type="curve" smooth="yes"/>
      <point x="412" y="701"/>
      <point x="429" y="697"/>
      <point x="437" y="693" type="curve"/>
      <point x="461" y="763" type="line"/>
      <point x="450" y="771"/>
      <point x="418" y="776"/>
      <point x="399" y="776" type="curve" smooth="yes"/>
      <point x="267" y="776"/>
      <point x="242" y="713"/>
      <point x="212" y="590" type="curve" smooth="yes"/>
    </contour>
  </outline>
</glyph>
<glyph name="uni019B" format="2">
  <advance width="560"/>
  <unicode hex="019B"/>
  <outline>
    <contour>
      <point x="36" y="0" type="curve"/>
      <point x="130" y="0" type="line"/>
      <point x="183" y="136"/>
      <point x="276" y="291"/>
      <point x="380" y="426" type="curve"/>
      <point x="407" y="239"/>
      <point x="409" y="113"/>
      <point x="412" y="0" type="curve"/>
      <point x="503" y="0" type="line"/>
      <point x="496" y="171"/>
      <point x="479" y="379"/>
      <point x="435" y="608" type="curve"/>
      <point x="551" y="646" type="line"/>
      <point x="543" y="709" type="line"/>
      <point x="420" y="670" type="line"/>
      <point x="400" y="737"/>
      <point x="361" y="776"/>
      <point x="277" y="776" type="curve" smooth="yes"/>
      <point x="252" y="776"/>
      <point x="227" y="774"/>
      <point x="208" y="767" type="curve"/>
      <point x="204" y="692" type="line"/>
      <point x="220" y="699"/>
      <point x="240" y="701"/>
      <point x="259" y="701" type="curve" smooth="yes"/>
      <point x="302" y="701"/>
      <point x="323" y="684"/>
      <point x="338" y="643" type="curve"/>
      <point x="228" y="608" type="line"/>
      <point x="236" y="545" type="line"/>
      <point x="353" y="584" type="line"/>
      <point x="363" y="529" type="line"/>
      <point x="230" y="365"/>
      <point x="108" y="181"/>
    </contour>
  </outline>
</glyph>
<glyph name="uni019C" format="2">
  <advance width="560"/>
  <unicode hex="019C"/>
  <outline>
    <contour>
      <point x="157" y="-15" type="curve" smooth="yes"/>
      <point x="192" y="-15"/>
      <point x="228" y="-4"/>
      <point x="264" y="22" type="curve"/>
      <point x="284" y="-3"/>
      <point x="318" y="-15"/>
      <point x="360" y="-15" type="curve" smooth="yes"/>
      <point x="398" y="-15"/>
      <point x="441" y="-4"/>
      <point x="487" y="13" type="curve"/>
      <point x="650" y="693" type="line"/>
      <point x="566" y="693" type="line"/>
      <point x="418" y="73" type="line"/>
      <point x="400" y="67"/>
      <point x="384" y="63"/>
      <point x="371" y="63" type="curve" smooth="yes"/>
      <point x="342" y="63"/>
      <point x="329" y="80"/>
      <point x="329" y="106" type="curve" smooth="yes"/>
      <point x="329" y="118"/>
      <point x="332" y="131"/>
      <point x="335" y="147" type="curve" smooth="yes"/>
      <point x="402" y="430" type="line"/>
      <point x="318" y="430" type="line"/>
      <point x="252" y="149" type="line" smooth="yes"/>
      <point x="248" y="127"/>
      <point x="244" y="108"/>
      <point x="244" y="86" type="curve"/>
      <point x="226" y="71"/>
      <point x="207" y="63"/>
      <point x="188" y="63" type="curve" smooth="yes"/>
      <point x="155" y="63"/>
      <point x="144" y="83"/>
      <point x="144" y="109" type="curve" smooth="yes"/>
      <point x="144" y="120"/>
      <point x="147" y="133"/>
      <point x="150" y="146" type="curve" smooth="yes"/>
      <point x="280" y="693" type="line"/>
      <point x="196" y="693" type="line"/>
      <point x="67" y="149" type="line" smooth="yes"/>
      <point x="63" y="131"/>
      <point x="60" y="112"/>
      <point x="60" y="94" type="curve" smooth="yes"/>
      <point x="60" y="37"/>
      <point x="85" y="-15"/>
    </contour>
  </outline>
</glyph>
<glyph name="ohorn" format="2">
  <advance width="560"/>
  <unicode hex="01A1"/>
  <outline>
    <contour>
      <point x="255" y="-12" type="curve" smooth="yes"/>
      <point x="464" y="-12"/>
      <point x="545" y="196"/>
      <point x="545" y="351" type="curve" smooth="yes"/>
      <point x="545" y="379"/>
      <point x="541" y="400"/>
      <point x="534" y="421" type="curve"/>
      <point x="605" y="466"/>
      <point x="647" y="540"/>
      <point x="656" y="628" type="curve"/>
      <point x="564" y="628" type="line"/>
      <point x="559" y="584"/>
      <point x="554" y="523"/>
      <point x="501" y="482" type="curve"/>
      <point x="472" y="516"/>
      <point x="432" y="532"/>
      <point x="380" y="532" type="curve" smooth="yes"/>
      <point x="171" y="532"/>
      <point x="90" y="324"/>
      <point x="90" y="169" type="curve" smooth="yes"/>
      <point x="90" y="56"/>
      <point x="152" y="-12"/>
    </contour>
    <contour>
      <point x="271" y="71" type="curve" smooth="yes"/>
      <point x="207" y="71"/>
      <point x="183" y="110"/>
      <point x="183" y="177" type="curve" smooth="yes"/>
      <point x="183" y="300"/>
      <point x="250" y="450"/>
      <point x="364" y="450" type="curve" smooth="yes"/>
      <point x="428" y="450"/>
      <point x="454" y="410"/>
      <point x="454" y="343" type="curve" smooth="yes"/>
      <point x="454" y="220"/>
      <point x="385" y="71"/>
    </contour>
  </outline>
</glyph>
<glyph name="uni01A4" format="2">
  <advance width="560"/>
  <unicode hex="01A4"/>
  <outline>
    <contour>
      <point x="144" y="0" type="line"/>
      <point x="236" y="0" type="line"/>
      <point x="299" y="259" type="line"/>
      <point x="355" y="259" type="line" smooth="yes"/>
      <point x="504" y="259"/>
      <point x="616" y="367"/>
      <point x="616" y="519" type="curve" smooth="yes"/>
      <point x="616" y="641"/>
      <point x="541" y="700"/>
      <point x="398" y="700" type="curve" smooth="yes"/>
      <point x="283" y="700"/>
      <point x="113" y="691"/>
      <point x="113" y="507" type="curve" smooth="yes"/>
      <point x="113" y="504"/>
      <point x="113" y="497"/>
      <point x="114" y="492" type="curve"/>
      <point x="189" y="501" type="line"/>
      <point x="189" y="585"/>
      <point x="228" y="615"/>
      <point x="295" y="620" type="curve"/>
    </contour>
    <contour>
      <point x="317" y="337" type="line"/>
      <point x="388" y="618" type="line"/>
      <point x="402" y="622"/>
      <point x="416" y="622"/>
      <point x="430" y="622" type="curve" smooth="yes"/>
      <point x="482" y="622"/>
      <point x="526" y="598"/>
      <point x="526" y="520" type="curve" smooth="yes"/>
      <point x="526" y="405"/>
      <point x="467" y="337"/>
      <point x="367" y="337" type="curve" smooth="yes"/>
    </contour>
  </outline>
</glyph>
<glyph name="uni01A7" format="2">
  <advance width="560"/>
  <unicode hex="01A7"/>
  <outline>
    <contour>
      <point x="295" y="-15" type="curve" smooth="yes"/>
      <point x="391" y="-15"/>
      <point x="476" y="12"/>
      <point x="498" y="26" type="curve"/>
      <point x="491" y="108" type="line"/>
      <point x="461" y="93"/>
      <point x="399" y="65"/>
      <point x="302" y="65" type="curve" smooth="yes"/>
      <point x="227" y="65"/>
      <point x="178" y="88"/>
      <point x="178" y="156" type="curve" smooth="yes"/>
      <point x="178" y="254"/>
      <point x="276" y="287"/>
      <point x="376" y="323" type="curve" smooth="yes"/>
      <point x="505" y="367"/>
      <point x="598" y="420"/>
      <point x="598" y="559" type="curve" smooth="yes"/>
      <point x="598" y="647"/>
      <point x="541" y="709"/>
      <point x="412" y="709" type="curve" smooth="yes"/>
      <point x="343" y="709"/>
      <point x="258" y="685"/>
      <point x="222" y="664" type="curve"/>
      <point x="235" y="585" type="line"/>
      <point x="268" y="603"/>
      <point x="323" y="629"/>
      <point x="403" y="629" type="curve" smooth="yes"/>
      <point x="474" y="629"/>
      <point x="507" y="596"/>
      <point x="507" y="545" type="curve" smooth="yes"/>
      <point x="507" y="463"/>
      <point x="441" y="427"/>
      <point x="335" y="393" type="curve" smooth="yes"/>
      <point x="212" y="353"/>
      <point x="86" y="298"/>
      <point x="86" y="146" type="curve" smooth="yes"/>
      <point x="86" y="47"/>
      <point x="151" y="-15"/>
    </contour>
  </outline>
</glyph>
<glyph name="uni01AC" format="2">
  <advance width="560"/>
  <unicode hex="01AC"/>
  <outline>
    <contour>
      <point x="231" y="0" type="line"/>
      <point x="323" y="0" type="line"/>
      <point x="472" y="615" type="line"/>
      <point x="651" y="615" type="line"/>
      <point x="670" y="693" type="line"/>
      <point x="342" y="693" type="line" smooth="yes"/>
      <point x="251" y="693"/>
      <point x="137" y="656"/>
      <point x="137" y="507" type="curve" smooth="yes"/>
      <point x="137" y="504"/>
      <point x="137" y="497"/>
      <point x="138" y="492" type="curve"/>
      <point x="213" y="501" type="line"/>
      <point x="213" y="566"/>
      <point x="235" y="615"/>
      <point x="317" y="615" type="curve" smooth="yes"/>
      <point x="379" y="615" type="line"/>
    </contour>
  </outline>
</glyph>
<glyph name="uni01B2" format="2">
  <advance width="560"/>
  <unicode hex="01B2"/>
  <outline>
    <contour>
      <point x="239" y="-15" type="curve" smooth="yes"/>
      <point x="469" y="-15"/>
      <point x="594" y="255"/>
      <point x="594" y="500" type="curve" smooth="yes"/>
      <point x="594" y="641"/>
      <point x="538" y="697"/>
      <point x="441" y="697" type="curve" smooth="yes"/>
      <point x="426" y="697"/>
      <point x="398" y="692"/>
      <point x="381" y="689" type="curve"/>
      <point x="373" y="619" type="line"/>
      <point x="386" y="622"/>
      <point x="398" y="623"/>
      <point x="408" y="623" type="curve" smooth="yes"/>
      <point x="474" y="623"/>
      <point x="506" y="604"/>
      <point x="506" y="501" type="curve" smooth="yes"/>
      <point x="506" y="253"/>
      <point x="392" y="65"/>
      <point x="254" y="65" type="curve" smooth="yes"/>
      <point x="189" y="65"/>
      <point x="170" y="105"/>
      <point x="170" y="158" type="curve" smooth="yes"/>
      <point x="170" y="200"/>
      <point x="183" y="253"/>
      <point x="194" y="299" type="curve" smooth="yes"/>
      <point x="288" y="693" type="line"/>
      <point x="196" y="693" type="line"/>
      <point x="99" y="288" type="line" smooth="yes"/>
      <point x="88" y="241"/>
      <point x="80" y="195"/>
      <point x="80" y="153" type="curve" smooth="yes"/>
      <point x="80" y="58"/>
      <point x="119" y="-15"/>
    </contour>
  </outline>
</glyph>
<glyph name="uni01B3" format="2">
  <advance width="560"/>
  <unicode hex="01B3"/>
  <outline>
    <contour>
      <point x="190" y="0" type="line"/>
      <point x="282" y="0" type="line"/>
      <point x="344" y="254" type="line"/>
      <point x="421" y="376"/>
      <point x="497" y="483"/>
      <point x="542" y="554" type="curve" smooth="yes"/>
      <point x="576" y="607"/>
      <point x="588" y="627"/>
      <point x="610" y="627" type="curve" smooth="yes"/>
      <point x="627" y="627"/>
      <point x="644" y="617"/>
      <point x="659" y="597" type="curve"/>
      <point x="710" y="655" type="line"/>
      <point x="690" y="683"/>
      <point x="661" y="703"/>
      <point x="622" y="703" type="curve" smooth="yes"/>
      <point x="570" y="703"/>
      <point x="530" y="680"/>
      <point x="476" y="594" type="curve" smooth="yes"/>
      <point x="432" y="526"/>
      <point x="376" y="442"/>
      <point x="307" y="337" type="curve"/>
      <point x="276" y="447"/>
      <point x="236" y="588"/>
      <point x="228" y="693" type="curve"/>
      <point x="136" y="693" type="line"/>
      <point x="155" y="547"/>
      <point x="200" y="404"/>
      <point x="252" y="258" type="curve"/>
    </contour>
  </outline>
</glyph>
<glyph name="uni01B7" format="2">
  <advance width="560"/>
  <unicode hex="01B7"/>
  <outline>
    <contour>
      <point x="231" y="-15" type="curve" smooth="yes"/>
      <point x="394" y="-15"/>
      <point x="541" y="60"/>
      <point x="541" y="236" type="curve" smooth="yes"/>
      <point x="541" y="325"/>
      <point x="491" y="379"/>
      <point x="373" y="396" type="curve"/>
      <point x="466" y="476"/>
      <point x="573" y="579"/>
      <point x="627" y="638" type="curve"/>
      <point x="641" y="693" type="line"/>
      <point x="222" y="693" type="line"/>
      <point x="204" y="615" type="line"/>
      <point x="505" y="615" type="line"/>
      <point x="449" y="561"/>
      <point x="351" y="465"/>
      <point x="267" y="391" type="curve"/>
      <point x="253" y="338" type="line"/>
      <point x="272" y="338" type="line" smooth="yes"/>
      <point x="401" y="338"/>
      <point x="448" y="302"/>
      <point x="448" y="222" type="curve" smooth="yes"/>
      <point x="448" y="116"/>
      <point x="371" y="65"/>
      <point x="234" y="65" type="curve" smooth="yes"/>
      <point x="157" y="65"/>
      <point x="110" y="87"/>
      <point x="84" y="103" type="curve"/>
      <point x="40" y="31" type="line"/>
      <point x="100" y="-1"/>
      <point x="161" y="-15"/>
    </contour>
  </outline>
</glyph>
<glyph name="uni01B9" format="2">
  <advance width="560"/>
  <unicode hex="01B9"/>
  <outline>
    <contour>
      <point x="296" y="-185" type="curve" smooth="yes"/>
      <point x="370" y="-185"/>
      <point x="424" y="-166"/>
      <point x="461" y="-149" type="curve"/>
      <point x="455" y="-73" type="line"/>
      <point x="420" y="-88"/>
      <point x="379" y="-108"/>
      <point x="316" y="-108" type="curve" smooth="yes"/>
      <point x="224" y="-108"/>
      <point x="172" y="-69"/>
      <point x="172" y="-3" type="curve" smooth="yes"/>
      <point x="172" y="132"/>
      <point x="304" y="159"/>
      <point x="411" y="159" type="curve" smooth="yes"/>
      <point x="428" y="159" type="line"/>
      <point x="441" y="214" type="line"/>
      <point x="398" y="281"/>
      <point x="332" y="388"/>
      <point x="311" y="442" type="curve"/>
      <point x="578" y="442" type="line"/>
      <point x="597" y="520" type="line"/>
      <point x="227" y="520" type="line"/>
      <point x="214" y="466" type="line"/>
      <point x="244" y="398"/>
      <point x="289" y="307"/>
      <point x="338" y="232" type="curve"/>
      <point x="209" y="220"/>
      <point x="81" y="143"/>
      <point x="81" y="-13" type="curve" smooth="yes"/>
      <point x="81" y="-118"/>
      <point x="162" y="-185"/>
    </contour>
  </outline>
</glyph>
<glyph name="uni01BA" format="2">
  <advance width="560"/>
  <unicode hex="01BA"/>
  <outline>
    <contour>
      <point x="38" y="-188" type="curve"/>
      <point x="112" y="-172" type="line"/>
      <point x="111" y="-170"/>
      <point x="108" y="-161"/>
      <point x="108" y="-146" type="curve" smooth="yes"/>
      <point x="108" y="-73"/>
      <point x="167" y="-72"/>
      <point x="268" y="-48" type="curve" smooth="yes"/>
      <point x="311" y="-38" type="line" smooth="yes"/>
      <point x="416" y="-15"/>
      <point x="494" y="36"/>
      <point x="494" y="140" type="curve" smooth="yes"/>
      <point x="494" y="216"/>
      <point x="445" y="269"/>
      <point x="345" y="276" type="curve"/>
      <point x="429" y="342"/>
      <point x="510" y="409"/>
      <point x="556" y="457" type="curve"/>
      <point x="570" y="520" type="line"/>
      <point x="197" y="520" type="line"/>
      <point x="179" y="442" type="line"/>
      <point x="449" y="442" type="line"/>
      <point x="401" y="398"/>
      <point x="333" y="344"/>
      <point x="252" y="286" type="curve"/>
      <point x="237" y="223" type="line"/>
      <point x="360" y="228"/>
      <point x="407" y="193"/>
      <point x="407" y="137" type="curve" smooth="yes"/>
      <point x="407" y="69"/>
      <point x="335" y="43"/>
      <point x="249" y="24" type="curve" smooth="yes"/>
      <point x="213" y="16" type="line" smooth="yes"/>
      <point x="109" y="-7"/>
      <point x="32" y="-27"/>
      <point x="32" y="-142" type="curve" smooth="yes"/>
      <point x="32" y="-155"/>
      <point x="35" y="-175"/>
    </contour>
  </outline>
</glyph>
<glyph name="uni01BD" format="2">
  <advance width="560"/>
  <unicode hex="01BD"/>
  <outline>
    <contour>
      <point x="254" y="-12" type="curve" smooth="yes"/>
      <point x="394" y="-12"/>
      <point x="508" y="39"/>
      <point x="508" y="172" type="curve" smooth="yes"/>
      <point x="508" y="260"/>
      <point x="457" y="321"/>
      <point x="290" y="326" type="curve"/>
      <point x="301" y="355"/>
      <point x="319" y="413"/>
      <point x="330" y="446" type="curve"/>
      <point x="549" y="446" type="line"/>
      <point x="566" y="520" type="line"/>
      <point x="188" y="520" type="line"/>
      <point x="171" y="446" type="line"/>
      <point x="248" y="446" type="line"/>
      <point x="228" y="382"/>
      <point x="211" y="330"/>
      <point x="184" y="255" type="curve"/>
      <point x="197" y="255"/>
      <point x="212" y="255"/>
      <point x="225" y="255" type="curve" smooth="yes"/>
      <point x="370" y="255"/>
      <point x="418" y="222"/>
      <point x="418" y="169" type="curve" smooth="yes"/>
      <point x="418" y="88"/>
      <point x="345" y="66"/>
      <point x="265" y="66" type="curve" smooth="yes"/>
      <point x="190" y="66"/>
      <point x="151" y="80"/>
      <point x="128" y="91" type="curve"/>
      <point x="100" y="15" type="line"/>
      <point x="129" y="-1"/>
      <point x="186" y="-12"/>
    </contour>
  </outline>
</glyph>
<glyph name="uni01BF" format="2">
  <advance width="560"/>
  <unicode hex="01BF"/>
  <outline>
    <contour>
      <point x="17" y="-185" type="line"/>
      <point x="110" y="-185" type="line"/>
      <point x="141" y="-54" type="line"/>
      <point x="433" y="21"/>
      <point x="563" y="160"/>
      <point x="563" y="347" type="curve" smooth="yes"/>
      <point x="563" y="450"/>
      <point x="512" y="531"/>
      <point x="380" y="531" type="curve" smooth="yes"/>
      <point x="295" y="531"/>
      <point x="220" y="506"/>
      <point x="179" y="491" type="curve"/>
    </contour>
    <contour>
      <point x="162" y="30" type="curve"/>
      <point x="258" y="433" type="line"/>
      <point x="277" y="440"/>
      <point x="309" y="450"/>
      <point x="360" y="450" type="curve" smooth="yes"/>
      <point x="451" y="450"/>
      <point x="470" y="393"/>
      <point x="470" y="337" type="curve" smooth="yes"/>
      <point x="470" y="202"/>
      <point x="384" y="97"/>
    </contour>
  </outline>
</glyph>
<glyph name="uni01C8" format="2">
  <advance width="560"/>
  <unicode hex="01C8"/>
  <outline>
    <contour>
      <point x="265" y="-188" type="curve" smooth="yes"/>
      <point x="395" y="-188"/>
      <point x="442" y="-129"/>
      <point x="478" y="20" type="curve" smooth="yes"/>
      <point x="598" y="520" type="line"/>
      <point x="506" y="520" type="line"/>
      <point x="386" y="19" type="line" smooth="yes"/>
      <point x="368" y="-57"/>
      <point x="339" y="-108"/>
      <point x="279" y="-108" type="curve" smooth="yes"/>
      <point x="252" y="-108"/>
      <point x="228" y="-102"/>
      <point x="214" y="-93" type="curve"/>
      <point x="193" y="-170" type="line"/>
      <point x="209" y="-181"/>
      <point x="242" y="-188"/>
    </contour>
    <contour>
      <point x="24" y="0" type="line"/>
      <point x="295" y="0" type="line"/>
      <point x="314" y="78" type="line"/>
      <point x="134" y="78" type="line"/>
      <point x="281" y="693" type="line"/>
      <point x="189" y="693" type="line"/>
    </contour>
    <contour>
      <point x="580" y="607" type="curve" smooth="yes"/>
      <point x="616" y="607"/>
      <point x="654" y="637"/>
      <point x="654" y="682" type="curve" smooth="yes"/>
      <point x="654" y="721"/>
      <point x="628" y="743"/>
      <point x="594" y="743" type="curve" smooth="yes"/>
      <point x="557" y="743"/>
      <point x="520" y="715"/>
      <point x="520" y="666" type="curve" smooth="yes"/>
      <point x="520" y="629"/>
      <point x="545" y="607"/>
    </contour>
  </outline>
</glyph>
<glyph name="uni01CA" format="2">
  <advance width="560"/>
  <unicode hex="01CA"/>
  <outline>
    <contour>
      <point x="15" y="0" type="line"/>
      <point x="83" y="0" type="line"/>
      <point x="151" y="281" type="line"/>
      <point x="190" y="488" type="line"/>
      <point x="196" y="326"/>
      <point x="200" y="162"/>
      <point x="206" y="0" type="curve"/>
      <point x="280" y="0" type="line"/>
      <point x="447" y="693" type="line"/>
      <point x="377" y="693" type="line"/>
      <point x="309" y="410" type="line"/>
      <point x="270" y="205" type="line"/>
      <point x="254" y="693" type="line"/>
      <point x="180" y="693" type="line"/>
    </contour>
    <contour>
      <point x="327" y="0" type="line"/>
      <point x="456" y="0"/>
      <point x="517" y="60"/>
      <point x="544" y="172" type="curve" smooth="yes"/>
      <point x="669" y="693" type="line"/>
      <point x="589" y="693" type="line"/>
      <point x="474" y="214" type="line" smooth="yes"/>
      <point x="452" y="122"/>
      <point x="439" y="77"/>
      <point x="346" y="77" type="curve"/>
    </contour>
  </outline>
</glyph>
<glyph name="uni01CB" format="2">
  <advance width="560"/>
  <unicode hex="01CB"/>
  <outline>
    <contour>
      <point x="24" y="0" type="line"/>
      <point x="93" y="0" type="line"/>
      <point x="161" y="281" type="line"/>
      <point x="200" y="488" type="line"/>
      <point x="206" y="326"/>
      <point x="211" y="162"/>
      <point x="216" y="0" type="curve"/>
      <point x="290" y="0" type="line"/>
      <point x="457" y="693" type="line"/>
      <point x="388" y="693" type="line"/>
      <point x="319" y="410" type="line"/>
      <point x="280" y="205" type="line"/>
      <point x="264" y="693" type="line"/>
      <point x="190" y="693" type="line"/>
    </contour>
    <contour>
      <point x="287" y="-188" type="curve" smooth="yes"/>
      <point x="417" y="-188"/>
      <point x="464" y="-129"/>
      <point x="501" y="20" type="curve" smooth="yes"/>
      <point x="620" y="520" type="line"/>
      <point x="538" y="520" type="line"/>
      <point x="418" y="19" type="line" smooth="yes"/>
      <point x="400" y="-57"/>
      <point x="371" y="-108"/>
      <point x="311" y="-108" type="curve" smooth="yes"/>
      <point x="284" y="-108"/>
      <point x="261" y="-102"/>
      <point x="246" y="-93" type="curve"/>
      <point x="225" y="-170" type="line"/>
      <point x="241" y="-181"/>
      <point x="268" y="-188"/>
    </contour>
    <contour>
      <point x="603" y="607" type="curve" smooth="yes"/>
      <point x="638" y="607"/>
      <point x="676" y="637"/>
      <point x="676" y="682" type="curve" smooth="yes"/>
      <point x="676" y="721"/>
      <point x="650" y="743"/>
      <point x="615" y="743" type="curve" smooth="yes"/>
      <point x="578" y="743"/>
      <point x="542" y="715"/>
      <point x="542" y="666" type="curve" smooth="yes"/>
      <point x="542" y="629"/>
      <point x="567" y="607"/>
    </contour>
  </outline>
</glyph>
<glyph name="uni01DE" format="2">
  <advance width="560"/>
  <unicode hex="01DE"/>
  <outline>
    <contour>
      <point x="-15" y="0" type="curve"/>
      <point x="78" y="0" type="line"/>
      <point x="106" y="60"/>
      <point x="136" y="121"/>
      <point x="164" y="181" type="curve"/>
      <point x="430" y="181" type="line"/>
      <point x="429" y="0" type="line"/>
      <point x="525" y="0" type="line"/>
      <point x="520" y="196"/>
      <point x="505" y="449"/>
      <point x="472" y="671" type="curve"/>
      <point x="362" y="671" type="line"/>
      <point x="221" y="449"/>
      <point x="85" y="197"/>
    </contour>
    <contour>
      <point x="203" y="258" type="line"/>
      <point x="271" y="389"/>
      <point x="339" y="497"/>
      <point x="395" y="590" type="curve"/>
      <point x="408" y="502"/>
      <point x="424" y="391"/>
      <point x="427" y="258" type="curve"/>
    </contour>
    <contour>
      <point x="325" y="725" type="curve" smooth="yes"/>
      <point x="353" y="725"/>
      <point x="385" y="750"/>
      <point x="385" y="786" type="curve" smooth="yes"/>
      <point x="385" y="815"/>
      <point x="363" y="834"/>
      <point x="336" y="834" type="curve" smooth="yes"/>
      <point x="307" y="834"/>
      <point x="277" y="811"/>
      <point x="277" y="772" type="curve" smooth="yes"/>
      <point x="277" y="744"/>
      <point x="298" y="725"/>
    </contour>
    <contour>
      <point x="528" y="725" type="curve" smooth="yes"/>
      <point x="556" y="725"/>
      <point x="588" y="750"/>
      <point x="588" y="786" type="curve" smooth="yes"/>
      <point x="588" y="815"/>
      <point x="566" y="834"/>
      <point x="539" y="834" type="curve" smooth="yes"/>
      <point x="510" y="834"/>
      <point x="480" y="811"/>
      <point x="480" y="772" type="curve" smooth="yes"/>
      <point x="480" y="744"/>
      <point x="501" y="725"/>
    </contour>
    <contour>
      <point x="327" y="865" type="line"/>
      <point x="581" y="865" type="line"/>
      <point x="596" y="928" type="line"/>
      <point x="342" y="928" type="line"/>
    </contour>
  </outline>
</glyph>
<glyph name="uni01E4" format="2">
  <advance width="560"/>
  <unicode hex="01E4"/>
  <outline>
    <contour>
      <point x="304" y="-13" type="curve" smooth="yes"/>
      <point x="354" y="-13"/>
      <point x="409" y="-2"/>
      <point x="461" y="16" type="curve"/>
      <point x="503" y="195" type="line"/>
      <point x="553" y="195" type="line"/>
      <point x="571" y="268" type="line"/>
      <point x="521" y="268" type="line"/>
      <point x="544" y="364" type="line"/>
      <point x="452" y="364" type="line"/>
      <point x="429" y="268" type="line"/>
      <point x="349" y="268" type="line"/>
      <point x="332" y="195" type="line"/>
      <point x="412" y="195" type="line"/>
      <point x="384" y="78" type="line"/>
      <point x="357" y="71"/>
      <point x="334" y="66"/>
      <point x="312" y="66" type="curve" smooth="yes"/>
      <point x="227" y="66"/>
      <point x="183" y="129"/>
      <point x="183" y="241" type="curve" smooth="yes"/>
      <point x="183" y="431"/>
      <point x="281" y="628"/>
      <point x="445" y="628" type="curve" smooth="yes"/>
      <point x="497" y="628"/>
      <point x="536" y="606"/>
      <point x="561" y="584" type="curve"/>
      <point x="605" y="657" type="line"/>
      <point x="581" y="678"/>
      <point x="539" y="709"/>
      <point x="452" y="709" type="curve" smooth="yes"/>
      <point x="227" y="709"/>
      <point x="90" y="463"/>
      <point x="90" y="226" type="curve" smooth="yes"/>
      <point x="90" y="46"/>
      <point x="187" y="-13"/>
    </contour>
  </outline>
</glyph>
<glyph name="uni01E5" format="2">
  <advance width="560"/>
  <unicode hex="01E5"/>
  <outline>
    <contour>
      <point x="169" y="-188" type="curve" smooth="yes"/>
      <point x="372" y="-188"/>
      <point x="424" y="-99"/>
      <point x="459" y="45" type="curve" smooth="yes"/>
      <point x="508" y="240" type="line"/>
      <point x="579" y="240" type="line"/>
      <point x="595" y="308" type="line"/>
      <point x="525" y="308" type="line"/>
      <point x="575" y="505" type="line"/>
      <point x="542" y="525"/>
      <point x="478" y="531"/>
      <point x="444" y="531" type="curve" smooth="yes"/>
      <point x="211" y="531"/>
      <point x="96" y="354"/>
      <point x="96" y="175" type="curve" smooth="yes"/>
      <point x="96" y="78"/>
      <point x="152" y="21"/>
      <point x="253" y="21" type="curve" smooth="yes"/>
      <point x="298" y="21"/>
      <point x="348" y="39"/>
      <point x="373" y="54" type="curve"/>
      <point x="370" y="35" type="line" smooth="yes"/>
      <point x="351" y="-60"/>
      <point x="295" y="-110"/>
      <point x="189" y="-110" type="curve" smooth="yes"/>
      <point x="137" y="-110"/>
      <point x="88" y="-93"/>
      <point x="59" y="-71" type="curve"/>
      <point x="24" y="-148" type="line"/>
      <point x="60" y="-171"/>
      <point x="116" y="-188"/>
    </contour>
    <contour>
      <point x="273" y="97" type="curve" smooth="yes"/>
      <point x="216" y="97"/>
      <point x="188" y="122"/>
      <point x="188" y="193" type="curve" smooth="yes"/>
      <point x="188" y="323"/>
      <point x="286" y="454"/>
      <point x="423" y="454" type="curve" smooth="yes"/>
      <point x="436" y="454"/>
      <point x="456" y="451"/>
      <point x="467" y="448" type="curve"/>
      <point x="433" y="308" type="line"/>
      <point x="333" y="308" type="line"/>
      <point x="317" y="240" type="line"/>
      <point x="417" y="240" type="line"/>
      <point x="394" y="141" type="line"/>
      <point x="372" y="124"/>
      <point x="323" y="97"/>
    </contour>
  </outline>
</glyph>
<glyph name="uni01E9" format="2">
  <advance width="560"/>
  <unicode hex="01E9"/>
  <outline>
    <contour>
      <point x="71" y="0" type="line"/>
      <point x="162" y="0" type="line"/>
      <point x="225" y="260" type="line"/>
      <point x="297" y="203"/>
      <point x="364" y="108"/>
      <point x="411" y="0" type="curve"/>
      <point x="511" y="0" type="line"/>
      <point x="474" y="102"/>
      <point x="391" y="222"/>
      <point x="323" y="282" type="curve"/>
      <point x="400" y="338"/>
      <point x="536" y="444"/>
      <point x="610" y="520" type="curve"/>
      <point x="501" y="520" type="line"/>
      <point x="426" y="451"/>
      <point x="326" y="375"/>
      <point x="236" y="310" type="curve"/>
      <point x="342" y="743" type="line"/>
      <point x="245" y="727" type="line"/>
    </contour>
    <contour>
      <point x="356" y="783" type="line"/>
      <point x="492" y="881" type="line"/>
      <point x="465" y="928" type="line"/>
      <point x="367" y="865" type="line"/>
      <point x="295" y="930" type="line"/>
      <point x="258" y="889" type="line"/>
    </contour>
  </outline>
</glyph>
<glyph name="uni01EA" format="2">
  <advance width="560"/>
  <unicode hex="01EA"/>
  <outline>
    <contour>
      <point x="260" y="-187" type="curve" smooth="yes"/>
      <point x="283" y="-187"/>
      <point x="304" y="-183"/>
      <point x="318" y="-176" type="curve"/>
      <point x="326" y="-116" type="line"/>
      <point x="314" y="-120"/>
      <point x="299" y="-123"/>
      <point x="286" y="-123" type="curve" smooth="yes"/>
      <point x="259" y="-123"/>
      <point x="249" y="-114"/>
      <point x="249" y="-101" type="curve" smooth="yes"/>
      <point x="249" y="-57"/>
      <point x="329" y="-10"/>
      <point x="366" y="6" type="curve" smooth="yes"/>
      <point x="538" y="82"/>
      <point x="601" y="351"/>
      <point x="601" y="488" type="curve" smooth="yes"/>
      <point x="601" y="641"/>
      <point x="528" y="709"/>
      <point x="419" y="709" type="curve" smooth="yes"/>
      <point x="176" y="709"/>
      <point x="85" y="372"/>
      <point x="85" y="206" type="curve" smooth="yes"/>
      <point x="85" y="68"/>
      <point x="146" y="-1"/>
      <point x="239" y="-13" type="curve"/>
      <point x="208" y="-30"/>
      <point x="161" y="-85"/>
      <point x="161" y="-124" type="curve" smooth="yes"/>
      <point x="161" y="-161"/>
      <point x="187" y="-187"/>
    </contour>
    <contour>
      <point x="279" y="65" type="curve" smooth="yes"/>
      <point x="216" y="65"/>
      <point x="178" y="108"/>
      <point x="178" y="213" type="curve" smooth="yes"/>
      <point x="178" y="384"/>
      <point x="261" y="629"/>
      <point x="408" y="629" type="curve" smooth="yes"/>
      <point x="472" y="629"/>
      <point x="508" y="586"/>
      <point x="508" y="482" type="curve" smooth="yes"/>
      <point x="508" y="310"/>
      <point x="426" y="65"/>
    </contour>
  </outline>
</glyph>
<glyph name="uni01EB" format="2">
  <advance width="560"/>
  <unicode hex="01EB"/>
  <outline>
    <contour>
      <point x="276" y="-187" type="curve" smooth="yes"/>
      <point x="298" y="-187"/>
      <point x="318" y="-183"/>
      <point x="333" y="-176" type="curve"/>
      <point x="342" y="-116" type="line"/>
      <point x="329" y="-120"/>
      <point x="314" y="-123"/>
      <point x="301" y="-123" type="curve" smooth="yes"/>
      <point x="274" y="-123"/>
      <point x="264" y="-114"/>
      <point x="264" y="-101" type="curve" smooth="yes"/>
      <point x="264" y="-74"/>
      <point x="295" y="-52"/>
      <point x="308" y="-39" type="curve" smooth="yes"/>
      <point x="332" y="-18"/>
      <point x="360" y="0"/>
      <point x="388" y="15" type="curve" smooth="yes"/>
      <point x="508" y="74"/>
      <point x="566" y="223"/>
      <point x="566" y="351" type="curve" smooth="yes"/>
      <point x="566" y="464"/>
      <point x="500" y="533"/>
      <point x="390" y="533" type="curve" smooth="yes"/>
      <point x="174" y="533"/>
      <point x="90" y="324"/>
      <point x="90" y="169" type="curve" smooth="yes"/>
      <point x="90" y="57"/>
      <point x="153" y="-11"/>
      <point x="258" y="-12" type="curve"/>
      <point x="204" y="-48"/>
      <point x="176" y="-88"/>
      <point x="176" y="-124" type="curve" smooth="yes"/>
      <point x="176" y="-161"/>
      <point x="202" y="-187"/>
    </contour>
    <contour>
      <point x="281" y="71" type="curve" smooth="yes"/>
      <point x="211" y="71"/>
      <point x="183" y="110"/>
      <point x="183" y="177" type="curve" smooth="yes"/>
      <point x="183" y="300"/>
      <point x="254" y="450"/>
      <point x="374" y="450" type="curve" smooth="yes"/>
      <point x="445" y="450"/>
      <point x="473" y="410"/>
      <point x="473" y="343" type="curve" smooth="yes"/>
      <point x="473" y="220"/>
      <point x="401" y="71"/>
    </contour>
  </outline>
</glyph>
<glyph name="uni01F6" format="2">
  <advance width="560"/>
  <unicode hex="01F6"/>
  <outline>
    <contour>
      <point x="361" y="-15" type="curve" smooth="yes"/>
      <point x="470" y="-15"/>
      <point x="515" y="55"/>
      <point x="548" y="194" type="curve" smooth="yes"/>
      <point x="626" y="520" type="line"/>
      <point x="538" y="520" type="line"/>
      <point x="466" y="220" type="line" smooth="yes"/>
      <point x="435" y="91"/>
      <point x="411" y="63"/>
      <point x="375" y="63" type="curve" smooth="yes"/>
      <point x="339" y="63"/>
      <point x="332" y="90"/>
      <point x="355" y="190" type="curve" smooth="yes"/>
      <point x="475" y="693" type="line"/>
      <point x="388" y="693" type="line"/>
      <point x="317" y="401" type="line"/>
      <point x="203" y="401" type="line"/>
      <point x="273" y="693" type="line"/>
      <point x="185" y="693" type="line"/>
      <point x="20" y="0" type="line"/>
      <point x="108" y="0" type="line"/>
      <point x="185" y="323" type="line"/>
      <point x="299" y="323" type="line"/>
      <point x="279" y="239" type="line" smooth="yes"/>
      <point x="240" y="74"/>
      <point x="248" y="-15"/>
    </contour>
  </outline>
</glyph>
<glyph name="uni01F7" format="2">
  <advance width="560"/>
  <unicode hex="01F7"/>
  <outline>
    <contour>
      <point x="20" y="-185" type="line"/>
      <point x="111" y="-185" type="line"/>
      <point x="155" y="-2" type="line"/>
      <point x="407" y="78"/>
      <point x="612" y="246"/>
      <point x="612" y="519" type="curve" smooth="yes"/>
      <point x="612" y="641"/>
      <point x="535" y="700"/>
      <point x="404" y="700" type="curve" smooth="yes"/>
      <point x="340" y="700"/>
      <point x="259" y="675"/>
      <point x="221" y="654" type="curve"/>
    </contour>
    <contour>
      <point x="176" y="86" type="curve"/>
      <point x="302" y="603" type="line"/>
      <point x="319" y="609"/>
      <point x="349" y="622"/>
      <point x="398" y="622" type="curve" smooth="yes"/>
      <point x="475" y="622"/>
      <point x="519" y="586"/>
      <point x="519" y="510" type="curve" smooth="yes"/>
      <point x="519" y="290"/>
      <point x="335" y="144"/>
    </contour>
  </outline>
</glyph>
<glyph name="uni021C" format="2">
  <advance width="560"/>
  <unicode hex="021C"/>
  <outline>
    <contour>
      <point x="50" y="-185" type="curve" smooth="yes"/>
      <point x="312" y="-185"/>
      <point x="521" y="-97"/>
      <point x="521" y="139" type="curve" smooth="yes"/>
      <point x="521" y="204"/>
      <point x="489" y="270"/>
      <point x="412" y="301" type="curve"/>
      <point x="532" y="349"/>
      <point x="589" y="438"/>
      <point x="589" y="533" type="curve" smooth="yes"/>
      <point x="589" y="652"/>
      <point x="502" y="708"/>
      <point x="360" y="708" type="curve" smooth="yes"/>
      <point x="278" y="708"/>
      <point x="202" y="685"/>
      <point x="164" y="664" type="curve"/>
      <point x="174" y="589" type="line"/>
      <point x="209" y="608"/>
      <point x="276" y="631"/>
      <point x="353" y="631" type="curve" smooth="yes"/>
      <point x="441" y="631"/>
      <point x="497" y="594"/>
      <point x="497" y="525" type="curve" smooth="yes"/>
      <point x="497" y="405"/>
      <point x="356" y="337"/>
      <point x="231" y="337" type="curve" smooth="yes"/>
      <point x="190" y="337" type="line"/>
      <point x="172" y="259" type="line"/>
      <point x="220" y="259" type="line" smooth="yes"/>
      <point x="325" y="259"/>
      <point x="429" y="227"/>
      <point x="429" y="130" type="curve" smooth="yes"/>
      <point x="429" y="-41"/>
      <point x="259" y="-105"/>
      <point x="55" y="-105" type="curve" smooth="yes"/>
      <point x="31" y="-105"/>
      <point x="8" y="-104"/>
      <point x="-6" y="-103" type="curve"/>
      <point x="-29" y="-181" type="line"/>
      <point x="-15" y="-184"/>
      <point x="25" y="-185"/>
    </contour>
  </outline>
</glyph>
<glyph name="uni0220" format="2">
  <advance width="560"/>
  <unicode hex="0220"/>
  <outline>
    <contour>
      <point x="348" y="-185" type="line"/>
      <point x="440" y="-185" type="line"/>
      <point x="591" y="444" type="line" smooth="yes"/>
      <point x="599" y="478"/>
      <point x="606" y="512"/>
      <point x="606" y="543" type="curve" smooth="yes"/>
      <point x="606" y="640"/>
      <point x="552" y="708"/>
      <point x="417" y="708" type="curve" smooth="yes"/>
      <point x="355" y="708"/>
      <point x="270" y="697"/>
      <point x="203" y="678" type="curve"/>
      <point x="40" y="0" type="line"/>
      <point x="132" y="0" type="line"/>
      <point x="281" y="616" type="line"/>
      <point x="307" y="623"/>
      <point x="351" y="627"/>
      <point x="390" y="627" type="curve" smooth="yes"/>
      <point x="485" y="627"/>
      <point x="514" y="588"/>
      <point x="514" y="535" type="curve" smooth="yes"/>
      <point x="514" y="501"/>
      <point x="503" y="460"/>
      <point x="494" y="423" type="curve" smooth="yes"/>
    </contour>
  </outline>
</glyph>
<glyph name="uni0222" format="2">
  <advance width="560"/>
  <unicode hex="0222"/>
  <outline>
    <contour>
      <point x="264" y="-4" type="curve" smooth="yes"/>
      <point x="472" y="-4"/>
      <point x="558" y="116"/>
      <point x="558" y="249" type="curve" smooth="yes"/>
      <point x="558" y="315"/>
      <point x="523" y="355"/>
      <point x="477" y="379" type="curve"/>
      <point x="538" y="404"/>
      <point x="569" y="468"/>
      <point x="585" y="536" type="curve" smooth="yes"/>
      <point x="598" y="590"/>
      <point x="601" y="647"/>
      <point x="603" y="693" type="curve"/>
      <point x="515" y="693" type="line"/>
      <point x="513" y="641"/>
      <point x="507" y="594"/>
      <point x="497" y="554" type="curve" smooth="yes"/>
      <point x="477" y="468"/>
      <point x="437" y="416"/>
      <point x="364" y="416" type="curve" smooth="yes"/>
      <point x="312" y="416"/>
      <point x="284" y="442"/>
      <point x="284" y="493" type="curve" smooth="yes"/>
      <point x="284" y="551"/>
      <point x="314" y="627"/>
      <point x="342" y="693" type="curve"/>
      <point x="253" y="693" type="line"/>
      <point x="222" y="622"/>
      <point x="192" y="543"/>
      <point x="192" y="486" type="curve" smooth="yes"/>
      <point x="192" y="445"/>
      <point x="205" y="408"/>
      <point x="235" y="388" type="curve"/>
      <point x="133" y="353"/>
      <point x="68" y="267"/>
      <point x="68" y="156" type="curve" smooth="yes"/>
      <point x="68" y="71"/>
      <point x="127" y="-4"/>
    </contour>
    <contour>
      <point x="282" y="75" type="curve" smooth="yes"/>
      <point x="211" y="75"/>
      <point x="160" y="105"/>
      <point x="160" y="161" type="curve" smooth="yes"/>
      <point x="160" y="277"/>
      <point x="250" y="335"/>
      <point x="344" y="335" type="curve" smooth="yes"/>
      <point x="413" y="335"/>
      <point x="466" y="304"/>
      <point x="466" y="244" type="curve" smooth="yes"/>
      <point x="466" y="129"/>
      <point x="388" y="75"/>
    </contour>
  </outline>
</glyph>
<glyph name="uni0223" format="2">
  <advance width="560"/>
  <unicode hex="0223"/>
  <outline>
    <contour>
      <point x="267" y="-13" type="curve" smooth="yes"/>
      <point x="467" y="-13"/>
      <point x="552" y="139"/>
      <point x="552" y="295" type="curve" smooth="yes"/>
      <point x="552" y="366"/>
      <point x="520" y="416"/>
      <point x="475" y="439" type="curve"/>
      <point x="550" y="466"/>
      <point x="588" y="535"/>
      <point x="606" y="612" type="curve" smooth="yes"/>
      <point x="619" y="666"/>
      <point x="622" y="716"/>
      <point x="625" y="776" type="curve"/>
      <point x="539" y="776" type="line"/>
      <point x="536" y="729"/>
      <point x="532" y="682"/>
      <point x="521" y="635" type="curve" smooth="yes"/>
      <point x="494" y="528"/>
      <point x="449" y="482"/>
      <point x="373" y="482" type="curve" smooth="yes"/>
      <point x="316" y="482"/>
      <point x="293" y="519"/>
      <point x="293" y="568" type="curve" smooth="yes"/>
      <point x="293" y="636"/>
      <point x="324" y="711"/>
      <point x="353" y="776" type="curve"/>
      <point x="264" y="776" type="line"/>
      <point x="233" y="712"/>
      <point x="205" y="633"/>
      <point x="205" y="557" type="curve" smooth="yes"/>
      <point x="205" y="510"/>
      <point x="226" y="468"/>
      <point x="258" y="449" type="curve"/>
      <point x="150" y="409"/>
      <point x="85" y="314"/>
      <point x="85" y="169" type="curve" smooth="yes"/>
      <point x="85" y="65"/>
      <point x="156" y="-13"/>
    </contour>
    <contour>
      <point x="278" y="67" type="curve" smooth="yes"/>
      <point x="211" y="67"/>
      <point x="177" y="114"/>
      <point x="177" y="181" type="curve" smooth="yes"/>
      <point x="177" y="289"/>
      <point x="232" y="403"/>
      <point x="358" y="403" type="curve" smooth="yes"/>
      <point x="426" y="403"/>
      <point x="459" y="356"/>
      <point x="459" y="289" type="curve" smooth="yes"/>
      <point x="459" y="181"/>
      <point x="404" y="67"/>
    </contour>
  </outline>
</glyph>
<glyph name="uni0229" format="2">
  <advance width="560"/>
  <unicode hex="0229"/>
  <outline>
    <contour>
      <point x="235" y="-189" type="curve" smooth="yes"/>
      <point x="306" y="-189"/>
      <point x="351" y="-157"/>
      <point x="351" y="-99" type="curve" smooth="yes"/>
      <point x="351" y="-67"/>
      <point x="338" y="-53"/>
      <point x="311" y="-38" type="curve"/>
      <point x="316" y="-31"/>
      <point x="323" y="-21"/>
      <point x="329" y="-12" type="curve"/>
      <point x="410" y="-7"/>
      <point x="463" y="11"/>
      <point x="488" y="24" type="curve"/>
      <point x="480" y="102" type="line"/>
      <point x="463" y="90"/>
      <point x="386" y="67"/>
      <point x="323" y="67" type="curve" smooth="yes"/>
      <point x="227" y="67"/>
      <point x="161" y="108"/>
      <point x="170" y="202" type="curve"/>
      <point x="351" y="208"/>
      <point x="563" y="215"/>
      <point x="563" y="403" type="curve" smooth="yes"/>
      <point x="563" y="472"/>
      <point x="514" y="532"/>
      <point x="398" y="532" type="curve" smooth="yes"/>
      <point x="200" y="532"/>
      <point x="80" y="370"/>
      <point x="80" y="181" type="curve" smooth="yes"/>
      <point x="80" y="86"/>
      <point x="140" y="-1"/>
      <point x="267" y="-12" type="curve"/>
      <point x="252" y="-31"/>
      <point x="237" y="-53"/>
      <point x="228" y="-69" type="curve"/>
      <point x="234" y="-72" type="line" smooth="yes"/>
      <point x="259" y="-84"/>
      <point x="269" y="-88"/>
      <point x="269" y="-105" type="curve" smooth="yes"/>
      <point x="269" y="-124"/>
      <point x="253" y="-130"/>
      <point x="230" y="-130" type="curve" smooth="yes"/>
      <point x="205" y="-130"/>
      <point x="188" y="-124"/>
      <point x="177" y="-119" type="curve"/>
      <point x="155" y="-174" type="line"/>
      <point x="171" y="-183"/>
      <point x="196" y="-189"/>
    </contour>
    <contour>
      <point x="181" y="273" type="curve"/>
      <point x="207" y="368"/>
      <point x="284" y="455"/>
      <point x="386" y="455" type="curve" smooth="yes"/>
      <point x="454" y="455"/>
      <point x="472" y="420"/>
      <point x="472" y="396" type="curve" smooth="yes"/>
      <point x="472" y="297"/>
      <point x="361" y="276"/>
    </contour>
  </outline>
</glyph>
<glyph name="uni022A" format="2">
  <advance width="560"/>
  <unicode hex="022A"/>
  <outline>
    <contour>
      <point x="273" y="-15" type="curve" smooth="yes"/>
      <point x="516" y="-15"/>
      <point x="606" y="315"/>
      <point x="606" y="477" type="curve" smooth="yes"/>
      <point x="606" y="622"/>
      <point x="532" y="687"/>
      <point x="424" y="687" type="curve" smooth="yes"/>
      <point x="181" y="687"/>
      <point x="90" y="357"/>
      <point x="90" y="195" type="curve" smooth="yes"/>
      <point x="90" y="50"/>
      <point x="165" y="-15"/>
    </contour>
    <contour>
      <point x="284" y="65" type="curve" smooth="yes"/>
      <point x="221" y="65"/>
      <point x="183" y="104"/>
      <point x="183" y="202" type="curve" smooth="yes"/>
      <point x="183" y="368"/>
      <point x="267" y="607"/>
      <point x="413" y="607" type="curve" smooth="yes"/>
      <point x="476" y="607"/>
      <point x="513" y="567"/>
      <point x="513" y="470" type="curve" smooth="yes"/>
      <point x="513" y="304"/>
      <point x="431" y="65"/>
    </contour>
    <contour>
      <point x="330" y="725" type="curve" smooth="yes"/>
      <point x="358" y="725"/>
      <point x="391" y="750"/>
      <point x="391" y="786" type="curve" smooth="yes"/>
      <point x="391" y="815"/>
      <point x="368" y="834"/>
      <point x="342" y="834" type="curve" smooth="yes"/>
      <point x="312" y="834"/>
      <point x="282" y="811"/>
      <point x="282" y="772" type="curve" smooth="yes"/>
      <point x="282" y="744"/>
      <point x="304" y="725"/>
    </contour>
    <contour>
      <point x="533" y="725" type="curve" smooth="yes"/>
      <point x="561" y="725"/>
      <point x="594" y="750"/>
      <point x="594" y="786" type="curve" smooth="yes"/>
      <point x="594" y="815"/>
      <point x="571" y="834"/>
      <point x="544" y="834" type="curve" smooth="yes"/>
      <point x="515" y="834"/>
      <point x="486" y="811"/>
      <point x="486" y="772" type="curve" smooth="yes"/>
      <point x="486" y="744"/>
      <point x="506" y="725"/>
    </contour>
    <contour>
      <point x="333" y="865" type="line"/>
      <point x="587" y="865" type="line"/>
      <point x="601" y="928" type="line"/>
      <point x="347" y="928" type="line"/>
    </contour>
  </outline>
</glyph>
<glyph name="uni0230" format="2">
  <advance width="560"/>
  <unicode hex="0230"/>
  <outline>
    <contour>
      <point x="273" y="-15" type="curve" smooth="yes"/>
      <point x="516" y="-15"/>
      <point x="606" y="315"/>
      <point x="606" y="477" type="curve" smooth="yes"/>
      <point x="606" y="622"/>
      <point x="532" y="687"/>
      <point x="424" y="687" type="curve" smooth="yes"/>
      <point x="181" y="687"/>
      <point x="90" y="357"/>
      <point x="90" y="195" type="curve" smooth="yes"/>
      <point x="90" y="50"/>
      <point x="165" y="-15"/>
    </contour>
    <contour>
      <point x="284" y="65" type="curve" smooth="yes"/>
      <point x="221" y="65"/>
      <point x="183" y="104"/>
      <point x="183" y="202" type="curve" smooth="yes"/>
      <point x="183" y="368"/>
      <point x="267" y="607"/>
      <point x="413" y="607" type="curve" smooth="yes"/>
      <point x="476" y="607"/>
      <point x="513" y="567"/>
      <point x="513" y="470" type="curve" smooth="yes"/>
      <point x="513" y="304"/>
      <point x="431" y="65"/>
    </contour>
    <contour>
      <point x="450" y="725" type="curve" smooth="yes"/>
      <point x="478" y="725"/>
      <point x="511" y="750"/>
      <point x="511" y="787" type="curve" smooth="yes"/>
      <point x="511" y="818"/>
      <point x="488" y="837"/>
      <point x="461" y="837" type="curve" smooth="yes"/>
      <point x="430" y="837"/>
      <point x="401" y="812"/>
      <point x="401" y="773" type="curve" smooth="yes"/>
      <point x="401" y="744"/>
      <point x="422" y="725"/>
    </contour>
    <contour>
      <point x="347" y="865" type="line"/>
      <point x="601" y="865" type="line"/>
      <point x="617" y="928" type="line"/>
      <point x="363" y="928" type="line"/>
    </contour>
  </outline>
</glyph>
<glyph name="uni0234" format="2">
  <advance width="560"/>
  <unicode hex="0234"/>
  <outline>
    <contour>
      <point x="318" y="-185" type="curve" smooth="yes"/>
      <point x="420" y="-185"/>
      <point x="487" y="-108"/>
      <point x="487" y="-16" type="curve" smooth="yes"/>
      <point x="487" y="45"/>
      <point x="458" y="99"/>
      <point x="379" y="99" type="curve" smooth="yes"/>
      <point x="355" y="99"/>
      <point x="323" y="92"/>
      <point x="295" y="72" type="curve"/>
      <point x="463" y="771" type="line"/>
      <point x="220" y="771" type="line"/>
      <point x="200" y="692" type="line"/>
      <point x="351" y="692" type="line"/>
      <point x="192" y="27" type="line" smooth="yes"/>
      <point x="188" y="16"/>
      <point x="181" y="-8"/>
      <point x="181" y="-19" type="curve"/>
      <point x="52" y="-141" type="line"/>
      <point x="93" y="-188" type="line"/>
      <point x="188" y="-99" type="line"/>
      <point x="203" y="-155"/>
      <point x="246" y="-185"/>
    </contour>
    <contour>
      <point x="323" y="-116" type="curve" smooth="yes"/>
      <point x="284" y="-116"/>
      <point x="265" y="-93"/>
      <point x="265" y="-58" type="curve" smooth="yes"/>
      <point x="265" y="-52"/>
      <point x="267" y="-43"/>
      <point x="274" y="-9" type="curve"/>
      <point x="302" y="15"/>
      <point x="326" y="31"/>
      <point x="360" y="31" type="curve" smooth="yes"/>
      <point x="398" y="31"/>
      <point x="414" y="10"/>
      <point x="414" y="-21" type="curve" smooth="yes"/>
      <point x="414" y="-74"/>
      <point x="374" y="-116"/>
    </contour>
  </outline>
</glyph>
<glyph name="uni0235" format="2">
  <advance width="560"/>
  <unicode hex="0235"/>
  <outline>
    <contour>
      <point x="383" y="-185" type="curve" smooth="yes"/>
      <point x="485" y="-185"/>
      <point x="552" y="-108"/>
      <point x="552" y="-16" type="curve" smooth="yes"/>
      <point x="552" y="45"/>
      <point x="523" y="99"/>
      <point x="444" y="99" type="curve" smooth="yes"/>
      <point x="420" y="99"/>
      <point x="388" y="92"/>
      <point x="358" y="72" type="curve"/>
      <point x="405" y="267" type="line" smooth="yes"/>
      <point x="413" y="301"/>
      <point x="426" y="360"/>
      <point x="426" y="390" type="curve" smooth="yes"/>
      <point x="426" y="486"/>
      <point x="383" y="531"/>
      <point x="293" y="531" type="curve" smooth="yes"/>
      <point x="249" y="531"/>
      <point x="188" y="519"/>
      <point x="140" y="501" type="curve"/>
      <point x="20" y="0" type="line"/>
      <point x="113" y="0" type="line"/>
      <point x="220" y="440" type="line"/>
      <point x="227" y="444"/>
      <point x="253" y="451"/>
      <point x="267" y="451" type="curve" smooth="yes"/>
      <point x="314" y="451"/>
      <point x="334" y="435"/>
      <point x="334" y="382" type="curve" smooth="yes"/>
      <point x="334" y="347"/>
      <point x="316" y="283"/>
      <point x="307" y="246" type="curve" smooth="yes"/>
      <point x="255" y="27" type="line" smooth="yes"/>
      <point x="252" y="16"/>
      <point x="246" y="-8"/>
      <point x="246" y="-19" type="curve"/>
      <point x="116" y="-141" type="line"/>
      <point x="158" y="-188" type="line"/>
      <point x="253" y="-99" type="line"/>
      <point x="268" y="-155"/>
      <point x="311" y="-185"/>
    </contour>
    <contour>
      <point x="388" y="-116" type="curve" smooth="yes"/>
      <point x="349" y="-116"/>
      <point x="330" y="-93"/>
      <point x="330" y="-58" type="curve" smooth="yes"/>
      <point x="330" y="-52"/>
      <point x="332" y="-43"/>
      <point x="339" y="-9" type="curve"/>
      <point x="367" y="15"/>
      <point x="391" y="31"/>
      <point x="424" y="31" type="curve" smooth="yes"/>
      <point x="463" y="31"/>
      <point x="479" y="10"/>
      <point x="479" y="-21" type="curve" smooth="yes"/>
      <point x="479" y="-74"/>
      <point x="439" y="-116"/>
    </contour>
  </outline>
</glyph>
<glyph name="uni0236" format="2">
  <advance width="560"/>
  <unicode hex="0236"/>
  <outline>
    <contour>
      <point x="298" y="-185" type="curve" smooth="yes"/>
      <point x="400" y="-185"/>
      <point x="467" y="-108"/>
      <point x="467" y="-16" type="curve" smooth="yes"/>
      <point x="467" y="45"/>
      <point x="438" y="99"/>
      <point x="360" y="99" type="curve" smooth="yes"/>
      <point x="335" y="99"/>
      <point x="304" y="92"/>
      <point x="274" y="72" type="curve"/>
      <point x="362" y="442" type="line"/>
      <point x="572" y="442" type="line"/>
      <point x="592" y="520" type="line"/>
      <point x="381" y="520" type="line"/>
      <point x="420" y="681" type="line"/>
      <point x="323" y="665" type="line"/>
      <point x="289" y="520" type="line"/>
      <point x="179" y="520" type="line"/>
      <point x="159" y="442" type="line"/>
      <point x="270" y="442" type="line"/>
      <point x="170" y="27" type="line" smooth="yes"/>
      <point x="167" y="16"/>
      <point x="161" y="-8"/>
      <point x="161" y="-19" type="curve"/>
      <point x="31" y="-141" type="line"/>
      <point x="73" y="-188" type="line"/>
      <point x="168" y="-99" type="line"/>
      <point x="183" y="-155"/>
      <point x="226" y="-185"/>
    </contour>
    <contour>
      <point x="304" y="-116" type="curve" smooth="yes"/>
      <point x="264" y="-116"/>
      <point x="245" y="-93"/>
      <point x="245" y="-58" type="curve" smooth="yes"/>
      <point x="245" y="-52"/>
      <point x="246" y="-43"/>
      <point x="254" y="-9" type="curve"/>
      <point x="282" y="15"/>
      <point x="306" y="31"/>
      <point x="339" y="31" type="curve" smooth="yes"/>
      <point x="379" y="31"/>
      <point x="394" y="10"/>
      <point x="394" y="-21" type="curve" smooth="yes"/>
      <point x="394" y="-74"/>
      <point x="354" y="-116"/>
    </contour>
  </outline>
</glyph>
<glyph name="dotlessj" format="2">
  <advance width="560"/>
  <unicode hex="0237"/>
  <outline>
    <contour>
      <point x="172" y="-188" type="curve" smooth="yes"/>
      <point x="295" y="-188"/>
      <point x="376" y="-137"/>
      <point x="411" y="7" type="curve" smooth="yes"/>
      <point x="534" y="520" type="line"/>
      <point x="232" y="520" type="line"/>
      <point x="214" y="442" type="line"/>
      <point x="424" y="442" type="line"/>
      <point x="319" y="9" type="line" smooth="yes"/>
      <point x="298" y="-80"/>
      <point x="260" y="-109"/>
      <point x="183" y="-109" type="curve" smooth="yes"/>
      <point x="144" y="-109"/>
      <point x="90" y="-93"/>
      <point x="59" y="-71" type="curve"/>
      <point x="24" y="-148" type="line"/>
      <point x="67" y="-175"/>
      <point x="115" y="-188"/>
    </contour>
  </outline>
</glyph>
<glyph name="uni0238" format="2">
  <advance width="560"/>
  <unicode hex="0238"/>
  <outline>
    <contour>
      <point x="167" y="-13" type="curve" smooth="yes"/>
      <point x="195" y="-13"/>
      <point x="230" y="-4"/>
      <point x="267" y="15" type="curve"/>
      <point x="297" y="-7"/>
      <point x="327" y="-13"/>
      <point x="354" y="-13" type="curve" smooth="yes"/>
      <point x="503" y="-13"/>
      <point x="594" y="198"/>
      <point x="594" y="358" type="curve" smooth="yes"/>
      <point x="594" y="454"/>
      <point x="560" y="531"/>
      <point x="494" y="531" type="curve" smooth="yes"/>
      <point x="472" y="531"/>
      <point x="451" y="525"/>
      <point x="427" y="512" type="curve"/>
      <point x="489" y="776" type="line"/>
      <point x="403" y="760" type="line"/>
      <point x="346" y="523" type="line"/>
      <point x="328" y="529"/>
      <point x="311" y="531"/>
      <point x="295" y="531" type="curve" smooth="yes"/>
      <point x="144" y="531"/>
      <point x="54" y="325"/>
      <point x="54" y="166" type="curve" smooth="yes"/>
      <point x="54" y="67"/>
      <point x="88" y="-13"/>
    </contour>
    <contour>
      <point x="192" y="57" type="curve" smooth="yes"/>
      <point x="156" y="57"/>
      <point x="140" y="95"/>
      <point x="140" y="153" type="curve" smooth="yes"/>
      <point x="140" y="276"/>
      <point x="207" y="461"/>
      <point x="291" y="461" type="curve" smooth="yes"/>
      <point x="304" y="461"/>
      <point x="317" y="459"/>
      <point x="330" y="454" type="curve"/>
      <point x="237" y="68" type="line"/>
      <point x="220" y="60"/>
      <point x="204" y="57"/>
    </contour>
    <contour>
      <point x="358" y="57" type="curve" smooth="yes"/>
      <point x="346" y="57"/>
      <point x="333" y="60"/>
      <point x="319" y="69" type="curve"/>
      <point x="407" y="437" type="line"/>
      <point x="430" y="454"/>
      <point x="444" y="461"/>
      <point x="458" y="461" type="curve" smooth="yes"/>
      <point x="491" y="461"/>
      <point x="506" y="428"/>
      <point x="506" y="367" type="curve" smooth="yes"/>
      <point x="506" y="245"/>
      <point x="442" y="57"/>
    </contour>
  </outline>
</glyph>
<glyph name="uni0240" format="2">
  <advance width="560"/>
  <unicode hex="0240"/>
  <outline>
    <contour>
      <point x="383" y="-185" type="curve" smooth="yes"/>
      <point x="399" y="-185"/>
      <point x="430" y="-183"/>
      <point x="449" y="-176" type="curve"/>
      <point x="458" y="-97" type="line"/>
      <point x="439" y="-102"/>
      <point x="420" y="-102"/>
      <point x="416" y="-102" type="curve" smooth="yes"/>
      <point x="351" y="-102"/>
      <point x="330" y="-63"/>
      <point x="298" y="-21" type="curve" smooth="yes"/>
      <point x="258" y="30"/>
      <point x="227" y="52"/>
      <point x="180" y="67" type="curve"/>
      <point x="260" y="175"/>
      <point x="479" y="385"/>
      <point x="556" y="454" type="curve"/>
      <point x="571" y="520" type="line"/>
      <point x="200" y="520" type="line"/>
      <point x="183" y="442" type="line"/>
      <point x="431" y="442" type="line"/>
      <point x="338" y="357"/>
      <point x="159" y="177"/>
      <point x="78" y="60" type="curve"/>
      <point x="64" y="0" type="line"/>
      <point x="90" y="0" type="line" smooth="yes"/>
      <point x="169" y="0"/>
      <point x="199" y="-37"/>
      <point x="236" y="-85" type="curve" smooth="yes"/>
      <point x="276" y="-136"/>
      <point x="299" y="-185"/>
    </contour>
  </outline>
</glyph>
<glyph name="uni0243" format="2">
  <advance width="560"/>
  <unicode hex="0243"/>
  <outline>
    <contour>
      <point x="241" y="-6" type="curve" smooth="yes"/>
      <point x="446" y="-6"/>
      <point x="560" y="83"/>
      <point x="560" y="237" type="curve" smooth="yes"/>
      <point x="560" y="299"/>
      <point x="514" y="351"/>
      <point x="463" y="365" type="curve"/>
      <point x="560" y="403"/>
      <point x="601" y="472"/>
      <point x="601" y="559" type="curve" smooth="yes"/>
      <point x="601" y="659"/>
      <point x="523" y="700"/>
      <point x="409" y="700" type="curve" smooth="yes"/>
      <point x="364" y="700"/>
      <point x="292" y="696"/>
      <point x="245" y="683" type="curve"/>
      <point x="137" y="231" type="line"/>
      <point x="77" y="231" type="line"/>
      <point x="60" y="161" type="line"/>
      <point x="120" y="161" type="line"/>
      <point x="85" y="11" type="line"/>
      <point x="125" y="-1"/>
      <point x="196" y="-6"/>
    </contour>
    <contour>
      <point x="265" y="72" type="curve" smooth="yes"/>
      <point x="223" y="72"/>
      <point x="207" y="74"/>
      <point x="192" y="76" type="curve"/>
      <point x="211" y="161" type="line"/>
      <point x="334" y="161" type="line"/>
      <point x="351" y="231" type="line"/>
      <point x="228" y="231" type="line"/>
      <point x="251" y="324" type="line"/>
      <point x="337" y="324" type="line" smooth="yes"/>
      <point x="412" y="324"/>
      <point x="467" y="302"/>
      <point x="467" y="233" type="curve" smooth="yes"/>
      <point x="467" y="103"/>
      <point x="360" y="72"/>
    </contour>
    <contour>
      <point x="269" y="400" type="line"/>
      <point x="323" y="618" type="line"/>
      <point x="334" y="620"/>
      <point x="363" y="622"/>
      <point x="398" y="622" type="curve" smooth="yes"/>
      <point x="458" y="622"/>
      <point x="510" y="599"/>
      <point x="510" y="539" type="curve" smooth="yes"/>
      <point x="510" y="430"/>
      <point x="419" y="400"/>
      <point x="334" y="400" type="curve" smooth="yes"/>
    </contour>
  </outline>
</glyph>
<glyph name="uni0248" format="2">
  <advance width="560"/>
  <unicode hex="0248"/>
  <outline>
    <contour>
      <point x="232" y="-15" type="curve" smooth="yes"/>
      <point x="412" y="-15"/>
      <point x="457" y="94"/>
      <point x="488" y="223" type="curve" smooth="yes"/>
      <point x="512" y="324" type="line"/>
      <point x="592" y="324" type="line"/>
      <point x="610" y="399" type="line"/>
      <point x="530" y="399" type="line"/>
      <point x="600" y="693" type="line"/>
      <point x="272" y="693" type="line"/>
      <point x="254" y="615" type="line"/>
      <point x="491" y="615" type="line"/>
      <point x="438" y="399" type="line"/>
      <point x="298" y="399" type="line"/>
      <point x="280" y="324" type="line"/>
      <point x="420" y="324" type="line"/>
      <point x="398" y="232" type="line" smooth="yes"/>
      <point x="370" y="115"/>
      <point x="323" y="65"/>
      <point x="234" y="65" type="curve" smooth="yes"/>
      <point x="169" y="65"/>
      <point x="124" y="101"/>
      <point x="103" y="122" type="curve"/>
      <point x="55" y="49" type="line"/>
      <point x="76" y="26"/>
      <point x="140" y="-15"/>
    </contour>
  </outline>
</glyph>
<glyph name="uni0249" format="2">
  <advance width="560"/>
  <unicode hex="0249"/>
  <outline>
    <contour>
      <point x="153" y="-188" type="curve" smooth="yes"/>
      <point x="276" y="-188"/>
      <point x="356" y="-137"/>
      <point x="391" y="7" type="curve" smooth="yes"/>
      <point x="447" y="240" type="line"/>
      <point x="533" y="240" type="line"/>
      <point x="550" y="310" type="line"/>
      <point x="463" y="310" type="line"/>
      <point x="514" y="520" type="line"/>
      <point x="212" y="520" type="line"/>
      <point x="194" y="442" type="line"/>
      <point x="404" y="442" type="line"/>
      <point x="372" y="310" type="line"/>
      <point x="162" y="310" type="line"/>
      <point x="144" y="240" type="line"/>
      <point x="355" y="240" type="line"/>
      <point x="299" y="9" type="line" smooth="yes"/>
      <point x="278" y="-80"/>
      <point x="240" y="-109"/>
      <point x="162" y="-109" type="curve" smooth="yes"/>
      <point x="125" y="-109"/>
      <point x="71" y="-93"/>
      <point x="39" y="-71" type="curve"/>
      <point x="3" y="-148" type="line"/>
      <point x="47" y="-175"/>
      <point x="95" y="-188"/>
    </contour>
    <contour>
      <point x="459" y="600" type="curve" smooth="yes"/>
      <point x="498" y="600"/>
      <point x="540" y="633"/>
      <point x="540" y="682" type="curve" smooth="yes"/>
      <point x="540" y="726"/>
      <point x="510" y="750"/>
      <point x="472" y="750" type="curve" smooth="yes"/>
      <point x="431" y="750"/>
      <point x="392" y="718"/>
      <point x="392" y="666" type="curve" smooth="yes"/>
      <point x="392" y="624"/>
      <point x="420" y="600"/>
    </contour>
  </outline>
</glyph>
<glyph name="uni024A" format="2">
  <advance width="560"/>
  <unicode hex="024A"/>
  <outline>
    <contour>
      <point x="473" y="-187" type="curve" smooth="yes"/>
      <point x="493" y="-187"/>
      <point x="513" y="-183"/>
      <point x="523" y="-178" type="curve"/>
      <point x="530" y="-106" type="line"/>
      <point x="522" y="-110"/>
      <point x="507" y="-112"/>
      <point x="500" y="-112" type="curve" smooth="yes"/>
      <point x="476" y="-112"/>
      <point x="466" y="-105"/>
      <point x="466" y="-76" type="curve" smooth="yes"/>
      <point x="466" y="-63"/>
      <point x="472" y="-36"/>
      <point x="482" y="0" type="curve" smooth="yes"/>
      <point x="562" y="337" type="line" smooth="yes"/>
      <point x="575" y="393"/>
      <point x="581" y="446"/>
      <point x="581" y="488" type="curve" smooth="yes"/>
      <point x="581" y="641"/>
      <point x="510" y="709"/>
      <point x="407" y="709" type="curve" smooth="yes"/>
      <point x="172" y="709"/>
      <point x="85" y="372"/>
      <point x="85" y="206" type="curve" smooth="yes"/>
      <point x="85" y="54"/>
      <point x="155" y="-15"/>
      <point x="256" y="-15" type="curve" smooth="yes"/>
      <point x="314" y="-15"/>
      <point x="361" y="4"/>
      <point x="404" y="55" type="curve"/>
      <point x="390" y="0" type="line" smooth="yes"/>
      <point x="381" y="-35"/>
      <point x="375" y="-68"/>
      <point x="375" y="-88" type="curve" smooth="yes"/>
      <point x="375" y="-157"/>
      <point x="402" y="-187"/>
    </contour>
    <contour>
      <point x="267" y="65" type="curve" smooth="yes"/>
      <point x="211" y="65"/>
      <point x="178" y="108"/>
      <point x="178" y="213" type="curve" smooth="yes"/>
      <point x="178" y="384"/>
      <point x="258" y="629"/>
      <point x="396" y="629" type="curve" smooth="yes"/>
      <point x="454" y="629"/>
      <point x="488" y="586"/>
      <point x="488" y="482" type="curve" smooth="yes"/>
      <point x="488" y="310"/>
      <point x="409" y="65"/>
    </contour>
  </outline>
</glyph>
<glyph name="uni024C" format="2">
  <advance width="560"/>
  <unicode hex="024C"/>
  <outline>
    <contour>
      <point x="71" y="0" type="line"/>
      <point x="161" y="0" type="line"/>
      <point x="227" y="273" type="line"/>
      <point x="305" y="273" type="line" smooth="yes"/>
      <point x="315" y="273"/>
      <point x="324" y="273"/>
      <point x="334" y="274" type="curve"/>
      <point x="358" y="218"/>
      <point x="384" y="149"/>
      <point x="411" y="0" type="curve"/>
      <point x="505" y="0" type="line"/>
      <point x="475" y="149"/>
      <point x="456" y="211"/>
      <point x="420" y="291" type="curve"/>
      <point x="523" y="325"/>
      <point x="591" y="409"/>
      <point x="591" y="534" type="curve" smooth="yes"/>
      <point x="591" y="634"/>
      <point x="530" y="700"/>
      <point x="394" y="700" type="curve" smooth="yes"/>
      <point x="348" y="700"/>
      <point x="280" y="696"/>
      <point x="233" y="683" type="curve"/>
      <point x="155" y="349" type="line"/>
      <point x="82" y="349" type="line"/>
      <point x="63" y="273" type="line"/>
      <point x="136" y="273" type="line"/>
    </contour>
    <contour>
      <point x="245" y="349" type="line"/>
      <point x="309" y="617" type="line"/>
      <point x="323" y="619"/>
      <point x="356" y="622"/>
      <point x="388" y="622" type="curve" smooth="yes"/>
      <point x="454" y="622"/>
      <point x="500" y="591"/>
      <point x="500" y="520" type="curve" smooth="yes"/>
      <point x="500" y="384"/>
      <point x="407" y="349"/>
      <point x="295" y="349" type="curve" smooth="yes"/>
    </contour>
  </outline>
</glyph>
<glyph name="uni024D" format="2">
  <advance width="560"/>
  <unicode hex="024D"/>
  <outline>
    <contour>
      <point x="100" y="0" type="line"/>
      <point x="192" y="0" type="line"/>
      <point x="241" y="205" type="line"/>
      <point x="416" y="205" type="line"/>
      <point x="433" y="276" type="line"/>
      <point x="258" y="276" type="line"/>
      <point x="295" y="432" type="line"/>
      <point x="343" y="445"/>
      <point x="392" y="450"/>
      <point x="438" y="450" type="curve" smooth="yes"/>
      <point x="482" y="450"/>
      <point x="504" y="448"/>
      <point x="550" y="436" type="curve"/>
      <point x="585" y="517" type="line"/>
      <point x="532" y="529"/>
      <point x="504" y="531"/>
      <point x="457" y="531" type="curve" smooth="yes"/>
      <point x="379" y="531"/>
      <point x="299" y="519"/>
      <point x="218" y="493" type="curve"/>
      <point x="166" y="276" type="line"/>
      <point x="81" y="276" type="line"/>
      <point x="64" y="205" type="line"/>
      <point x="149" y="205" type="line"/>
    </contour>
  </outline>
</glyph>
<glyph name="uni024E" format="2">
  <advance width="560"/>
  <unicode hex="024E"/>
  <outline>
    <contour>
      <point x="220" y="0" type="line"/>
      <point x="311" y="0" type="line"/>
      <point x="374" y="260" type="line"/>
      <point x="433" y="330"/>
      <point x="491" y="400"/>
      <point x="545" y="472" type="curve"/>
      <point x="668" y="472" type="line"/>
      <point x="684" y="544" type="line"/>
      <point x="597" y="544" type="line"/>
      <point x="633" y="594"/>
      <point x="666" y="643"/>
      <point x="697" y="693" type="curve"/>
      <point x="597" y="693" type="line"/>
      <point x="569" y="647"/>
      <point x="535" y="596"/>
      <point x="500" y="544" type="curve"/>
      <point x="282" y="544" type="line"/>
      <point x="270" y="594"/>
      <point x="261" y="645"/>
      <point x="256" y="693" type="curve"/>
      <point x="165" y="693" type="line"/>
      <point x="172" y="643"/>
      <point x="181" y="594"/>
      <point x="193" y="544" type="curve"/>
      <point x="122" y="544" type="line"/>
      <point x="105" y="472" type="line"/>
      <point x="211" y="472" type="line"/>
      <point x="231" y="401"/>
      <point x="254" y="332"/>
      <point x="281" y="258" type="curve"/>
    </contour>
    <contour>
      <point x="342" y="328" type="curve"/>
      <point x="327" y="371"/>
      <point x="314" y="421"/>
      <point x="299" y="472" type="curve"/>
      <point x="449" y="472" type="line"/>
      <point x="413" y="422"/>
      <point x="377" y="373"/>
    </contour>
  </outline>
</glyph>
<glyph name="uni024F" format="2">
  <advance width="560"/>
  <unicode hex="024F"/>
  <outline>
    <contour>
      <point x="67" y="-188" type="curve" smooth="yes"/>
      <point x="215" y="-188"/>
      <point x="295" y="-88"/>
      <point x="379" y="38" type="curve" smooth="yes"/>
      <point x="423" y="103"/>
      <point x="463" y="176"/>
      <point x="495" y="248" type="curve"/>
      <point x="579" y="248" type="line"/>
      <point x="595" y="315" type="line"/>
      <point x="525" y="315" type="line"/>
      <point x="560" y="398"/>
      <point x="586" y="472"/>
      <point x="600" y="520" type="curve"/>
      <point x="503" y="520" type="line"/>
      <point x="493" y="477"/>
      <point x="469" y="401"/>
      <point x="435" y="315" type="curve"/>
      <point x="269" y="315" type="line"/>
      <point x="258" y="390"/>
      <point x="249" y="461"/>
      <point x="248" y="520" type="curve"/>
      <point x="153" y="520" type="line"/>
      <point x="155" y="451"/>
      <point x="164" y="382"/>
      <point x="174" y="315" type="curve"/>
      <point x="110" y="315" type="line"/>
      <point x="94" y="248" type="line"/>
      <point x="187" y="248" type="line"/>
      <point x="204" y="158"/>
      <point x="227" y="73"/>
      <point x="252" y="-7" type="curve"/>
      <point x="202" y="-80"/>
      <point x="155" y="-109"/>
      <point x="77" y="-109" type="curve" smooth="yes"/>
      <point x="49" y="-109"/>
      <point x="25" y="-101"/>
      <point x="12" y="-90" type="curve"/>
      <point x="-20" y="-166" type="line"/>
      <point x="-4" y="-177"/>
      <point x="30" y="-188"/>
    </contour>
    <contour>
      <point x="317" y="84" type="curve"/>
      <point x="304" y="136"/>
      <point x="291" y="192"/>
      <point x="280" y="248" type="curve"/>
      <point x="404" y="248" type="line"/>
      <point x="379" y="192"/>
      <point x="351" y="136"/>
    </contour>
  </outline>
</glyph>
<glyph name="apostrophe" format="2">
  <advance width="560"/>
  <unicode hex="02BC"/>
  <outline>
    <contour>
      <point x="360" y="566" type="line"/>
      <point x="405" y="612"/>
      <point x="455" y="693"/>
      <point x="474" y="776" type="curve"/>
      <point x="379" y="776" type="line"/>
      <point x="370" y="712"/>
      <point x="342" y="651"/>
      <point x="301" y="588" type="curve"/>
    </contour>
  </outline>
</glyph>
